<svg viewBox="0 0 528 448" xmlns="http://www.w3.org/2000/svg" xmlns:xlink="http://www.w3.org/1999/xlink" stroke-linejoin="round" stroke-miterlimit="2" fill-rule="evenodd" clip-rule="evenodd" overflow="hidden"><g transform="matrix(-3.64348 -2.02143 -2.02143 3.64348 369.989 295.215)"><path d="M-4.163-41.519C9.69-39.692 20.909-32.844 20.91-25.982 20.914-19.06 9.687-8.913-4.163-3-18.009 2.908-29.242-3.769-29.249-18.615-29.171-33.371-17.979-43.342-4.163-41.519" fill="#FF9700" fill-rule="nonzero"/></g><g transform="matrix(3.10397 2.77966 2.77966 -3.10397 156.431 122.814)"><path d="M14.142-2.416C27.991-0.59 39.205 6.255 39.205 13.115 39.211 20.033 27.987 30.177 14.142 36.088 0.302 41.993-10.927 35.319-10.934 20.48-10.856 5.728 0.332-4.239 14.142-2.416" fill="#006ECD" fill-rule="nonzero"/></g><g transform="matrix(-0.00638212 -4.16666 -4.16666 0.00638212 276.9 253.907)"><path d="M-21.274-21.319C-7.419-19.492 3.798-12.644 3.799-5.782 3.803 1.139-7.424 11.286-21.274 17.201-35.12 23.108-46.352 16.431-46.359 1.586-46.282-13.171-35.09-23.142-21.274-21.319" fill="#EF151E" fill-rule="nonzero"/></g><g transform="matrix(4.16667 0 0 4.16667 146.465 353.18)"><path d="M0-38.592C-2.353-38.592-3.935-37.141-3.935-34.983L-3.935-32.81 1.653-32.81C1.653-32.81 1.84-14.371 1.628-12.44 1.417-10.508 0.926-7.363-2.529-5.715-5.51-4.292-5.571-2.946-5.761-1.75-6.008-0.197-5.717 0-4.586-0.277-0.146-1.365 4.58-3.146 6.97-7.537 8.268-9.92 8.787-12.501 8.787-16.419L8.787-32.811C11.153-32.838 12.861-34.348 12.861-36.421L12.861-38.592 0-38.592Z" fill-rule="nonzero"/></g><g transform="matrix(4.16667 0 0 4.16667 120.583 215.342)"><path d="M0 19.35C0 19.35-4.483 25.779-13.189 25.779-22.171 25.779-28.94 18.902-28.94 9.783-28.94 0.541-22.171-6.429-13.189-6.429-4.641-6.429-0.114-0.002-0.114-0.002-0.114-0.002-2.508 2.56-4.806 2.56-5.926 2.56-6.765 2.042-7.734 1.445-9.032 0.643-10.503-0.264-13.189-0.264-18.296-0.264-22.45 4.242-22.45 9.783-22.45 15.207-18.296 19.62-13.189 19.62-10.158 19.62-8.734 18.751-7.477 17.984-6.584 17.438-5.74 16.923-4.519 16.923-1.931 16.923 0 19.35 0 19.35" fill-rule="nonzero"/></g></svg>