<svg width="901.447" height="901.447" viewBox="0 0 238.508 238.508" xmlns="http://www.w3.org/2000/svg" xmlns:xlink="http://www.w3.org/1999/xlink" overflow="hidden"><g transform="translate(1.834 1.867)"><circle cx="117.42" cy="117.387" r="119.254" stroke-width="0.264583" fill="#FFFFFF"/><path d="M0 0C0-3.00995 2.44005-5.45 5.45-5.45L16.422-5.45 16.422 0.007 6.038 0.007 6.038 14.79 16.422 14.79 16.422 20.247 0 20.247Z" fill="#004098" transform="matrix(0.50165 0 0 -0.50165 106.663 217.904)"/><path d="M0 0-3.283 0-3.283 13.531-9.321 13.531-9.321-27.061-3.283-27.061-3.283-5.456 0-5.456 0-27.061 6.038-27.061 6.038 13.531 0 13.531Z" fill="#004098" transform="matrix(0.50165 0 0 -0.50165 121.125 214.535)"/><path d="M0 0-4.282-14.22C-5.14926-17.1018-3.51658-20.1411-0.635-21.009L14.394-25.534 15.967-20.31 1.502-15.954 5.782-1.741Z" fill="#004098" transform="matrix(0.50165 0 0 -0.50165 83.045 201.41)"/><path d="M0 0-5.782 1.741-11.635-17.697-5.853-19.438-3.524-11.703 1.64-13.258 3.213-8.034-1.951-6.479Z" fill="#004098" transform="matrix(0.50165 0 0 -0.50165 97.514 205.767)"/><path d="M0 0 14.251-4.291 12.502-10.101-1.749-5.81ZM-7.533-4.075C-8.40077-6.95657-6.76827-9.99602-3.8867-10.8638-3.88646-10.8639-3.88623-10.8639-3.886-10.864L16.71-17.066 21.606-0.807-4.209 6.966Z" fill="#004098" transform="matrix(0.50165 0 0 -0.50165 83.26 216.704)"/><path d="M0 0-8.144 13.59-13.323 10.487-5.179-3.104-9.166-5.493-17.311 8.097-22.49 4.993-14.346-8.597-19.387-11.618-16.582-16.299 14.049 2.058 11.244 6.738Z" fill="#004098" transform="matrix(0.50165 0 0 -0.50165 173.54 207.313)"/><path d="M0 0 5.179 3.104-4.26 18.856C-5.80733 21.4375-9.15432 22.2761-11.736 20.729L-34.867 6.867-32.062 2.187-9.436 15.746Z" fill="#004098" transform="matrix(0.50165 0 0 -0.50165 174.083 203.093)"/><path d="M0 0-5.212-1.389-6.954 5.149-12.788 3.595-7.562-16.021-1.728-14.466-3.807-6.661 1.405-5.272Z" fill="#004098" transform="matrix(0.50165 0 0 -0.50165 151.459 205.332)"/><path d="M0 0-20.785-5.537-19.38-10.81 0.836-5.424 3.791-16.515 9.625-14.96 6.669-3.863C5.894-0.95478 2.90831 0.774674 1.48773e-07 8.39233e-08" fill="#004098" transform="matrix(0.50165 0 0 -0.50165 148.384 214.92)"/><path d="M0 0C-0.565 2.122 0.817 4.333 3.088 4.938 5.358 5.543 7.658 4.313 8.223 2.191 8.788 0.069 7.406-2.142 5.135-2.747 2.865-3.352 0.565-2.122 0 0M6.549-8.054C12.044-6.59 15.408-1.307 14.062 3.746 13.434 6.105 11.885 7.987 9.859 9.184L14.185 10.337 12.78 15.609 3.992 13.268 2.846 17.567-2.989 16.013-1.843 11.713-10.629 9.373-9.225 4.1-4.898 5.253C-6.06 3.206-6.468 0.802-5.839-1.556-4.493-6.609 1.053-9.518 6.549-8.054" fill="#004098" transform="matrix(0.50165 0 0 -0.50165 137.527 211.653)"/><path d="M0 0C-1.177-1.826-4.138-2.174-6.887-0.402-9.635 1.37-10.54 4.211-9.362 6.037-8.185 7.863-5.224 8.211-2.475 6.439 0.273 4.667 1.177 1.826 0 0M-12.701 22.274-0.593 14.466-2.014 12.263C-7.133 14.383-12.285 13.1-14.643 9.442-17.383 5.194-15.661-1.168-9.812-4.939-3.963-8.711 2.542-7.653 5.281-3.405 7.566 0.139 6.736 5.149 3.005 8.904L4.482 11.194 16.593 3.385 19.47 7.848-9.824 26.737Z" fill="#004098" transform="matrix(0.50165 0 0 -0.50165 61.832 208.545)"/><path d="M0 0-5.075 3.272-7.486-0.467-18.373 6.553-21.251 2.09-12.12-3.798C-14.682-4.542-18.22-4.031-23.149-0.853L-25.998-5.272C-18.702-9.977-13.159-10.284-9.221-8.733-9.009-12.96-6.443-17.882 0.854-22.586L3.703-18.167C-1.225-14.99-3.15-11.978-3.53-9.336L5.601-15.224 8.479-10.761-2.411-3.739Z" fill="#004098" transform="matrix(0.50165 0 0 -0.50165 70.943 192.286)"/><path d="M0 0C5.085 3.093 11.689 1.842 11.689 1.842 11.689 1.842 2.342 1.177 0.6-1.311-0.588-3.007 2.673-4.931 10.271-3.113 18.416-1.164 24.08 5.577 24.08 5.577 17.044 3.95 9.181 6.565 3.02 3.689-1.226 1.707 0 0 0 0" fill="#004098" transform="matrix(0.50165 0 0 -0.50165 95.942 59.722)"/><path d="M0 0 0.562 0.25C1.757 1.05 3.101 2.173 4.557 3.694 10.425 9.822 12.183 18.166 12.183 18.166 7.859 14.81-2.678 12.424-6.169 6.323-8.586 2.099-6.126 0.965-6.126 0.965-4.052 7.436 3.38 9.597 3.38 9.597 3.38 9.597-4.917 3.753-4.808 0.059-4.777-0.975-3.99-1.477-2.657-1.234-2.371-1.109-2.038-0.987-1.674-0.868-1.116-0.578-0.563-0.281 0 0" fill="#004098" transform="matrix(0.50165 0 0 -0.50165 90.953 61.742)"/><path d="M0 0C-0.755-0.329-1.249-0.673-1.576-1.004-0.882-0.622-0.185-0.245 0.518 0.124 0.347751 0.0731507 0.17482 0.0317542 6.67572e-09-2.02656e-09" fill="#004098" transform="matrix(0.50165 0 0 -0.50165 89.62 62.361)"/><path d="M0 0C6.009 2.089 11.522-0.838 11.522-0.838 11.522-0.838 2.194 0.666 0.055-1.736-1.404-3.374 1.36-5.709 8.656-5.609 16.623-5.499 23.365-1.179 23.365-1.179 19.149-0.614 12.558 3.293 6.806 3.618 6 3.203 5.27 2.835 4.787 2.591 3.17086 1.7657 1.57474 0.901787 1.79291e-07 8.01086e-08" fill="#004098" transform="matrix(0.50165 0 0 -0.50165 88.734 63.74)"/><path d="M0 0C-0.364-0.119-0.697-0.24-0.984-0.365-0.819-0.335-0.647-0.295-0.466-0.242-0.311-0.16-0.155-0.081 5.55112e-17 0" fill="#004098" transform="matrix(0.50165 0 0 -0.50165 90.114 62.178)"/><path d="M0 0C2.208 1.135 5.007 2.633 5.007 2.999 5.007 3.579 0.074 1.453-1.821 0.615-2.33277 0.268007-2.8692-0.0411484-3.426-0.31-2.339-0.01-1.186 0.067 0 0" fill="#004098" transform="matrix(0.50165 0 0 -0.50165 92.149 61.925)"/><path d="M0 0C0.193 0.063 0.384 0.127 0.601 0.187L0.631 0.193C1.18757 0.462288 1.72397 0.771425 2.236 1.118 2.04832 1.03544 1.86099 0.952111 1.674 0.868 1.111 0.587 0.558 0.29 0 0" fill="#004098" transform="matrix(0.50165 0 0 -0.50165 90.114 62.178)"/><path d="M0 0C0.083 0.031 0.164 0.05 0.246 0.079 1.82087 0.980843 3.41733 1.84443 5.034 2.669 5.517 2.914 6.246 3.282 7.053 3.696 5.866 3.763 4.714 3.687 3.627 3.387 3.27338 3.21408 2.90696 3.06865 2.531 2.952 1.828 2.582 1.13 2.206 0.437 1.823-0.522 0.853 0 0 0 0" fill="#004098" transform="matrix(0.50165 0 0 -0.50165 88.61 63.78)"/><path d="M0 0C-0.155-0.081-0.311-0.16-0.466-0.242-0.129-0.142 0.241 0.009 0.631 0.193L0.601 0.187C0.384 0.127 0.193 0.063 0 0" fill="#004098" transform="matrix(0.50165 0 0 -0.50165 90.114 62.178)"/><path d="M0 0C13.819-4.601 16.12-8.153 16.12-8.153L26.743-2.694C19.479 0.857 11.403 3.492 3.002 5.621L-1.813 2.182Z" fill="#004098" transform="matrix(0.50165 0 0 -0.50165 126.016 177.288)"/><path d="M0 0 3.464 2.474Z" fill="#004098" transform="matrix(0.50165 0 0 -0.50165 124.426 175.374)"/><path d="M0 0C7.598-1.818 10.859 0.106 9.671 1.802 7.929 4.29-1.418 4.955-1.418 4.955-1.418 4.955 5.186 6.206 10.271 3.113 10.271 3.113 11.497 4.82 7.251 6.802 1.09 9.677-6.773 7.063-13.809 8.69-13.809 8.69-8.145 1.949 1.77636e-15 0" fill="#004098" transform="matrix(0.50165 0 0 -0.50165 133.68 61.283)"/><path d="M0 0 3.464-2.474Z" fill="#004098" transform="matrix(0.50165 0 0 -0.50165 108.61 174.133)"/><path d="M0 0C-8.401-2.129-16.477-4.764-23.741-8.315L-13.119-13.774C-13.119-13.774-10.817-10.222 3.002-5.621L4.815-3.439Z" fill="#004098" transform="matrix(0.50165 0 0 -0.50165 107.252 174.468)"/><path d="M0 0 11.25-8.036 11.251-8.036 0 0" fill="#004098" transform="matrix(0.50165 0 0 -0.50165 111.743 176.37)"/><path d="M0 0-11.837 8.455-14.435 5.33C-15.1817 4.43399-15.4227 3.22032-15.075 2.107-15.025 1.949-14.963 1.794-14.89 1.642-14.46 0.755-13.76-0.345-12.652-1.562-12.616-1.602-12.588-1.639-12.551-1.679-12.26-1.993-11.974-2.279-11.694-2.54-11.0007-3.19485-10.2362-3.77009-9.415-4.255-9.267-4.34-9.115-4.413-8.96-4.475-8.903-4.498-8.843-4.511-8.785-4.531-8.686-4.564-8.587-4.6-8.487-4.624-8.419-4.641-8.349-4.647-8.281-4.659-8.188-4.675-8.096-4.694-8.003-4.703-7.929-4.709-7.855-4.706-7.782-4.708-7.692-4.71-7.603-4.716-7.514-4.711-7.421-4.706-7.328-4.69-7.235-4.677-7.17-4.669-7.104-4.665-7.04-4.652-6.942-4.633-6.846-4.602-6.749-4.574-6.692-4.557-6.633-4.546-6.576-4.526-6.458-4.485-6.344-4.433-6.23-4.378-6.197-4.363-6.163-4.352-6.13-4.335-5.984-4.259-5.842-4.173-5.706-4.076Z" fill="#004098" transform="matrix(0.50165 0 0 -0.50165 116.473 181.054)"/><path d="M0 0C-0.064-0.013-0.13-0.016-0.195-0.025-0.13-0.016-0.064-0.013 0 0" fill="#004098" transform="matrix(0.50165 0 0 -0.50165 112.941 183.388)"/><path d="M0 0C-0.101 0.024-0.199 0.06-0.298 0.094-0.199 0.06-0.101 0.024 0 0" fill="#004098" transform="matrix(0.50165 0 0 -0.50165 112.215 183.374)"/><path d="M0 0C-0.089-0.005-0.178 0.001-0.267 0.003-0.178 0.001-0.089-0.005 0 0" fill="#004098" transform="matrix(0.50165 0 0 -0.50165 112.703 183.418)"/><path d="M0 0C-0.093 0.008-0.186 0.028-0.278 0.044-0.186 0.028-0.093 0.008 0 0" fill="#004098" transform="matrix(0.50165 0 0 -0.50165 112.458 183.414)"/><path d="M0 0C-1.108 1.218-1.808 2.317-2.238 3.205-1.808 2.317-1.109 1.218 0 0" fill="#004098" transform="matrix(0.50165 0 0 -0.50165 110.126 181.838)"/><path d="M0 0C-0.033-0.017-0.067-0.028-0.1-0.044-0.067-0.028-0.033-0.017 0 0" fill="#004098" transform="matrix(0.50165 0 0 -0.50165 113.398 183.229)"/><path d="M0 0C-0.057-0.02-0.116-0.031-0.173-0.048-0.116-0.031-0.057-0.02 0 0" fill="#004098" transform="matrix(0.50165 0 0 -0.50165 113.174 183.325)"/><path d="M0 0 1.823 1.301 1.822 1.302Z" fill="#FFFFFF" transform="matrix(0.50165 0 0 -0.50165 116.473 181.054)"/><path d="M0 0 0.173-0.123 0.367 0.111 0 0" fill="#FFFFFF" transform="matrix(0.50165 0 0 -0.50165 110.448 176.75)"/><path d="M0 0 0.173 0.123-0.194 0.234Z" fill="#FFFFFF" transform="matrix(0.50165 0 0 -0.50165 124.24 176.813)"/><path d="M0 0C-0.065 0.009-0.13 0.013-0.195 0.025-0.13 0.013-0.065 0.009 0 0" fill="#004098" transform="matrix(0.50165 0 0 -0.50165 121.93 183.4)"/><path d="M0 0C-0.099-0.033-0.197-0.07-0.298-0.094-0.197-0.07-0.099-0.033 0 0" fill="#004098" transform="matrix(0.50165 0 0 -0.50165 122.708 183.327)"/><path d="M0 0C-0.093-0.016-0.185-0.036-0.278-0.044-0.185-0.036-0.093-0.016 0 0" fill="#004098" transform="matrix(0.50165 0 0 -0.50165 122.455 183.391)"/><path d="M0 0C-0.089-0.002-0.178-0.008-0.267-0.003-0.178-0.008-0.089-0.002 0 0" fill="#004098" transform="matrix(0.50165 0 0 -0.50165 122.205 183.416)"/><path d="M0 0C-0.058 0.017-0.116 0.028-0.173 0.048-0.116 0.028-0.058 0.017 0 0" fill="#004098" transform="matrix(0.50165 0 0 -0.50165 121.687 183.35)"/><path d="M0 0C-0.429-0.887-1.129-1.987-2.238-3.205-1.129-1.987-0.43-0.887 0 0" fill="#004098" transform="matrix(0.50165 0 0 -0.50165 125.77 180.23)"/><path d="M0 0C-0.100471-0.523668-0.150367-1.05578-0.149-1.589L-0.149-44.884C-0.149-49.428 3.475-53.112 7.942-53.112 12.406-53.112 16.04-49.428 16.04-44.884L16.04-6.106 16.019-6.068C16.019-2.934 18.489-0.387 21.541-0.387 24.598-0.387 27.072-2.934 27.072-6.068L27.088-6.106 27.088-44.884C27.088-49.428 30.696-53.112 35.175-53.112 39.661-53.112 43.287-49.428 43.287-44.884L43.287-6.106 43.313-6.188C43.313-2.919 45.872-0.272 49.063-0.272 52.24-0.272 54.803-2.919 54.803-6.188L54.792-6.106 54.792-44.884C54.792-49.428 58.418-53.112 62.889-53.112 67.358-53.112 70.986-49.428 70.986-44.884L70.986-6.106 70.964-6.13C70.964-2.934 73.491-0.322 76.616-0.322 79.72-0.322 82.25-2.934 82.25-6.13L82.263-6.106 82.263-44.884C82.263-49.428 85.89-53.112 90.37-53.112 94.848-53.112 98.466-49.428 98.466-44.884L98.466-1.589 98.498-1.589C98.498 7.752 91.107 15.341 81.998 15.341L57.316 15.341 57.316 22.83C57.316 27.372 53.693 31.057 49.22 31.057 44.739 31.057 41.136 27.372 41.136 22.83L41.136 15.341 16.448 15.341C7.854 15.341 0.779 8.602 0 0" fill="#004098" transform="matrix(0.50165 0 0 -0.50165 92.719 104.22)"/><path d="M0 0C4.253 8.165 3.552 17.39 3.552 17.39 0.066 12.583-10.186 6.899-11.971-0.516-13.207-5.651-10.3-6.085-10.3-6.085-10.104 1.285-3.017 5.792-3.017 5.792-3.017 5.792-9.888-2.813-8.652-6.629-8.336-7.604-7.492-7.916-6.348-7.462-5.379-6.672-4.398-5.896-3.404-5.136-2.319-3.908-1.157-2.221 0 0" fill="#004098" transform="matrix(0.50165 0 0 -0.50165 83.17 65.098)"/><path d="M0 0C2.228 11.441-1.94 22.389-1.94 22.389-4.443 15.299-14.846 4.714-14.348-4.93-14.002-11.608-10.316-11.09-10.316-11.09-12.728-2.072-5.745 5.947-5.745 5.947-5.745 5.947-10.992-6.97-8.12-11.158-7.363-12.263-6.177-12.31-4.905-11.247-4.292-10.465-3.675-9.687-3.043-8.92-1.878-6.939-0.777-3.992 0 0" fill="#004098" transform="matrix(0.50165 0 0 -0.50165 73.207 72.618)"/><path d="M0 0C-1.922 12.989-10.253 23.025-10.253 23.025-10.219 14.55-17.039-0.636-12.97-10.682-10.153-17.638-6.544-15.689-6.544-15.689-12.354-7.033-8.114 4.13-8.114 4.13-8.114 4.13-8.76-11.572-4.257-14.927-3.389-15.573-2.492-15.535-1.713-14.844-1.13284-13.5025-0.527734-12.1719 0.102-10.853 0.615-8.294 0.692-4.676 0 0" fill="#004098" transform="matrix(0.50165 0 0 -0.50165 63.925 83.7)"/><path d="M0 0C-2.298-1.374-3.264-2.532-3.617-3.427-2.37396-2.22528-1.10499-1.05067 0.189 0.096 0.128 0.061 0.061 0.036 0 0" fill="#004098" transform="matrix(0.50165 0 0 -0.50165 78.033 70.468)"/><path d="M0 0C6.832 4.779 14.83 2.966 14.83 2.966 14.83 2.966 2.656 1.669 0.799-2.061-0.467-4.606 3.783-6.585 12.872-3.975 22.796-1.125 29.754 6.571 29.754 6.571 24.33 5.848 14.856 8.45 7.575 6.968 4.94685 4.76003 2.4193 2.43502-1.90735e-07-6.48498e-08" fill="#004098" transform="matrix(0.50165 0 0 -0.50165 76.425 73.156)"/><path d="M0 0C0.306 0.53 0.605 1.064 0.919 1.589 0.502 0.996 0.201 0.466 0 0" fill="#004098" transform="matrix(0.50165 0 0 -0.50165 66.075 85.18)"/><path d="M0 0C0 0-11.7-5.007-12.404-9.281-12.885-12.196-8.058-12.863 0.175-7.494 9.163-1.631 13.725 8.142 13.725 8.142 8.592 5.782-1.516 5.465-8.297 1.839-10.2936-1.18452-12.1457-4.30102-13.847-7.5-8.52-0.643 0 0 0 0" fill="#004098" transform="matrix(0.50165 0 0 -0.50165 73.336 82.999)"/><path d="M0 0C0 0-9.674-10.761-8.357-15.506-7.459-18.743-2.16-17.123 3.764-7.646 10.233 2.7 10.265 14.963 10.265 14.963 6.499 10.544-2.259 5.901-7.794-0.107-9.07333-4.81996-10.051-9.60967-10.721-14.447-8.538-4.765 0 0 0 0" fill="#004098" transform="matrix(0.50165 0 0 -0.50165 65.606 98.606)"/><path d="M0 0C0.186 1.006 0.381 2.01 0.592 3.007 0.252 1.818 0.062 0.817 0 0" fill="#004098" transform="matrix(0.50165 0 0 -0.50165 59.17 103.903)"/><path d="M0 0C-0.082-0.029-0.164-0.048-0.246-0.079-0.246-0.079-0.769 0.774 0.19 1.745-4.93572-1.08339-9.84453-4.28819-14.496-7.843-15.587-9.078-16.595-9.834-17.44-10.169-18.6956-11.1924-19.9301-12.2413-21.143-13.315-19.88-12.592-18.469-12.109-16.962-11.802-11.6769-7.36273-5.99955-3.41251 1.06812e-07-4.57764e-08" fill="#004098" transform="matrix(0.50165 0 0 -0.50165 88.734 63.74)"/><path d="M0 0C4.21384 6.39383 9.05625 12.3504 14.455 17.781 14.408 17.748 14.36 17.722 14.313 17.689 14.313 17.689 13.534 18.424 14.043 19.714 10.847 16.6262 7.82726 13.361 4.998 9.934 4.382 8.887 3.749 8.121 3.135 7.607 0.0848903 3.71759-2.7186-0.359063-5.259-4.599-4.917-4.114-4.505-3.59-3.984-3.013-2.89-1.798-1.528-0.817 0 0" fill="#004098" transform="matrix(0.50165 0 0 -0.50165 69.174 82.076)"/><path d="M0 0C2.22493 8.23032 5.36309 16.1861 9.356 23.719 9.326 23.68 9.293 23.647 9.263 23.607 9.263 23.607 7.658 24.383 8.728 26.87 7.2338 24.2898 5.83845 21.6535 4.545 18.967 4.151 17.001 3.501 15.661 2.729 14.977-0.408992 7.76332-2.81181 0.251676-4.443-7.444-4.398-7.286-4.365-7.143-4.314-6.977-3.532-4.444-1.968-2.136 0 0" fill="#004098" transform="matrix(0.50165 0 0 -0.50165 61.696 98.66)"/><path d="M0 0-0.001 0.005C-10.1545 2.3637-19.9377 6.09963-29.079 11.109-35.452 21.546-31.627 32.717-31.627 32.717-31.627 32.717-31.319 15.312-26.01 12.123-22.388 9.948-18.874 15.656-21.55 28.898-24.471 43.357-35.007 54.358-35.007 54.358-34.576 44.894-42.302 27.689-36.742 16.647-36.476 16.118-36.212 15.633-35.953 15.189-43.6527 20.1314-50.7386 25.9703-57.062 32.583-59.575 43.544-52.754 52.367-52.754 52.367-52.754 52.367-57.783 36.905-54.011 32.638-51.438 29.727-46.558 33.811-44.913 46.241-43.118 59.814-49.18 72.411-49.18 72.411-51.679 63.931-63.825 50.839-62.222 39.566-62.144 39.016-62.055 38.509-61.956 38.039-67.634 44.7805-72.5197 52.1514-76.517 60.007-76.428 60.017-76.374 60.03-76.374 60.03-76.879 70.06-69.816 77.003-69.816 77.003-69.816 77.003-76.342 63.966-73.795 59.707-72.058 56.802-66.342 58.617-63.117 69.406-59.595 81.185-63.839 94.281-63.839 94.281-67.2 87.098-79.37 77.069-79.688 66.888L-79.688 66.802C-82.9097 74.3242-85.3135 82.171-86.858 90.207-86.8403 90.2075-86.8226 90.2085-86.805 90.21-85.944 100.401-77.868 106.443-77.868 106.443-77.868 106.443-86.235 94.178-84.247 89.532-82.891 86.363-77.724 88.735-72.995 99.182-67.832 110.587-69.475 123.061-69.475 123.061-73.415 116.943-84.886 109.47-88.37 100.567-88.749 104.384-88.9389 108.218-88.939 112.054-88.939 117.449-88.56 122.756-87.843 127.956-87.849 127.932-87.857 127.909-87.862 127.884-87.862 127.884-90.247 127.922-89.951 131.845-90.257 130.191-90.541 128.529-90.777 126.851-90.941 129.587-91.879 133.301-93.964 137.895-99.626 150.371-111.077 158.016-111.077 158.016-108.644 149.52-111.396 132.293-104.347 123.397-99.466 117.236-96.288 120.243-96.288 120.243-104.743 127.238-103.519 139.676-103.519 139.676-103.519 139.676-99.743 123.729-94.139 121.674-92.868 121.208-91.826 121.71-91.243 123.054-91.7187 118.651-91.9487 114.225-91.932 109.796-91.915 105.522-91.666 101.305-91.208 97.152-92.219 99.007-93.591 101.076-95.416 103.339-104.017 114.004-117.016 118.544-117.016 118.544-112.536 110.926-110.894 93.558-101.845 86.706-95.579 81.961-93.254 85.667-93.254 85.667-103.189 90.326-105.113 102.675-105.113 102.675-105.113 102.675-97.47 88.178-91.531 87.59-90.839 87.521-90.268 87.685-89.844 88.053-88.6715 81.8748-87.0041 75.8009-84.858 69.89-86.48 71.36-88.554 72.92-91.151 74.511-103.023 81.785-117.016 81.696-117.016 81.696-110.128 75.932-102.63 59.867-91.63 56.395-84.013 53.992-83.051 58.333-83.051 58.333-94.151 59.402-100.207 70.567-100.207 70.567-100.207 70.567-87.945 59.298-82.058 60.761-81.748 60.838-81.493 60.964-81.264 61.111-78.6893 55.4943-75.6767 50.089-72.254 44.945-74.65 46.175-77.889 47.329-82.025 48.225-96.427 51.344-110.375 46.367-110.375 46.367-101.48 43.015-88.377 29.584-76.174 29.959-67.724 30.218-68.281 34.891-68.281 34.891-79.743 32.082-89.694 41.121-89.694 41.121-89.694 41.121-73.506 34.146-68.137 37.664-67.86 37.846-67.652 38.055-67.476 38.276-63.6713 33.3422-59.4833 28.7161-54.951 24.441-56.7817 24.6322-58.6213 24.7263-60.462 24.723-75.692 24.717-88.688 16.633-88.688 16.633-78.97 15.197-62.792 4.504-50.55 7.557-42.073 9.67-43.659 14.268-43.659 14.268-54.62 8.919-66.651 15.867-66.651 15.867-66.651 15.867-51.167 12.841-45.272 16.237-39.5274 11.8678-33.3936 8.03534-26.948 4.788-28.5553 4.51473-30.1495 4.16972-31.726 3.754-46.747-0.168-57.486-11.483-57.486-11.483-47.532-10.4-28.826-16.787-17.536-10.628-9.718-6.364-12.465-2.237-12.465-2.237-21.901-10.331-35.553-6.572-35.553-6.572-35.553-6.572-19.276-5.563-14.456-0.611-9.31879-2.48346-4.05697-3.99447 1.291-5.133L-0.012 0.002 0 0" fill="#004098" transform="matrix(0.50165 0 0 -0.50165 104.294 170.044)"/><path d="M0 0C-0.993374-0.759971-1.97483-1.5354-2.944-2.326-2.099-1.991-1.091-1.235 0 0" fill="#004098" transform="matrix(0.50165 0 0 -0.50165 81.462 67.674)"/><path d="M0 0C-0.630337-0.767879-1.25105-1.54361-1.862-2.327-1.248-1.814-0.616-1.048 0 0" fill="#004098" transform="matrix(0.50165 0 0 -0.50165 71.68 77.093)"/><path d="M0 0C-0.630065-1.31894-1.2355-2.6495-1.816-3.991-1.044-3.307-0.394-1.967 0 0" fill="#004098" transform="matrix(0.50165 0 0 -0.50165 63.976 89.145)"/><path d="M0 0C0.047 0.033 0.095 0.059 0.142 0.092 2.56106 2.52726 5.08862 4.85229 7.717 7.06 6.21 6.754 4.799 6.27 3.536 5.547 2.24178 4.40092 0.972812 3.22663-0.27 2.025-0.779 0.735 0 0 0 0" fill="#004098" transform="matrix(0.50165 0 0 -0.50165 76.354 73.203)"/><path d="M0 0C0.03 0.04 0.063 0.073 0.094 0.112 1.79534 3.31098 3.64742 6.42748 5.644 9.451 4.116 8.634 2.754 7.653 1.659 6.438 1.20264 5.9356 0.777188 5.40596 0.385 4.852 0.071 4.327-0.228 3.793-0.534 3.263-1.604 0.776 0 0 0 0" fill="#004098" transform="matrix(0.50165 0 0 -0.50165 66.343 86.817)"/><path d="M0 0C0.005 0.025 0.014 0.047 0.019 0.072 0.689022 4.90933 1.66667 9.69904 2.946 14.412 0.979 12.276-0.585 9.969-1.367 7.435-1.419 7.269-1.452 7.126-1.497 6.968-1.708 5.971-1.903 4.967-2.089 3.961-2.385 0.038 0 0 0 0" fill="#004098" transform="matrix(0.50165 0 0 -0.50165 60.218 105.89)"/><path d="M0 0 0.002-0.01 0.015-0.012 0.012-0.003 0 0" fill="#004098" transform="matrix(0.50165 0 0 -0.50165 104.942 172.619)"/><path d="M0 0-0.019 0.075Z" fill="#004098" transform="matrix(0.50165 0 0 -0.50165 105.454 170.293)"/><path d="M0 0-1.238 4.877C-1.2419 4.87815-1.24593 4.87882-1.25 4.879L0.053-0.256 0.066-0.259Z" fill="#004098" transform="matrix(0.50165 0 0 -0.50165 104.915 172.49)"/><path d="M0 0 0.557-2.193Z" fill="#004098" transform="matrix(0.50165 0 0 -0.50165 105.454 170.293)"/><path d="M0 0C-2.596-1.591-4.669-3.15-6.291-4.619-4.14413 1.29013-2.47609 7.36238-1.303 13.539-0.879 13.173-0.31 13.01 0.38 13.078 6.319 13.667 13.962 28.164 13.962 28.164 13.962 28.164 12.038 15.815 2.103 11.156 2.103 11.156 4.428 7.45 10.694 12.194 19.743 19.047 21.385 36.415 25.865 44.033 25.865 44.033 12.866 39.493 4.265 28.828 2.443 26.568 1.073 24.502 0.062 22.649 1.01188 31.2537 1.02194 39.9362 0.092 48.543 0.675 47.198 1.717 46.697 2.988 47.163 8.592 49.218 12.368 65.165 12.368 65.165 12.368 65.165 13.592 52.727 5.137 45.732 5.137 45.732 8.315 42.725 13.196 48.885 20.245 57.782 17.493 75.009 19.926 83.505 19.926 83.505 8.475 75.86 2.813 63.383 0.728 58.789-0.21 55.074-0.374 52.338-0.61 54.018-0.893 55.683-1.2 57.34-1.263 58.168-1.457 59.183-1.806 60.393-3.43836 68.0733-5.8398 75.5698-8.974 82.769-8.193 82.07-7.292 82.03-6.421 82.679-1.918 86.034-2.564 101.736-2.564 101.736-2.564 101.736 1.677 90.573-4.133 81.917-4.133 81.917-0.525 79.968 2.293 86.924 6.362 96.97-0.458 112.156-0.425 120.631-0.425 120.631-8.756 110.595-10.677 97.606-11.373 92.905-11.291 89.276-10.771 86.714-12.0635 89.4012-13.4575 92.0385-14.95 94.62-15.167 95.133-15.51 95.725-15.994 96.394-18.5156 100.592-21.2953 104.629-24.317 108.483-23.03 107.384-21.827 107.423-21.061 108.54-18.19 112.728-23.436 125.645-23.436 125.645-23.436 125.645-16.454 117.626-18.865 108.608-18.865 108.608-15.179 108.09-14.834 114.768-14.335 124.412-24.738 134.997-27.241 142.087-27.241 142.087-31.409 131.14-29.181 119.698-28.383 115.596-27.242 112.605-26.042 110.625-28.8956 114.096-31.9439 117.402-35.172 120.528-35.515 121.426-36.478 122.595-38.801 123.984-38.881 124.032-38.97 124.065-39.051 124.111-40.2487 125.176-41.468 126.217-42.708 127.232-41.556 126.77-40.706 127.08-40.389 128.059-39.153 131.875-46.024 140.48-46.024 140.48-46.024 140.48-38.937 135.973-38.741 128.603-38.741 128.603-35.834 129.038-37.07 134.172-38.854 141.588-49.107 147.271-52.593 152.079-52.593 152.079-53.294 142.853-49.041 134.688-47.878 132.455-46.709 130.76-45.618 129.53-50.276 133.096-55.1929 136.309-60.328 139.145-60.656 139.474-61.148 139.816-61.899 140.144-60.567 139.9-59.779 140.403-59.749 141.436-59.639 145.131-67.937 150.974-67.937 150.974-67.937 150.974-60.505 148.813-58.431 142.342-58.431 142.342-55.97 143.476-58.388 147.701-61.879 153.802-72.416 156.188-76.739 159.543-76.739 159.543-74.982 151.2-69.113 145.071-67.657 143.551-66.313 142.428-65.118 141.628-67.013 142.465-71.946 144.591-71.946 144.012-71.946 143.645-69.148 142.148-66.939 141.012-72.691 140.688-79.282 136.781-83.498 136.216-83.498 136.216-76.756 131.896-68.789 131.786-61.492 131.686-58.729 134.021-60.188 135.659-62.326 138.06-71.654 136.557-71.654 136.557-71.654 136.557-66.141 139.484-60.133 137.395-54.1458 133.983-48.48 130.035-43.205 125.601-50.481 127.067-59.934 124.474-65.35 125.196-65.35 125.196-58.391 117.499-48.468 114.65-39.379 112.04-35.128 114.018-36.395 116.563-38.251 120.294-50.426 121.59-50.426 121.59-50.426 121.59-42.462 123.394-35.639 118.652-30.2318 113.218-25.3819 107.256-21.162 100.856-27.943 104.47-38.036 104.789-43.163 107.146-43.163 107.146-38.601 97.374-29.613 91.511-21.38 86.141-16.553 86.808-17.034 89.723-17.738 93.997-29.438 99.004-29.438 99.004-29.438 99.004-20.976 98.363-15.646 91.57-11.6251 84.0159-8.46497 76.0342-6.225 67.775-11.759 73.788-20.525 78.433-24.293 82.855-24.293 82.855-24.261 70.593-17.793 60.246-11.869 50.769-6.57 49.149-5.672 52.386-4.355 57.131-14.029 67.892-14.029 67.892-14.029 67.892-5.459 63.112-3.295 53.396-2.57297 48.1425-2.21112 42.8458-2.212 37.543-2.212 33.669-2.411 29.841-2.785 26.066-6.274 34.964-17.737 42.435-21.676 48.55-21.676 48.55-23.319 36.076-18.156 24.67-13.427 14.224-8.26 11.852-6.904 15.021-4.916 19.667-13.283 31.932-13.283 31.932-13.283 31.932-5.207 25.89-4.346 15.699L-4.293 15.696C-5.83733 7.66154-8.24115-0.183552-11.463-7.704L-11.463-7.623C-11.781 2.557-23.951 12.587-27.312 19.77-27.312 19.77-31.556 6.674-28.034-5.105-24.809-15.894-19.092-17.709-17.356-14.804-14.809-10.545-21.334 2.492-21.334 2.492-21.334 2.492-14.272-4.451-14.777-14.481-14.777-14.481-14.726-14.493-14.645-14.503-18.6387-22.3584-23.5206-29.7297-29.195-36.472-29.096-36.002-29.007-35.495-28.929-34.945-27.326-23.672-39.472-10.58-41.971-2.101-41.971-2.101-48.033-14.697-46.238-28.27-44.593-40.7-39.713-44.784-37.14-41.873-33.368-37.606-38.397-22.144-38.397-22.144-38.397-22.144-31.576-30.968-34.089-41.928-40.413-48.5444-47.5007-54.386-55.203-59.33-54.942-58.884-54.677-58.397-54.409-57.864-48.849-46.823-56.575-29.617-56.144-20.153-56.144-20.153-66.68-31.154-69.601-45.613-72.277-58.855-68.763-64.563-65.141-62.388-59.832-59.199-59.524-41.794-59.524-41.794-59.524-41.794-55.696-52.973-62.079-63.414-71.2183-68.42-80.9992-72.1525-91.15-74.508L-91.151-74.511-91.139-74.509-92.442-79.646C-87.093-78.5083-81.8301-76.9976-76.692-75.125-71.868-80.075-55.598-81.083-55.598-81.083-55.598-81.083-69.25-84.843-78.686-76.748-78.686-76.748-81.433-80.875-73.615-85.139-62.325-91.298-43.619-84.911-33.665-85.994-33.665-85.994-44.404-74.679-59.425-70.757-61.0026-70.3414-62.5978-69.9961-64.206-69.722-57.7561-66.4778-51.6179-62.6477-45.869-58.28-39.967-61.667-24.5-58.644-24.5-58.644-24.5-58.644-36.531-65.592-47.492-60.243-47.492-60.243-49.078-64.841-40.601-66.954-28.359-70.007-12.181-59.314-2.463-57.878-2.463-57.878-15.459-49.794-30.689-49.789-32.5213-49.785-34.3525-49.8778-36.175-50.067-31.6515-45.791-27.4722-41.165-23.676-36.232-23.4908-36.4721-23.2671-36.6799-23.014-36.847-17.645-40.365-1.457-33.39-1.457-33.39-1.457-33.39-11.407-42.429-22.87-39.62-22.87-39.62-23.426-44.293-14.977-44.552-10.071-44.703-5.02-42.62-0.155-39.86L-0.155-39.853-0.155-39.86C7.081-35.755 13.905-30.149 19.224-28.144 19.224-28.144 5.276-23.167-9.126-26.286-13.266-27.183-16.507-28.338-18.904-29.57-15.4802-24.4239-12.4669-19.0161-9.892-13.397-9.662-13.545-9.405-13.672-9.093-13.75-3.206-15.213 9.056-3.944 9.056-3.944 9.056-3.944 3-15.109-8.1-16.178-8.1-16.178-7.138-20.52 0.479-18.116 11.479-14.644 18.977 1.421 25.865 7.185 25.865 7.185 11.872 7.274 3.55271e-15 -8.88178e-16" fill="#004098" transform="matrix(0.50165 0 0 -0.50165 176.206 132.665)"/><path d="M0 0 0.02 0.077Z" fill="#004098" transform="matrix(0.50165 0 0 -0.50165 129.32 170.294)"/><path d="M0 0 0.012 0.002 0.014 0.01 0.002 0.007Z" fill="#004098" transform="matrix(0.50165 0 0 -0.50165 129.825 172.625)"/><path d="M0 0-1.238-4.877-1.304-5.138-1.292-5.135 0.012 0.002 0 0" fill="#004098" transform="matrix(0.50165 0 0 -0.50165 130.48 170.044)"/><path d="M0 0 0.001 0.003-0.088-0.016 0 0" fill="#FFFFFF" transform="matrix(0.50165 0 0 -0.50165 130.48 170.044)"/><path d="M0 0 0.123 0.019 0.125 0.026 0 0" fill="#FFFFFF" transform="matrix(0.50165 0 0 -0.50165 129.763 172.634)"/><path d="M0 0C0.068-0.228 0.121-0.462 0.112-0.707 0.0932606-1.28279-0.15609-1.82689-0.58-2.217-1.00018-2.60977-1.56032-2.81761-2.135-2.794-2.71027-2.77551-3.25385-2.52607-3.643-2.102-4.45532-1.22205-4.40439 0.148766-3.529 0.966-3.10694 1.3557-2.54811 1.56306-1.974 1.543-1.73504 1.5274-1.50041 1.47162-1.28 1.378L12.02 13.739-6.579 10.457-12.785 2.988-6.699-4.336-6.31-4.804-3.448-8.248-2.964-8.831-2.791-9.039-0.131-12.239 3.332-9.765 3.979-9.304 6.395-7.578 6.439-7.546 6.657-7.391 8.646-5.97 9.068-4.305 9.625-2.113 9.644-2.036 13.297 12.358Z" fill="#004098" transform="matrix(0.50165 0 0 -0.50165 124.492 169.234)"/><path d="M0 0-0.153 0.033-0.151 0.028 0 0" fill="#FFFFFF" transform="matrix(0.50165 0 0 -0.50165 104.37 170.058)"/><path d="M0 0 0.002-0.009 0.156-0.033 0 0" fill="#FFFFFF" transform="matrix(0.50165 0 0 -0.50165 104.948 172.62)"/><path d="M0 0C-0.714 0.131-1.434 0.261-2.141 0.394-1.424 0.229-0.703 0.077 0.019-0.075Z" fill="#FFFFFF" transform="matrix(0.50165 0 0 -0.50165 105.444 170.255)"/><path d="M0 0-0.012 0.002-0.012-0.002 0 0" fill="#004098" transform="matrix(0.50165 0 0 -0.50165 117.387 172.331)"/><path d="M0 0-0.012-0.002 0-0.004Z" fill="#004098" transform="matrix(0.50165 0 0 -0.50165 117.393 172.33)"/><path d="M0 0 18.598-3.282Z" fill="#004098" transform="matrix(0.50165 0 0 -0.50165 104.253 162.342)"/><path d="M0 0-0.012 0.002-0.023 0-0.023 0.004-0.012 0.002 0 0.004ZM16.246-12.056 13.648-8.931 13.454-8.697 12.291-7.297 8.983-3.316 8.609-2.867 7.388-1.397 5.43 0.959 4.82 1.694-0.012 7.508-1.389 9.165-7.595 16.634-26.193 19.916-12.894 7.555C-12.673 7.641-12.444 7.71-12.2 7.72-11.6259 7.74006-11.0671 7.5327-10.645 7.143-9.76961 6.32577-9.71868 4.95495-10.531 4.075-10.9202 3.65092-11.4637 3.40149-12.039 3.383-12.6137 3.35939-13.1738 3.56723-13.594 3.96-14.0181 4.34997-14.2675 4.89416-14.286 5.47-14.295 5.715-14.242 5.949-14.174 6.177L-27.471 18.535-23.818 4.141-23.799 4.065-23.242 1.872-22.82 0.207-20.831-1.214-20.571-1.399-18.153-3.127-17.506-3.588-14.043-6.062-12.314-7.297-11.262-8.049-0.012-16.084-0.011-16.085-0.012-16.085 1.811-17.387 7.516-21.462C7.653-21.56 7.795-21.646 7.941-21.721 7.973-21.737 8.006-21.748 8.037-21.763 8.152-21.818 8.268-21.871 8.387-21.913 8.444-21.933 8.503-21.944 8.56-21.961 8.657-21.989 8.753-22.019 8.851-22.038 8.915-22.051 8.981-22.055 9.046-22.064 9.139-22.077 9.232-22.092 9.326-22.097 9.414-22.102 9.504-22.096 9.593-22.094 9.666-22.092 9.74-22.096 9.814-22.089 9.907-22.081 9.999-22.061 10.092-22.045 10.161-22.033 10.23-22.027 10.298-22.011 10.398-21.987 10.497-21.951 10.596-21.917 10.654-21.898 10.714-21.884 10.771-21.861 10.926-21.799 11.078-21.726 11.226-21.641 11.698-21.367 12.23-21.002 12.799-20.537 13.296-20.131 13.819-19.652 14.362-19.065 14.399-19.025 14.427-18.988 14.463-18.949 15.571-17.731 16.271-16.632 16.701-15.744 17.2887-14.5323 17.1105-13.0885 16.246-12.056" fill="#004098" transform="matrix(0.50165 0 0 -0.50165 117.393 172.333)"/><path d="M0 0C-92.807 0-168.31 75.503-168.31 168.31-168.31 261.117-92.807 336.62 0 336.62 92.807 336.62 168.31 261.117 168.31 168.31 168.31 75.503 92.807 0 0 0M0 339.774C-94.545 339.774-171.464 262.855-171.464 168.31-171.464 73.764-94.545-3.154 0-3.154 94.545-3.154 171.464 73.764 171.464 168.31 171.464 262.855 94.545 339.774 0 339.774" fill="#004098" transform="matrix(0.50165 0 0 -0.50165 117.387 201.82)"/><path d="M0 0C-2.683 0.97-5.728 0.964-8.497-0.171L-5.197-6.839C-2.449-5.854 0.403-6.881 1.876-9.858 3.85-13.851 1.503-18.108-3.433-20.549-8.33-22.971-13.01-22.707-15.171-18.337-16.588-15.474-15.674-12.677-13.431-11.146L-16.728-4.477C-19.574-6.308-21.54-8.968-22.156-12.18-22.675-14.828-22.274-17.913-20.728-21.039-16.759-29.063-8.102-31.299-0.078-27.33 7.984-23.342 11.234-15.029 7.32-7.118 5.438-3.313 3.022-1.085 0 0" fill="#004098" transform="matrix(0.50165 0 0 -0.50165 30.49 154.398)"/><path d="M0 0-11.991-3.633-15.051 6.467-3.06 10.1-5.217 17.222-33.988 8.507-31.832 1.385-20.927 4.688-17.868-5.412-28.772-8.716-26.615-15.838 2.156-7.123Z" fill="#004098" transform="matrix(0.50165 0 0 -0.50165 29.225 146.907)"/><path d="M0 0C-1.09 8.297-5.801 11.877-12.681 10.974L-31.985 8.438-31.014 1.058-11.585 3.61C-8.668 3.993-6.368 2.641-5.921-0.777-5.443-4.404-7.206-6.163-10.125-6.546L-29.678-9.114-28.709-16.494-9.406-13.959C-2.443-13.044 1.096-8.338 0 0" fill="#004098" transform="matrix(0.50165 0 0 -0.50165 25.539 129.546)"/><path d="M0 0-13.996 0.539C-15.046 0.58-18.916 0.645-18.916 0.645L-18.913 0.729C-18.913 0.729-15.613 2.243-14.796 2.717L0.423 10.969 0.712 18.45-29.339 19.609-29.619 12.337-15.371 11.789C-14.321 11.748-10.702 11.693-10.702 11.693L-10.706 11.609C-10.706 11.609-13.753 10.127-14.61 9.697L-30.042 1.368-30.33-6.113-0.28-7.271Z" fill="#004098" transform="matrix(0.50165 0 0 -0.50165 24.426 116.872)"/><path d="M0 0C4.488-0.928 8.648-0.329 11.974 1.645 15.112 3.529 17.302 6.64 18.169 10.84 18.903 14.381 18.305 17.509 15.699 20.066L15.716 20.149 19.341 19.828 20.398 24.934 4.587 28.203 2.049 15.934 7.403 14.826 8.543 20.344 8.625 20.327C11.161 19.502 13.244 16.71 12.452 12.881 11.499 8.269 6.927 6.296 1.532 7.411-3.82 8.517-7.353 11.781-6.347 16.64-5.683 19.851-3.462 21.453-0.965 21.495L0.5 28.576C-5.872 28.906-10.843 25.212-12.409 17.635-13.287 13.395-12.553 9.68-10.585 6.74-8.363 3.361-4.61 0.954 0 0" fill="#004098" transform="matrix(0.50165 0 0 -0.50165 17.588 104.15)"/><path d="M0 0-13.017 5.17C-13.994 5.559-17.621 6.909-17.621 6.909L-17.591 6.988C-17.591 6.988-13.975 7.317-13.047 7.491L4.052 10.203 6.815 17.16-21.132 28.262-23.818 21.5-10.568 16.237C-9.591 15.848-6.197 14.591-6.197 14.591L-6.229 14.513C-6.229 14.513-9.594 14.129-10.547 14.011L-27.872 11.297-30.636 4.34-2.686-6.762Z" fill="#004098" transform="matrix(0.50165 0 0 -0.50165 29.979 85.689)"/><path d="M0 0C-1.07 1.237-3.004 3.241-3.004 3.241L-2.959 3.313C-2.959 3.313-0.31 2.496 1.282 2.123L8.681 0.301 5.025-5.742ZM12.45-14.262 8.702-9.98 14.142-0.987 19.695-2.283 23.743 4.407-7.591 10.683-11.551 4.137 8.579-20.665Z" fill="#004098" transform="matrix(0.50165 0 0 -0.50165 29.699 65.335)"/><path d="M0 0-11.295 10.016C-12.206 10.824-15.907 13.939-15.907 13.939L-15.852 14.002C-15.852 14.002-11.757 11.774-10.715 11.301L3.738 4.215 7.811 8.808-0.955 22.371C-1.551 23.348-4.219 27.12-4.219 27.12L-4.162 27.183C-4.162 27.183-0.66 23.907 0.253 23.099L11.577 13.056 16.096 18.151-6.396 38.099-13.092 30.549-5.701 19.049C-4.619 17.415-1.687 13.242-1.687 13.242L-1.745 13.179C-1.745 13.179-6.236 15.591-8.015 16.437L-20.289 22.432-26.929 14.945-4.437-5.002Z" fill="#004098" transform="matrix(0.50165 0 0 -0.50165 44.924 59.064)"/><path d="M0 0-6.814 12.228C-7.326 13.146-9.282 16.484-9.282 16.484L-9.208 16.525C-9.208 16.525-6.201 14.496-5.371 14.043L9.586 5.341 16.122 8.985 1.489 35.241-4.864 31.701 2.074 19.252C2.585 18.334 4.419 15.217 4.419 15.217L4.346 15.175C4.346 15.175 1.497 17.005 0.683 17.514L-14.449 26.359-20.985 22.716-6.353-3.54Z" fill="#004098" transform="matrix(0.50165 0 0 -0.50165 69.783 37.534)"/><path d="M0 0C-0.042 1.635-0.261 4.412-0.261 4.412L-0.182 4.44C-0.182 4.44 1.347 2.125 2.341 0.826L6.902-5.283 0.237-7.631ZM0.386-13.242 10.304-9.747 13.773-14.277 21.152-11.677 0.921 13.079-6.298 10.535-6.497-21.421 0.564-18.932Z" fill="#004098" transform="matrix(0.50165 0 0 -0.50165 82.82 21.434)"/><path d="M0 0 4.717-23.28 12.009-21.803 7.294 1.477 15.946 3.229 14.694 9.41-9.821 4.444-8.569-1.736Z" fill="#004098" transform="matrix(0.50165 0 0 -0.50165 94.66 15.013)"/><path d="M0 0-2.806 29.931-10.217 29.236-7.409-0.695Z" fill="#004098" transform="matrix(0.50165 0 0 -0.50165 110.437 24.713)"/><path d="M0 0C0.211 5.464 2.852 9.57 7.687 9.384 12.561 9.196 14.796 4.901 14.585-0.563 14.374-6.026 11.818-10.095 6.943-9.907 2.109-9.72-0.209-5.465 0 0M6.667-15.957C15.788-16.309 21.804-9.849 22.149-0.854 22.496 8.14 16.997 15.045 7.875 15.395-1.201 15.746-7.217 9.285-7.564 0.291-7.911-8.702-2.41-15.607 6.667-15.957" fill="#004098" transform="matrix(0.50165 0 0 -0.50165 116.963 16.875)"/><path d="M0 0C0.216 1.029 0.921 4.834 0.921 4.834L1.003 4.817C1.003 4.817 1.949 1.313 2.28 0.427L7.892-15.947 15.221-17.473 21.35 11.965 14.227 13.447 11.321-0.51C11.105-1.539 10.452-5.097 10.452-5.097L10.368-5.08C10.368-5.08 9.413-1.83 9.131-0.913L3.481 15.685-3.847 17.211-9.977-12.226-2.854-13.71Z" fill="#004098" transform="matrix(0.50165 0 0 -0.50165 135.114 18.983)"/><path d="M0 0C1.04 1.263 2.691 3.504 2.691 3.504L2.769 3.474C2.769 3.474 2.41 0.723 2.308-0.909L1.755-8.509-4.818-5.92ZM-11.97-14.672-8.379-10.256 1.401-14.109 1.056-19.803 8.334-22.669 9.259 9.278 2.138 12.082-18.933-11.928Z" fill="#004098" transform="matrix(0.50165 0 0 -0.50165 154.1 22.236)"/><path d="M0 0-11.616 6.864 0.466 27.309-5.94 31.094-21.229 5.221-3.209-5.428Z" fill="#004098" transform="matrix(0.50165 0 0 -0.50165 171.009 37.46)"/><path d="M0 0 13.961 13.569 8.774 18.906-5.279 5.25C-7.39 3.198-10.04 2.909-12.443 5.382-14.992 8.005-14.63 10.468-12.519 12.52L1.622 26.264-3.565 31.601-17.527 18.032C-22.562 13.138-22.587 7.251-16.725 1.22-10.893-4.781-4.976-4.835 0 0" fill="#004098" transform="matrix(0.50165 0 0 -0.50165 192.202 53.433)"/><path d="M0 0 11.525 7.958C12.39 8.555 15.527 10.823 15.527 10.823L15.574 10.754C15.574 10.754 13.843 7.564 13.47 6.694L6.237-9.034 10.491-15.194 35.239 1.892 31.104 7.88 19.37-0.222C18.505-0.818 15.577-2.943 15.577-2.943L15.528-2.874C15.528-2.874 17.078 0.138 17.507 0.996L24.867 16.913 20.613 23.074-4.135 5.988Z" fill="#004098" transform="matrix(0.50165 0 0 -0.50165 192.305 62.356)"/><path d="M0 0 26.637 13.915 23.192 20.508-3.445 6.594Z" fill="#004098" transform="matrix(0.50165 0 0 -0.50165 200.656 76.09)"/><path d="M0 0 31.609 1.62 28.896 8.642 12.504 7.311C10.197 7.096 7.061 6.696 7.061 6.696L7.031 6.775C7.031 6.775 9.597 8.533 11.472 9.979L24.485 20.057 21.696 27.274-2.775 7.179Z" fill="#004098" transform="matrix(0.50165 0 0 -0.50165 204.783 85.724)"/><path d="M0 0 6.153 1.384 2.731 16.602 9.008 18.013 11.894 5.174 17.555 6.447 14.667 19.286 19.918 20.467 23.286 5.495 29.273 6.842 24.274 29.074-5.054 22.478Z" fill="#004098" transform="matrix(0.50165 0 0 -0.50165 209.341 102.73)"/><path d="M0 0 0.371-5.747C0.554-8.6-0.906-10.125-3.088-10.266-5.354-10.411-6.834-8.991-7.024-6.055L-7.383-0.474ZM-24.121-1.552-12.878-0.828-12.589-5.316C-12.385-8.505-13.803-10.028-16.547-10.584-19.497-11.237-23.027-11.339-23.438-12.165L-22.974-19.381-22.596-19.356C-22.286-18.283-18.483-18.46-14.58-17.577-11.63-16.966-10.079-15.518-9.366-12.861L-9.24-12.852C-7.799-16.256-5.129-17.812-1.648-17.588 3.931-17.228 6.702-12.5 6.319-6.544L5.396 7.803-24.599 5.874Z" fill="#004098" transform="matrix(0.50165 0 0 -0.50165 222.059 108.253)"/><path d="M0 0C-6.278 0.588-8.382-4.747-10.083-9.823-11.471-13.832-12.201-16.212-14.587-15.989-16.847-15.777-17.503-13.309-17.276-10.881-16.942-7.323-15.502-5.473-12.457-5.42L-11.759 2.031C-18.389 2.483-22.395-2.421-23.14-10.374-23.787-17.281-20.814-22.964-14.536-23.552-8.131-24.152-5.945-19.29-4.125-13.844-2.7-9.459-1.983-7.204 0.109-7.4 1.784-7.557 2.753-9.379 2.511-11.974 2.251-14.737 0.79-16.373-1.54-16.45L-2.219-23.693C4.088-23.987 7.489-19.239 8.096-12.75 8.724-6.053 6.405-0.6 0 0" fill="#004098" transform="matrix(0.50165 0 0 -0.50165 221.12 121.116)"/><path d="M0 0 29.37-6.399 30.953 0.872 1.585 7.271Z" fill="#004098" transform="matrix(0.50165 0 0 -0.50165 207.767 139.078)"/><path d="M0 0-22.543 7.481-24.886 0.419-2.344-7.062-5.124-15.441 0.861-17.427 8.74 6.314 2.755 8.299Z" fill="#004098" transform="matrix(0.50165 0 0 -0.50165 217.484 148.651)"/><path d="M0 0-3.274-6.679 6.688-11.564 19.231-29.04 22.691-21.983 17.393-15.126C15.988-13.314 14.187-11.261 14.187-11.261L14.224-11.185C14.224-11.185 16.912-11.427 19.207-11.428L27.889-11.379 31.461-4.095 9.964-4.884Z" fill="#004098" transform="matrix(0.50165 0 0 -0.50165 201.674 156.578)"/><path d="M0 0C-127.288 0-230.846 103.557-230.846 230.845-230.846 358.134-127.288 461.691 0 461.691 127.288 461.691 230.846 358.134 230.846 230.845 230.846 103.557 127.288 0 0 0M0 464.846C-129.028 464.846-234 359.873-234 230.845-234 101.817-129.028-3.154 0-3.154 129.028-3.154 234 101.817 234 230.845 234 359.873 129.028 464.846 0 464.846" fill="#004098" transform="matrix(0.50165 0 0 -0.50165 117.387 233.192)"/></g></svg>