<svg width="300" height="279.52" viewBox="0 0 79.375 73.9563" xmlns="http://www.w3.org/2000/svg" xmlns:xlink="http://www.w3.org/1999/xlink" id="svg5" overflow="hidden"><defs id="defs2"/><g id="layer1" transform="translate(-43.2596 -58.1484)"><path d="M54.2832 66.2035C56.232 66.2035 57.7791 66.6483 58.5067 67.0176L57.9578 68.8808C57.0569 68.4344 55.9329 68.1192 54.2307 68.1192 50.1305 68.1192 47.4567 70.7982 47.4567 75.2337 47.4567 79.7236 50.0044 82.3726 53.9548 82.3726 55.3786 82.3726 56.3557 82.1609 56.8574 81.9036L56.8574 76.6257 53.4559 76.6257 53.4559 74.7854 59.0085 74.7854 59.0085 83.2921C58.0289 83.686 56.0823 84.2639 53.8051 84.2639 51.2574 84.2639 49.1563 83.5863 47.5042 81.9244 46.0518 80.4588 45.1533 78.095 45.1533 75.3422 45.1533 70.063 48.6281 66.2035 54.2832 66.2035M43.2596 132.104 60.9472 132.104 60.9472 58.1485 43.2596 58.1485Z" id="path842" stroke-width="0.314575" fill="#DF2824"/><path d="M72.0022 85.4702 74.303 85.4702 74.303 103.165 72.0022 103.165ZM63.823 132.104 81.5077 132.104 81.5077 58.1484 63.823 58.1484Z" id="path844" stroke-width="0.314575" fill="#505C5B"/><path d="M93.4325 116.918C90.5589 115.865 88.7809 114.343 88.7809 111.875 88.7809 109.12 91.053 107.073 94.4775 107.073 96.2612 107.073 97.5902 107.491 98.3496 107.938L97.7217 109.803C97.1753 109.463 95.9957 108.964 94.3989 108.964 91.9983 108.964 91.0792 110.409 91.0792 111.615 91.0792 113.27 92.1534 114.081 94.5854 115.026 97.5641 116.206 99.053 117.627 99.053 120.225 99.053 122.957 97.0677 125.344 92.9125 125.344 91.2129 125.344 89.3584 124.816 88.4103 124.186L89.0143 122.27C90.0389 122.927 91.4991 123.424 93.0644 123.424 95.3942 123.424 96.7554 122.218 96.7554 120.409 96.7554 118.781 95.8145 117.81 93.4325 116.918M84.3891 132.104 102.069 132.104 102.069 58.1484 84.3891 58.1484Z" id="path848" stroke-width="0.314575" fill="#505C5B"/><path d="M120.52 87.4158 115.133 87.4158 115.133 103.165 112.835 103.165 112.835 87.4158 107.476 87.4158 107.476 85.4701 120.52 85.4701ZM104.95 132.105 122.635 132.105 122.635 58.1487 104.95 58.1487Z" id="path852" stroke-width="0.314575" fill="#505C5B"/></g></svg>