<svg width="2560" height="883" xmlns="http://www.w3.org/2000/svg" xmlns:xlink="http://www.w3.org/1999/xlink" overflow="hidden"><path d="M0 0C19.5403-0.0233276 39.0806-0.0409785 58.6209-0.0518122 67.6932-0.0569754 76.7654-0.0640187 85.8376-0.0754395 93.7421-0.0853854 101.647-0.0918532 109.551-0.0940885 113.739-0.0953958 117.927-0.0984826 122.115-0.10573 126.052-0.112489 129.989-0.114617 133.927-0.113108 135.376-0.113384 136.825-0.11539 138.274-0.119205 140.245-0.12414 142.215-0.122398 144.185-0.120255 145.843-0.121637 145.843-0.121637 147.534-0.123048 150 0 150 0 151 1 151.266 2.85445 151.532 4.709 151.794 6.56396 153.99 20.5119 159.829 32.7541 165.623 45.481 170.077 55.3059 174.264 65.2457 178.475 75.1768 179.952 78.6603 181.432 82.1426 182.913 85.6245 184.936 90.3812 186.959 95.1382 188.98 99.8955 193.338 110.149 197.705 120.398 202.072 130.647 204.465 136.265 206.857 141.882 209.25 147.5 210.208 149.75 211.167 152 212.125 154.25 240.875 221.75 240.875 221.75 242.312 225.125 243.271 227.375 244.23 229.626 245.188 231.876 247.581 237.494 249.974 243.112 252.366 248.73 256.714 258.939 261.063 269.148 265.415 279.355 278.003 308.878 290.54 338.422 303 368 309.899 351.431 316.466 334.741 322.938 318 329.564 300.859 336.221 283.731 342.938 266.625 343.35 265.573 343.763 264.522 344.188 263.438 346.283 258.102 348.379 252.765 350.475 247.429 354.696 236.684 358.91 225.935 363.125 215.188 363.747 213.6 363.747 213.6 364.382 211.981 370.303 196.886 376.217 181.788 382.125 166.688 382.494 165.744 382.863 164.8 383.244 163.828 386.918 154.437 390.591 145.046 394.263 135.655 395.357 132.857 396.451 130.059 397.546 127.262 399.012 123.513 400.477 119.765 401.941 116.016 405.717 106.352 409.512 96.6954 413.34 87.0518 415.096 82.6286 416.848 78.2035 418.598 73.778 419.811 70.7114 421.028 67.6463 422.251 64.5831 430.917 42.8592 437.319 23.5284 439 0 485.2 0 531.4 0 579 0 579 2.64 579 5.28 579 8 578.276 8.34031 577.551 8.68062 576.805 9.03125 567.317 13.7876 562.447 19.199 558.876 29.1962 555.683 39.4128 555.711 49.8939 555.739 60.4897 555.736 62.1352 555.732 63.7806 555.728 65.4261 555.717 69.9193 555.72 74.4124 555.724 78.9056 555.726 83.7625 555.717 88.6195 555.71 93.4765 555.697 102.981 555.695 112.485 555.698 121.99 555.699 129.718 555.698 137.447 555.693 145.175 555.693 146.276 555.692 147.378 555.692 148.513 555.69 150.75 555.689 152.988 555.688 155.226 555.677 176.196 555.679 197.166 555.685 218.136 555.691 237.302 555.679 256.467 555.66 275.633 555.641 295.333 555.633 315.033 555.636 334.733 555.638 345.784 555.636 356.836 555.622 367.888 555.61 377.296 555.608 386.705 555.62 396.113 555.626 400.909 555.628 405.705 555.615 410.501 555.605 414.899 555.608 419.298 555.622 423.697 555.624 425.28 555.622 426.862 555.614 428.445 555.497 453.189 562.439 475.001 580 493 580.621 493.66 581.243 494.32 581.883 495 584.737 497.97 587.41 500.303 590.938 502.438 591.948 503.283 592.959 504.129 594 505 594 507.64 594 510.28 594 513 545.16 513 496.32 513 446 513 446 510.36 446 507.72 446 505 447.074 504.515 448.148 504.031 449.254 503.531 461.044 498.046 467.826 493.039 473.004 480.73 477.183 469.274 477.147 457.297 477.12 445.251 477.121 443.758 477.122 442.265 477.123 440.773 477.125 436.688 477.121 432.604 477.116 428.52 477.112 424.109 477.113 419.698 477.114 415.287 477.115 407.651 477.111 400.014 477.106 392.378 477.098 381.337 477.095 370.296 477.094 359.255 477.092 341.341 477.085 323.427 477.075 305.512 477.066 288.113 477.059 270.714 477.055 253.314 477.055 252.241 477.054 251.168 477.054 250.063 477.053 244.68 477.052 239.297 477.05 233.914 477.04 189.276 477.022 144.638 477 100 474.951 105.189 472.902 110.378 470.853 115.568 470.158 117.328 469.463 119.088 468.768 120.848 463.553 134.056 458.355 147.272 453.188 160.5 452.437 162.42 451.687 164.339 450.936 166.259 449.393 170.205 447.85 174.152 446.307 178.099 444.012 183.969 441.715 189.838 439.418 195.707 431.942 214.805 424.473 233.906 417.02 253.013 411.309 267.655 405.583 282.291 399.854 296.926 394.562 310.448 389.277 323.972 384 337.5 376.109 357.729 368.197 377.95 360.282 398.169 356.894 406.824 353.508 415.48 350.121 424.135 349.003 426.993 347.884 429.851 346.766 432.709 343.325 441.501 339.885 450.294 336.446 459.086 327.979 480.73 319.51 502.373 311 524 307.609 524 307.177 523.636 304.664 521.578 304.018 521.053 303.373 520.529 302.708 519.988 301.677 519.128 301.677 519.128 300.625 518.25 299.556 517.366 299.556 517.366 298.466 516.465 269.438 492.271 252.614 464.018 237.938 429.375 237.12 427.462 236.301 425.549 235.482 423.636 228.406 407.076 221.458 390.461 214.527 373.84 209.905 362.754 205.238 351.688 200.562 340.625 199.768 338.744 198.973 336.862 198.178 334.981 195.786 329.32 193.393 323.66 191 318 187.812 310.459 184.624 302.917 181.438 295.375 181.044 294.444 180.651 293.513 180.245 292.553 174.095 277.992 167.981 263.416 161.885 248.832 156.12 235.042 150.32 221.267 144.5 207.5 137.659 191.318 130.849 175.123 124.072 158.913 118.532 145.662 112.988 132.413 107.441 119.164 106.615 117.19 105.788 115.216 104.962 113.241 102.975 108.494 100.987 103.747 99 99 98.9313 143.664 98.8784 188.327 98.8468 232.991 98.8431 238.27 98.8392 243.55 98.8352 248.829 98.8344 249.88 98.8336 250.931 98.8328 252.014 98.8198 269.005 98.7961 285.997 98.7685 302.989 98.7404 320.438 98.7238 337.888 98.7177 355.338 98.7136 366.095 98.7007 376.853 98.6763 387.61 98.6603 394.998 98.6556 402.387 98.6595 409.775 98.6614 414.03 98.6586 418.285 98.6424 422.541 97.9417 460.503 97.9417 460.503 114 494 118.237 497.671 122.668 500.998 127.836 503.219 128.55 503.807 129.264 504.394 130 505 130 507.64 130 510.28 130 513 86.44 513 42.88 513-2 513-2 506-2 506-0.128906 503.621 0.718008 502.901 1.56492 502.18 2.4375 501.438 8.61675 495.678 12.7792 489.274 17 482 17.8334 480.602 17.8334 480.602 18.6836 479.176 25.4883 466.786 28.7559 452.391 30.8125 438.5 30.9242 437.756 31.036 437.013 31.1511 436.246 33.7389 416.451 33.1517 396.257 33.1454 376.336 33.1452 372.252 33.1507 368.168 33.1554 364.084 33.1637 356.114 33.1665 348.144 33.1671 340.173 33.1675 333.69 33.1696 327.207 33.1728 320.723 33.1815 302.29 33.1862 283.856 33.1854 265.423 33.1854 263.938 33.1854 263.938 33.1853 262.423 33.1852 260.936 33.1852 260.936 33.1852 259.419 33.1848 243.34 33.1944 227.262 33.2084 211.183 33.2228 194.624 33.2297 178.064 33.2288 161.504 33.2285 152.227 33.2312 142.949 33.242 133.672 33.2512 125.78 33.2533 117.887 33.2465 109.994 33.2433 105.976 33.2431 101.957 33.2519 97.9386 34.1875 55.2994 34.1875 55.2994 16 18 11.0748 14.0176 5.78341 10.5873 0 8 0 5.36 0 2.72 0 0Z" transform="translate(445 337)"/><path d="M0 0C26.0707-0.046891 52.1413-0.0820721 78.2121-0.103624 90.3194-0.113901 102.427-0.127892 114.534-0.150879 125.097-0.170924 135.659-0.183743 146.222-0.188177 151.806-0.190766 157.39-0.196773 162.973-0.21146 168.249-0.22522 173.524-0.229186 178.799-0.226215 180.716-0.226757 182.634-0.230623 184.551-0.238411 202.277-0.306766 220.157 0.542095 237.625 3.75 238.56 3.91846 239.494 4.08693 240.458 4.2605 267.048 9.28288 292.852 18.8248 314 36 314.727 36.5736 315.454 37.1473 316.203 37.7383 334.729 53.0187 345.944 76.4548 349 100 349.292 104.754 349.334 109.488 349.312 114.25 349.307 115.535 349.301 116.821 349.295 118.145 349.18 127.137 348.676 135.363 346 144 345.807 144.636 345.613 145.272 345.414 145.928 339.8 163.897 328.766 180.254 314 192 313.102 192.746 312.203 193.493 311.277 194.262 288.009 213 288.009 213 280 213 280 213.66 280 214.32 280 215 281.446 215.155 281.446 215.155 282.922 215.312 287.56 215.982 291.844 217.44 296.25 219 297.119 219.308 297.988 219.615 298.883 219.932 321.835 228.271 341.147 240.363 359 257 359.741 257.675 360.482 258.351 361.246 259.047 381.194 277.963 392.92 304.069 397 331 397.13 331.806 397.26 332.611 397.395 333.441 402.231 370.517 390.608 408.107 368.188 437.625 333.991 481.386 284.147 502.943 230.02 509.938 210.455 512.284 191.002 513.156 171.31 513.114 169.425 513.113 167.541 513.113 165.656 513.114 160.606 513.114 155.555 513.108 150.505 513.101 145.203 513.095 139.9 513.095 134.598 513.093 124.586 513.09 114.575 513.082 104.564 513.072 93.1534 513.061 81.7433 513.055 70.3331 513.05 46.8888 513.04 23.4444 513.022 0 513 0 510.36 0 507.72 0 505 0.70125 504.66 1.4025 504.319 2.125 503.969 16.3753 496.689 23.4583 486.143 28.3203 471.145 34.2259 449.688 33.2953 427.051 33.2614 404.998 33.2569 400.574 33.2639 396.151 33.2694 391.728 33.2782 383.091 33.2764 374.454 33.2706 365.818 33.266 358.792 33.2655 351.766 33.2676 344.74 33.2679 343.736 33.2682 342.731 33.2686 341.696 33.2692 339.655 33.2698 337.614 33.2705 335.573 33.2762 316.487 33.2697 297.4 33.2589 278.314 33.25 261.976 33.2515 245.638 33.2607 229.3 33.2715 210.275 33.2756 191.25 33.2695 172.225 33.2689 170.192 33.2683 168.159 33.2676 166.126 33.2673 165.126 33.267 164.126 33.2667 163.096 33.265 156.087 33.2679 149.078 33.2726 142.069 33.2782 133.516 33.2766 124.962 33.266 116.408 33.2608 112.053 33.2586 107.698 33.2653 103.344 33.8003 72.8501 33.8003 72.8501 28.75 42.9375 28.536 42.1593 28.322 41.3811 28.1016 40.5793 26.2534 34.2029 23.7192 28.5236 20 23 18.9172 21.3913 18.9172 21.3913 17.8125 19.75 12.7 14.7511 6.43184 11.0873 0 8 0 5.36 0 2.72 0 0ZM118 59C118 106.85 118 154.7 118 204 160.796 204 208.608 203.724 241.82 172.309 254.269 159.123 259.569 142.391 259.419 124.465 258.792 106.529 251.464 89.9147 239 77 204.521 44.9029 161.571 54.1588 118 59ZM144.688 258.938C143.923 258.981 143.159 259.024 142.372 259.069 134.222 259.542 126.129 260.187 118 261 118 321.72 118 382.44 118 445 120.596 446.298 122.822 446.379 125.718 446.664 126.922 446.784 128.127 446.904 129.367 447.028 130.698 447.156 132.029 447.283 133.359 447.41 134.037 447.475 134.715 447.541 135.413 447.608 139.033 447.956 142.653 448.3 146.274 448.639 149.209 448.915 152.143 449.199 155.076 449.491 170.54 451.032 185.911 452.261 201.461 452.285 202.668 452.288 203.876 452.29 205.12 452.293 233.698 452.039 262.498 440.527 283.297 420.824 302.362 400.614 306.749 375.744 306.132 349.1 305.161 326.286 293.366 305.418 277 290 251.163 266.857 215.177 257.793 181.188 257.812 180.202 257.812 180.202 257.812 179.197 257.811 167.674 257.819 156.191 258.281 144.688 258.938Z" transform="translate(1605 337)"/><path d="M0 0C1.55952-0.00101212 1.55952-0.00101212 3.15054-0.00204468 42.333 0.0381803 80.0876 5.98878 117.625 17.25 117.625 49.26 117.625 81.27 117.625 114.25 113.937 112.406 112.549 111.295 109.875 108.375 88.3642 86.4775 58.3493 72.529 28.625 66.25 27.9229 66.0892 27.2209 65.9284 26.4976 65.7627-4.78307 58.7439-43.9793 61.2167-71.9883 77.6875-87.2896 87.7047-97.3654 100.09-101.375 118.25-102.923 136.477-99.5883 151.842-87.8984 166.316-59.0151 199.611-12.487 216.387 26.7903 234.121 60.0399 249.139 92.7786 265.311 120.625 289.25 121.424 289.927 122.223 290.604 123.047 291.301 143.472 308.95 158.181 333.292 161.625 360.25 162.523 377.181 162.418 393.89 157.625 410.25 157.298 411.485 156.97 412.72 156.633 413.992 149.457 438.348 134.339 458.564 116.625 476.25 115.965 476.945 115.305 477.64 114.625 478.355 79.084 515.354 21.3451 535.369-29.1154 537.358-31.9275 537.413-34.7382 537.44-37.5508 537.453-38.5862 537.46-39.6217 537.467-40.6885 537.474-44.0215 537.492-47.3544 537.498-50.6875 537.5-52.399 537.501-52.399 537.501-54.1451 537.502-72.0772 537.485-89.615 536.923-107.375 534.25-108.528 534.078-109.681 533.907-110.869 533.73-123.899 531.724-136.759 529.072-149.562 525.938-150.58 525.69-151.598 525.443-152.647 525.188-154.776 524.646-156.894 524.06-159 523.436-162.41 522.454-165.829 521.773-169.314 521.106-185.65 517.534-185.65 517.534-190.186 512.067-193.661 505.528-194.775 498.296-196.066 491.078-196.559 488.788-197.062 486.5-197.573 484.213-198.887 478.222-200.065 472.211-201.217 466.187-202.417 460.048-203.747 453.938-205.064 447.824-206.966 438.906-208.82 429.981-210.569 421.032-210.754 420.096-210.939 419.16-211.13 418.195-211.295 417.335-211.461 416.474-211.632 415.587-211.849 414.469-211.849 414.469-212.07 413.328-212.375 411.25-212.375 411.25-212.375 407.25-208.563 408.862-205.748 411.415-202.688 414.125-190.588 424.573-177.28 433.399-163.375 441.25-162.699 441.639-162.022 442.027-161.326 442.428-114.693 469.026-54.1265 483.653-1.3042 469.703 23.4059 462.713 46.8013 449.212 60.1289 426.711 67.6751 412.52 69.5055 394.737 64.7812 379.23 52.7167 348.132 27.1265 331.289-1.375 316.25-2.15569 315.837-2.93638 315.424-3.74072 314.999-16.6008 308.256-29.7982 302.332-43.0757 296.474-66.9462 285.941-90.773 275.345-113.375 262.25-114.186 261.781-114.998 261.312-115.833 260.829-125.912 254.956-135.366 248.669-144.375 241.25-145.208 240.569-145.208 240.569-146.059 239.874-149.89 236.731-153.651 233.52-157.375 230.25-158.433 229.322-158.433 229.322-159.512 228.375-183.538 205.809-196.127 174.098-197.312 141.539-198.043 108.134-187.162 78.0131-164.16 53.6326-152.917 42.1229-139.596 33.6104-125.375 26.25-124.724 25.9087-124.072 25.5674-123.401 25.2158-96.2857 11.1812-65.5912 4.32752-35.375 1.25-34.4728 1.15574-33.5706 1.06147-32.6411 0.964355-21.7822-0.0234648-10.8949 0.00637009 0 0Z" transform="translate(2398.38 324.75)"/><path d="M0 0C0.882686 0.433931 1.76537 0.867861 2.6748 1.31494 16.1195 7.95977 28.8088 15.2637 41 24 42.0615 24.7585 42.0615 24.7585 43.1445 25.5322 51.9478 31.8691 60.085 38.5797 68 46 69.328 47.152 70.661 48.2983 72 49.4375 79.9133 56.3271 87.3128 63.9185 94 72 94.4289 72.5151 94.8579 73.0303 95.2998 73.561 102.839 82.6543 109.626 92.0581 116 102 113 102 113 102 111.505 100.798 110.719 99.96 110.719 99.96 109.918 99.1055 109.323 98.485 108.728 97.8646 108.115 97.2253 107.479 96.5529 106.843 95.8804 106.188 95.1875 99.2532 88.0616 91.9993 81.8832 84 76 83.1439 75.3607 83.1439 75.3607 82.2705 74.7085 73.5312 68.1947 64.4871 62.363 55 57 54.2928 56.5978 53.5856 56.1956 52.8569 55.7812 22.1274 38.4802-12.8388 27.8747-48 25-48.8168 24.9315-49.6336 24.863-50.4751 24.7925-119.188 19.4514-185.472 42.8513-237.677 87.1831-240.638 89.7396-243.456 92.3883-246.188 95.1875-247.58 96.5797-247.58 96.5797-249 98-249.66 98-250.32 98-251 98-251.249 98.5801-251.498 99.1602-251.754 99.7578-253.179 102.322-254.79 103.879-256.938 105.875-262.944 111.757-267.968 118.287-273 125-273.435 125.579-273.87 126.159-274.318 126.756-280.822 135.488-286.632 144.53-292 154-292.397 154.691-292.794 155.383-293.203 156.095-306.347 179.193-315.141 204.645-320.25 230.688-320.401 231.457-320.553 232.227-320.708 233.021-323.442 247.989-324.381 262.933-324.312 278.125-324.31 279.396-324.31 279.396-324.307 280.693-324.257 294.648-323.497 308.244-321 322-320.844 322.904-320.689 323.808-320.528 324.739-315.848 351.224-306.481 376.255-294 400-293.626 400.716-293.253 401.431-292.868 402.168-281.687 423.315-266.537 441.866-250 459-249.1 459.941-248.2 460.882-247.273 461.852-205.024 505.174-140.741 532.238-80.4766 533.25-77.0468 533.289-73.6174 533.305-70.1875 533.312-69.3764 533.316-68.5652 533.32-67.7295 533.324-55.7039 533.352-43.9337 532.462-32 531-33 533-33 533-34.9041 533.79-37.7452 534.644-40.586 535.493-43.4375 536.312-44.5063 536.621-45.5751 536.929-46.6763 537.247-123.318 558.711-202.963 546.462-272 508-276.81 505.203-281.424 502.166-286 499-286.58 498.601-287.161 498.201-287.759 497.79-299.28 489.834-309.958 481.096-320.211 471.566-322.538 469.425-324.901 467.357-327.312 465.312-330.549 462.501-333.34 459.475-336.105 456.203-338.23 453.732-340.457 451.376-342.688 449-393.638 393.025-416.109 316.463-412.864 241.868-409.286 182.488-386.74 124.023-349 78-348.539 77.4372-348.077 76.8743-347.602 76.2944-335.482 61.6273-322.162 47.5466-307 36-306.001 35.2072-305.002 34.4145-303.973 33.5977-295.956 27.2598-287.628 21.4744-279 16-278.377 15.6035-277.755 15.2069-277.113 14.7983-242.766-6.82775-204.123-20.3913-164-26-163.184-26.1171-162.368-26.2343-161.528-26.355-107.414-33.7677-48.8684-24.4555 0 0Z" fill="#CC1323" transform="translate(1453 335)"/><path d="M0 0C50.16 0 100.32 0 152 0 152 2.64 152 5.28 152 8 151.241 8.39832 150.481 8.79664 149.699 9.20703 148.705 9.73684 147.711 10.2666 146.688 10.8125 145.701 11.3346 144.715 11.8566 143.699 12.3945 141.365 13.7827 139.866 15.0876 138 17 137.34 17 136.68 17 136 17 135.728 17.5801 135.456 18.1602 135.176 18.7578 134.01 20.9813 132.676 22.8567 131.188 24.875 118.918 43.2495 118.841 68.0384 118.866 89.2788 118.864 90.7806 118.862 92.2824 118.859 93.7842 118.853 97.8759 118.853 101.968 118.855 106.059 118.855 110.486 118.849 114.913 118.845 119.34 118.836 128.001 118.834 136.662 118.833 145.322 118.832 152.369 118.83 159.416 118.827 166.462 118.818 186.477 118.814 206.492 118.815 226.507 118.815 228.123 118.815 228.123 118.815 229.772 118.815 231.39 118.815 231.39 118.815 233.041 118.815 250.508 118.806 267.975 118.792 285.443 118.777 303.414 118.77 321.385 118.771 339.356 118.771 349.431 118.769 359.506 118.758 369.581 118.749 378.161 118.747 386.742 118.753 395.322 118.757 399.691 118.757 404.06 118.748 408.43 118.32 442.149 118.32 442.149 125 475 125.298 475.92 125.596 476.841 125.902 477.789 130.364 490.159 138.007 498.005 149.625 503.938 150.409 504.288 151.193 504.639 152 505 152 507.64 152 510.28 152 513 101.84 513 51.68 513 0 513 0 510.36 0 507.72 0 505 1.08668 504.437 1.08668 504.437 2.19531 503.863 16.0141 496.549 22.9872 487.751 27.9375 472.867 32.8424 455.971 33.155 438.097 33.1337 420.639 33.1356 419.153 33.1379 417.667 33.1406 416.18 33.1466 412.141 33.1466 408.101 33.1454 404.061 33.1452 399.687 33.1507 395.313 33.1554 390.938 33.1637 382.384 33.1665 373.83 33.1671 365.277 33.1675 358.316 33.1696 351.356 33.1728 344.396 33.1816 324.619 33.1862 304.842 33.1854 285.065 33.1854 283.469 33.1854 283.469 33.1853 281.841 33.1852 280.243 33.1852 280.243 33.1852 278.613 33.1848 261.36 33.1943 244.107 33.2084 226.854 33.2228 209.096 33.2297 191.338 33.2288 173.581 33.2285 163.628 33.2312 153.676 33.242 143.723 33.2512 135.248 33.2533 126.772 33.2465 118.297 33.2433 113.982 33.2431 109.668 33.2519 105.353 34.9618 58.7115 34.9618 58.7115 15.75 18 11.0555 13.6623 5.74338 10.7375 0 8 0 5.36 0 2.72 0 0Z" transform="translate(2019 337)"/><path d="M0 0C3.30318 2.89851 6.49847 5.89873 9.65137 8.95947 11.333 10.5881 13.0345 12.1943 14.7363 13.8018 50.6895 48.2339 72.9524 97.336 78.2754 146.532 78.3682 147.367 78.461 148.202 78.5566 149.062 84.0099 202.62 69.8424 256.343 39.2754 300.532 38.7963 301.226 38.3173 301.92 37.8237 302.635 4.90952 349.661-47.103 382.116-103.35 392.782-154.501 401.741-204.37 393.318-250.725 370.532-250.395 369.872-250.065 369.212-249.725 368.532-249.138 368.698-248.551 368.864-247.947 369.035-199.812 382.507-150.137 381.086-104.725 358.532-104.013 358.184-103.301 357.836-102.567 357.478-57.6148 335.341-23.0711 295.836-6.4563 248.615 10.5535 198.39 7.27538 144.704-16.0083 96.8965-25.3718 78.5592-37.7325 62.5851-51.7246 47.5322-52.6411 46.5345-52.6411 46.5345-53.5762 45.5166-85.7277 11.8602-134.38-7.72002-180.449-9.57764-224.905-10.5298-267.538 1.19242-303.725 27.5322-304.325 27.9591-304.925 28.3859-305.544 28.8257-317.114 37.1046-326.849 47.3473-336.725 57.5322-336.725 53.6149-334.993 51.3843-332.912 48.2197-332.509 47.6023-332.106 46.985-331.691 46.3489-324.188 35.0466-315.508 24.7957-306.137 15.0078-304.829 13.641-303.532 12.2628-302.236 10.8838-295.616 4.01414-288.334-1.75401-280.725-7.46777-280.179-7.88527-279.632-8.30276-279.07-8.73291-200.152-68.8937-88.0622-65.6607 0 0Z" fill="#CC1323" transform="translate(1525.72 440.468)"/><path d="M0 0C1.70355 0.00122778 3.40711 0.00068721 5.11066-0.00146103 9.63923-0.00235759 14.1674 0.0206875 18.6958 0.0489807 22.9579 0.0718988 27.2198 0.0728406 31.4819 0.0756836 43.9154 0.0966049 56.3488 0.15245 68.7822 0.204102 96.5847 0.286602 124.387 0.369102 153.032 0.454102 153.032 75.0341 153.032 149.614 153.032 226.454 136.202 226.454 119.372 226.454 102.032 226.454 102.032 202.694 102.032 178.934 102.032 154.454 67.7122 154.454 33.3922 154.454-1.96777 154.454-1.96777 178.214-1.96777 201.974-1.96777 226.454-18.4678 226.454-34.9678 226.454-51.9678 226.454-52.0356 202.149-52.0908 177.844-52.1232 153.539-52.1387 142.253-52.1597 130.968-52.1941 119.682-52.2241 109.842-52.2434 100.001-52.25 90.1614-52.2539 84.9541-52.2631 79.7469-52.285 74.5397-52.3054 69.6314-52.3116 64.7232-52.3071 59.8149-52.3079 58.0203-52.3138 56.2257-52.3254 54.4311-52.422 38.6678-50.8702 23.801-39.9678 11.4541-37.5928 9.5752-37.5928 9.5752-34.9678 7.8916-34.1221 7.33344-33.2765 6.77527-32.4053 6.2002-21.6765 0.750478-11.7808-0.112016 0 0ZM1.03223 46.4541C-3.07558 52.4828-2.35314 59.3243-2.26074 66.3877-2.25772 67.4815-2.2547 68.5753-2.25159 69.7023-2.23596 73.7655-2.19408 77.8286-2.15527 81.8916-2.0934 90.9872-2.03152 100.083-1.96777 109.454 32.3522 109.454 66.6722 109.454 102.032 109.454 102.032 88.0041 102.032 66.5541 102.032 44.4541 85.4961 44.3959 85.4961 44.3959 68.96 44.3564 62.2138 44.3445 55.4676 44.3304 48.7214 44.3032 43.2814 44.2815 37.8415 44.2695 32.4015 44.2643 30.3279 44.2607 28.2543 44.2535 26.1808 44.2426 23.2724 44.2281 20.3642 44.2261 17.4558 44.2271 16.602 44.2199 15.7482 44.2127 14.8685 44.2053 9.88505 44.2224 5.70853 44.6616 1.03223 46.4541Z" fill="#1B4281" transform="translate(1265.97 -0.454102)"/><path d="M0 0C41.7347-0.12375 41.7347-0.12375 84.3125-0.25 93.0876-0.286416 101.863-0.322832 110.904-0.360352 121.645-0.378418 121.645-0.378418 126.678-0.381775 130.183-0.385491 133.687-0.40044 137.192-0.422302 141.672-0.449874 146.151-0.45794 150.631-0.452289 152.269-0.45347 153.907-0.461322 155.545-0.476861 169.464-0.60269 182.051 2.01275 192.781 11.5898 202.996 22.6646 204.302 35.5399 204.291 49.9304 204.297 51.4376 204.303 52.9447 204.311 54.4519 204.328 58.5286 204.333 62.6053 204.335 66.6821 204.336 69.2351 204.34 71.788 204.346 74.341 204.364 83.2649 204.372 92.1887 204.371 101.113 204.369 109.403 204.39 117.692 204.422 125.982 204.448 133.122 204.459 140.262 204.458 147.402 204.457 151.656 204.463 155.91 204.484 160.165 204.504 164.171 204.503 168.177 204.489 172.184 204.487 173.644 204.492 175.104 204.504 176.565 204.614 190.697 202.066 202.915 192.516 213.672 180.034 225.659 163.026 226.307 146.788 226.227 145.155 226.226 143.522 226.227 141.888 226.228 137.544 226.228 133.2 226.217 128.856 226.203 124.768 226.191 120.681 226.191 116.593 226.189 104.666 226.179 92.7394 226.151 80.8125 226.125 54.1444 226.084 27.4762 226.042 0 226 0 151.42 0 76.84 0 0ZM50 44C50 89.21 50 134.42 50 181 72.5225 181.031 72.5225 181.031 95.5 181.062 102.595 181.076 102.595 181.076 109.834 181.09 114.097 181.093 114.097 181.093 118.36 181.095 120.25 181.097 122.139 181.1 124.029 181.106 126.901 181.113 129.774 181.114 132.646 181.114 133.48 181.117 134.313 181.121 135.171 181.124 143.987 181.443 143.987 181.443 151.938 178.625 154.008 175.459 154.127 172.67 154.134 169.003 154.138 167.971 154.142 166.94 154.147 165.877 154.146 164.745 154.146 163.614 154.145 162.448 154.149 161.256 154.152 160.064 154.155 158.835 154.163 155.565 154.167 152.294 154.167 149.023 154.168 146.979 154.17 144.936 154.173 142.892 154.182 135.76 154.186 128.629 154.185 121.497 154.185 114.852 154.195 108.206 154.211 101.561 154.224 95.8537 154.229 90.1466 154.229 84.4395 154.229 81.0316 154.231 77.6239 154.242 74.2161 154.252 70.4143 154.249 66.6128 154.243 62.811 154.249 61.6836 154.254 60.5561 154.26 59.3945 154.256 58.357 154.252 57.3196 154.247 56.2506 154.248 55.3521 154.248 54.4536 154.249 53.5278 153.965 50.6419 153.369 48.5588 152 46 146.178 43.8579 140.613 43.721 134.463 43.7729 133.53 43.7727 132.597 43.7725 131.637 43.7722 128.643 43.7737 125.65 43.7889 122.656 43.8047 120.798 43.8076 118.939 43.8097 117.081 43.8108 110.221 43.8212 103.36 43.8492 96.5 43.875 81.155 43.9162 65.81 43.9575 50 44Z" fill="#1B4281" transform="translate(970 0)"/><path d="M0 0C16.5 0 33 0 50 0 50 28.71 50 57.42 50 87 84.32 87 118.64 87 154 87 154 58.29 154 29.58 154 0 170.5 0 187 0 204 0 204 74.58 204 149.16 204 226 187.5 226 171 226 154 226 154 194.98 154 163.96 154 132 119.68 132 85.36 132 50 132 50 163.02 50 194.04 50 226 33.5 226 17 226 0 226 0 151.42 0 76.84 0 0Z" fill="#1B4281"/><path d="M0 0C16.5 0 33 0 50 0 50 59.73 50 119.46 50 181 72.4606 180.783 72.4606 180.783 95.375 180.562 100.087 180.519 104.799 180.476 109.654 180.432 113.911 180.389 113.911 180.389 118.169 180.344 120.052 180.325 121.935 180.308 123.818 180.292 126.685 180.267 129.552 180.237 132.419 180.205 133.245 180.2 134.071 180.194 134.922 180.188 140.658 180.117 146.301 179.651 152 179 153.171 175.285 153.139 171.753 153.158 167.875 153.163 167.157 153.168 166.439 153.173 165.699 153.189 163.293 153.197 160.887 153.205 158.481 153.215 156.757 153.225 155.032 153.235 153.307 153.262 148.624 153.283 143.94 153.303 139.257 153.325 134.363 153.353 129.469 153.379 124.575 153.429 115.306 153.474 106.038 153.517 96.77 153.567 86.2187 153.622 75.6674 153.677 65.1161 153.791 43.4108 153.897 21.7054 154 0 170.83 0 187.66 0 205 0 205.045 23.8006 205.082 47.6013 205.104 71.4019 205.114 82.4536 205.128 93.5052 205.151 104.557 205.171 114.192 205.184 123.828 205.188 133.463 205.191 138.562 205.197 143.662 205.211 148.761 205.225 153.567 205.229 158.372 205.226 163.178 205.227 164.936 205.231 166.694 205.238 168.452 205.303 183.878 204.616 200.662 194 213 179.858 224.798 164.582 226.315 146.788 226.227 145.155 226.226 143.522 226.227 141.888 226.228 137.544 226.228 133.2 226.217 128.856 226.203 124.768 226.191 120.681 226.191 116.593 226.189 104.666 226.179 92.7394 226.151 80.8125 226.125 54.1444 226.084 27.4762 226.042 0 226 0 151.42 0 76.84 0 0Z" fill="#1B4281" transform="translate(475 0)"/><path d="M0 0C41.9203-0.154687 41.9203-0.154687 84.6875-0.3125 93.4966-0.35802 102.306-0.40354 111.382-0.450439 122.177-0.473022 122.177-0.473022 127.239-0.477219 130.758-0.481858 134.276-0.500519 137.795-0.527878 142.296-0.562407 146.796-0.572413 151.298-0.565361 152.942-0.566834 154.586-0.57661 156.229-0.596076 170.299-0.754826 183.376 2.06641 194 12 201.835 21.7753 205.17 32.3775 205.12 44.7764 205.122 45.9405 205.122 45.9405 205.123 47.1282 205.124 49.7245 205.119 52.3209 205.114 54.9172 205.113 56.78 205.113 58.6428 205.114 60.5056 205.114 65.5609 205.108 70.6162 205.101 75.6716 205.095 80.9553 205.095 86.2391 205.093 91.5229 205.09 101.528 205.082 111.533 205.072 121.537 205.061 132.928 205.055 144.318 205.05 155.709 205.04 179.139 205.022 202.57 205 226 188.5 226 172 226 155 226 154.978 218.194 154.978 218.194 154.956 210.23 154.906 193.051 154.839 175.872 154.764 158.693 154.719 148.276 154.68 137.859 154.654 127.442 154.631 118.361 154.597 109.281 154.551 100.201 154.527 95.3939 154.509 90.5865 154.502 85.779 154.496 81.2523 154.476 76.7258 154.446 72.1992 154.437 70.5396 154.433 68.88 154.435 67.2204 154.437 64.9498 154.42 62.68 154.399 60.4095 154.392 58.5056 154.392 58.5056 154.385 56.5631 153.932 52.3667 152.969 49.7205 151 46 148.322 44.8963 148.322 44.8963 145 45 144.326 44.9733 143.651 44.9466 142.957 44.9191 140.533 44.8357 138.114 44.811 135.69 44.7947 134.757 44.7846 133.825 44.7746 132.864 44.7643 129.86 44.733 126.856 44.7082 123.852 44.6836 121.991 44.6652 120.131 44.6463 118.27 44.6271 111.389 44.5588 104.507 44.4986 97.625 44.4375 82.2387 44.2931 66.8525 44.1488 51 44 51 104.06 51 164.12 51 226 34.17 226 17.34 226 0 226 0 151.42 0 76.84 0 0Z" fill="#1C4281" transform="translate(722 0)"/><path d="M0 0C53.7611-4.6821 53.7611-4.6821 64.2363 2.29688 70.5245 7.87424 73.0572 16.276 75.5679 24.0488 77.576 29.9876 81.0053 35.0547 84.3969 40.2829 86.2266 43.1311 87.964 46.0343 89.7109 48.9336 90.4173 50.0977 91.124 51.2616 91.8311 52.4253 93.7037 55.5107 95.5739 58.5976 97.4433 61.685 98.9696 64.2055 100.497 66.7254 102.024 69.2454 102.743 70.4323 103.462 71.6194 104.18 72.8069 110.757 85.0384 110.757 85.0384 119 96 119.31 95.4697 119.62 94.9394 119.939 94.3931 127.073 82.2106 134.346 70.1241 141.765 58.1133 146.793 49.9703 151.784 41.8062 156.75 33.625 157.398 32.5581 158.046 31.4913 158.714 30.3921 159.683 28.7942 159.683 28.7942 160.672 27.1641 161.372 26.0709 162.072 24.9778 162.794 23.8516 164.59 20.9174 165.851 17.9433 167.104 14.7422 169.545 9.03794 171.97 3.83325 177 0 186.107-3.04743 196.182-1.98407 205.638-1.37329 209.175-1.16681 212.716-1.07698 216.258-0.976562 223.179-0.763499 230.089-0.423357 237 0 235.797 3.07289 234.601 5.8508 232.785 8.60938 232.352 9.27236 231.919 9.93534 231.473 10.6184 231.008 11.3218 230.542 12.0253 230.062 12.75 229.061 14.2799 228.06 15.8098 227.059 17.3398 226.548 18.117 226.037 18.8941 225.511 19.6948 223.198 23.2228 220.913 26.7681 218.625 30.3125 212.984 39.035 207.321 47.7435 201.657 56.4517 198.937 60.634 196.219 64.817 193.5 69 190.227 74.0355 186.954 79.0709 183.68 84.1055 178.612 91.8985 173.547 99.6937 168.5 107.5 164.361 113.9 160.215 120.296 156.062 126.688 155.519 127.525 154.975 128.363 154.414 129.227 153.639 130.42 153.639 130.42 152.848 131.637 152.394 132.335 151.94 133.033 151.473 133.753 150 136 150 136 147.942 138.616 145.627 142.65 145.424 145.871 145.454 150.392 145.439 151.622 145.439 151.622 145.423 152.877 145.393 155.572 145.392 158.266 145.391 160.961 145.376 162.836 145.359 164.71 145.341 166.585 145.297 171.507 145.277 176.429 145.262 181.351 145.239 187.264 145.186 193.176 145.139 199.088 145.07 208.059 145.039 217.029 145 226 127.51 226 110.02 226 92 226 92.0786 220.168 92.1573 214.337 92.2383 208.328 92.2591 204.591 92.2761 200.854 92.2793 197.117 92.2847 191.21 92.3031 185.304 92.408 179.397 93.6392 149.383 93.6392 149.383 79.6512 123.879 76.8048 120.64 74.636 116.971 72.375 113.312 71.4768 111.917 70.5761 110.524 69.6719 109.133 68.3365 107.067 67.0013 105.002 65.666 102.937 60.2876 94.6177 54.9007 86.3044 49.5 78 43.2063 68.3223 36.9334 58.6313 30.666 48.9365 25.2217 40.5157 19.772 32.0985 14.3125 23.6875 13.7652 22.8436 13.2179 21.9996 12.6541 21.1301 8.93729 15.4097 5.15583 9.74024 1.29297 4.11719 0 2 0 2 0 0Z" fill="#1B4281" transform="translate(221 0)"/><path d="M0 0C17.82 0 35.64 0 54 0 54 74.58 54 149.16 54 226 36.18 226 18.36 226 0 226 0 151.42 0 76.84 0 0Z" fill="#1B4281" transform="translate(1467 0)"/></svg>