<svg viewBox="0 0 317 258" xmlns="http://www.w3.org/2000/svg" xmlns:xlink="http://www.w3.org/1999/xlink" stroke-linejoin="round" stroke-miterlimit="2" fill-rule="evenodd" clip-rule="evenodd" xml:space="preserve" overflow="hidden"><defs><radialGradient cx="0" cy="0" r="1" gradientUnits="userSpaceOnUse" id="_Radial1" gradientTransform="matrix(1 0 0 -1 0 -4.41194e-06)"><stop offset="0" stop-color="#FEBE0F" stop-opacity="1"/><stop offset="1" stop-color="#F37121" stop-opacity="1"/></radialGradient><radialGradient cx="0" cy="0" r="1" gradientUnits="userSpaceOnUse" id="_Radial2" gradientTransform="matrix(1 0 0 -1 0 2.49946e-05)"><stop offset="0" stop-color="#6ACFF6" stop-opacity="1"/><stop offset="1" stop-color="#0099D8" stop-opacity="1"/></radialGradient><radialGradient cx="0" cy="0" r="1" gradientUnits="userSpaceOnUse" id="_Radial3" gradientTransform="matrix(1 0 0 -1 0 0.0344899)"><stop offset="0" stop-color="#BED73D" stop-opacity="1"/><stop offset="1" stop-color="#61BB46" stop-opacity="1"/></radialGradient><radialGradient cx="0" cy="0" r="1" gradientUnits="userSpaceOnUse" id="_Radial4" gradientTransform="matrix(0 1 1 0 6.67459e-05 -6.67459e-05)"><stop offset="0" stop-color="#E4E5E6" stop-opacity="1"/><stop offset="1" stop-color="#ABADB0" stop-opacity="1"/></radialGradient><radialGradient cx="0" cy="0" r="1" gradientUnits="userSpaceOnUse" id="_Radial5" gradientTransform="matrix(0 1 1 0 -4.93524e-06 4.93524e-06)"><stop offset="0" stop-color="#E4E5E6" stop-opacity="1"/><stop offset="1" stop-color="#ABADB0" stop-opacity="1"/></radialGradient><radialGradient cx="0" cy="0" r="1" gradientUnits="userSpaceOnUse" id="_Radial6" gradientTransform="matrix(0 1 1 0 5.01134e-05 -5.01134e-05)"><stop offset="0" stop-color="#E4E5E6" stop-opacity="1"/><stop offset="1" stop-color="#ABADB0" stop-opacity="1"/></radialGradient></defs><g transform="matrix(116.162 0 0 116.162 158.429 146.15)"><path d="M-1.364 0.026C-1.364 0.175-1.079 0.305-0.656 0.374-1.009 0.304-1.24 0.186-1.24 0.053-1.24-0.162-0.638-0.336 0.106-0.336 0.68-0.336 1.171-0.232 1.364-0.085 1.196-0.252 0.661-0.374 0.027-0.374-0.741-0.374-1.364-0.195-1.364 0.026Z" fill="url(#_Radial1)" fill-rule="nonzero"/></g><g transform="matrix(110.624 0 0 110.624 167.317 128.842)"><path d="M-0.401-0.171C-0.723 0.387-0.867 0.93-0.774 1.165-0.835 0.921-0.695 0.427-0.402-0.08-0.033-0.719 0.438-1.138 0.651-1.014 0.82-0.917 0.776-0.508 0.565-0.024 0.818-0.565 0.881-1.035 0.695-1.142 0.669-1.157 0.639-1.165 0.606-1.165 0.359-1.165-0.063-0.757-0.401-0.171Z" fill="url(#_Radial2)" fill-rule="nonzero"/></g><g transform="matrix(103.896 0 0 103.896 166.632 108.104)"><path d="M-1.241-0.484C-1.333-0.325-1.151-0.036-0.807 0.261-1.082-0.006-1.216-0.256-1.131-0.399-0.992-0.633-0.317-0.489 0.376-0.077 0.775 0.159 1.093 0.433 1.264 0.668 1.111 0.414 0.752 0.097 0.287-0.172-0.188-0.446-0.651-0.599-0.947-0.599-1.092-0.599-1.196-0.562-1.241-0.484Z" fill="url(#_Radial3)" fill-rule="nonzero"/></g><g transform="matrix(4.16667 0 0 4.16667 126.895 174.815)"><path d="M0 0.884-0.027 0.884-0.027 4.986-2.476 4.986-2.476-4.102-0.027-4.102-0.027-0.419 0-0.419 1.978-4.102 4.689-4.102 2.083 0.153 4.883 4.986 2.033 4.986 0 0.884Z" fill="#231F20" fill-rule="nonzero"/></g><g transform="matrix(4.16667 0 0 4.16667 167.268 187.893)"><path d="M0-5.394-0.028-5.394-1.008-1.828 0.792-1.828 0-5.394ZM1.251-0.083-1.42-0.083-2.005 1.847-4.351 1.847-1.329-7.241 1.37-7.241 4.26 1.847 1.737 1.847 1.251-0.083Z" fill="#231F20" fill-rule="nonzero"/></g><g transform="matrix(4.16667 0 0 4.16667 190.229 195.588)"><path d="M0-9.088 5.576-9.088 5.576-7.292 2.396-7.292 2.396-5.549 5.418-5.549 5.418-3.749 2.396-3.749 2.396-1.799 5.743-1.799 5.743 0 0 0 0-9.088Z" fill="#231F20" fill-rule="nonzero"/></g><g transform="matrix(4.16667 0 0 4.16667 233.741 179.799)"><path d="M0-1.509C0.525-1.509 1.002-1.901 1.002-2.489 1.002-3.11 0.679-3.554-0.034-3.554L-0.712-3.554-0.712-1.509 0-1.509ZM0.55 1.211C0.314 0.338-0.091 0.235-0.479 0.235L-0.607 0.235-0.607 3.79-3.058 3.79-3.058-5.299 0.577-5.299C2.412-5.299 3.454-4.535 3.454-2.852 3.454-1.509 2.504-0.964 1.708-0.769L1.708-0.731C2.23-0.561 2.568-0.312 2.935 0.952L3.753 3.79 1.226 3.79 0.55 1.211Z" fill="#231F20" fill-rule="nonzero"/></g><g transform="matrix(4.16667 0 0 4.16667 -511.863 -1747.58)"><rect x="184.234" y="457.273" width="2.448" height="9.088" fill="#231F20"/></g><g transform="matrix(0 -10.3065 10.3065 0 165.126 53.6286)"><ellipse cx="-0" cy="-0" rx="1.001" ry="0.999" fill="url(#_Radial4)"/></g><g transform="matrix(0 -9.96239 9.96239 0 260.878 135.845)"><ellipse cx="-0" cy="-0" rx="1" ry="1" fill="url(#_Radial5)"/></g><g transform="matrix(0 -9.96074 9.96074 0 40.7108 177.352)"><ellipse cx="0" cy="-0" rx="1.001" ry="1" fill="url(#_Radial6)"/></g><g transform="matrix(4.16667 0 0 4.16667 153.41 216.561)"><path d="M0 1.646-0.385 1.618C-1.149 1.618-1.889 1.733-2.598 1.964-3.025 2.1-3.36 2.251-3.595 2.418-3.797 2.566-3.898 2.681-3.898 2.752-3.898 2.852-3.812 2.913-3.637 2.927L-2.66 2.946C-1.976 2.946-1.395 2.94-0.916 2.923-0.438 2.913 0.005 2.876 0.414 2.829 0.477 2.782 0.528 2.699 0.565 2.588 0.605 2.475 0.626 2.373 0.626 2.281 0.626 2.029 0.555 1.796 0.415 1.577 0.277 1.356 0.077 1.093-0.182 0.783L-0.679 0.192C-0.709 0.155-0.746 0.108-0.797 0.045-0.843-0.013-0.902-0.086-0.959-0.172-1.016-0.26-1.063-0.336-1.093-0.406-1.122-0.476-1.139-0.544-1.139-0.606-1.139-0.833-0.965-1.066-0.623-1.304-0.428-1.437-0.216-1.539 0.021-1.608 0.255-1.68 0.492-1.712 0.73-1.712 0.951-1.712 1.168-1.683 1.382-1.618 1.593-1.558 1.697-1.437 1.697-1.268 1.697-1.18 1.666-1.064 1.602-0.918 1.539-0.773 1.47-0.699 1.398-0.699 1.367-0.699 1.353-0.72 1.353-0.763 1.353-0.78 1.37-0.824 1.403-0.895 1.435-0.969 1.453-1.029 1.453-1.083 1.453-1.252 1.354-1.369 1.161-1.432 0.968-1.496 0.765-1.528 0.546-1.528 0.287-1.528 0.015-1.467-0.262-1.34-0.538-1.215-0.678-1.033-0.678-0.796-0.678-0.714-0.651-0.631-0.6-0.537-0.548-0.446-0.481-0.352-0.397-0.257-0.317-0.162-0.247-0.084-0.193-0.022 0.149 0.371 0.443 0.751 0.688 1.125 0.932 1.494 1.054 1.849 1.054 2.181 1.054 2.436 0.968 2.643 0.793 2.805 0.622 2.965 0.405 3.08 0.14 3.146-0.367 3.289-1.04 3.358-1.872 3.358-2.336 3.358-2.822 3.326-3.33 3.257-3.839 3.189-4.092 3.038-4.092 2.806-4.092 2.626-3.951 2.449-3.665 2.279-3.38 2.109-3.095 1.964-2.802 1.841-2.12 1.567-1.347 1.394-0.482 1.313L0 1.646Z" fill="#231F20" fill-rule="nonzero"/></g><g transform="matrix(4.16667 0 0 4.16667 163.197 227.391)"><path d="M0-1.789C0.042-1.834 0.088-1.896 0.136-1.965 0.185-2.039 0.214-2.081 0.229-2.093 0.246-2.11 0.272-2.142 0.308-2.185 0.346-2.227 0.372-2.264 0.391-2.301 0.408-2.337 0.417-2.372 0.417-2.405 0.417-2.51 0.342-2.565 0.189-2.565-0.057-2.565-0.183-2.319-0.183-1.831-0.183-1.756-0.159-1.719-0.113-1.719-0.078-1.719-0.04-1.742 0-1.789M-0.36-0.052C-0.302-0.226-0.248-0.422-0.203-0.645-0.136-0.95-0.056-1.171 0.037-1.306L-0.434-1.306-0.602-0.672C-0.669-0.438-0.72-0.254-0.756-0.124-0.789 0.005-0.806 0.13-0.806 0.258-0.806 0.412-0.763 0.54-0.677 0.635-0.59 0.729-0.473 0.776-0.328 0.776-0.136 0.776 0.014 0.74 0.12 0.666 0.228 0.596 0.349 0.47 0.481 0.294L0.464 0.275C0.335 0.376 0.126 0.43-0.159 0.43L-0.59 0.43C-0.493 0.279-0.417 0.12-0.36-0.052" fill="#231F20" fill-rule="nonzero"/></g><g transform="matrix(4.16667 0 0 4.16667 166.706 220.471)"><path d="M0 2.382-0.355 2.382C-0.032 1.693 0.145 0.928 0.176 0.083L0.176 0C0.384 0.197 0.484 0.451 0.484 0.763L0.484 0.882 0.504 0.882C0.635 0.688 0.793 0.522 0.973 0.394 1.156 0.27 1.345 0.205 1.55 0.205 1.633 0.205 1.71 0.22 1.78 0.249 1.854 0.274 1.907 0.322 1.946 0.387 1.986 0.451 2.005 0.527 2.005 0.614 2.005 0.759 1.971 0.904 1.899 1.049 1.829 1.196 1.746 1.337 1.641 1.469 1.54 1.604 1.434 1.744 1.318 1.89L1.194 2.044 1.648 2.044C1.888 2.032 2.064 2.004 2.175 1.954L2.325 1.867 2.342 1.89C2.159 2.11 2.01 2.246 1.894 2.303 1.778 2.355 1.61 2.382 1.387 2.382L0.832 2.382C1.027 2.102 1.21 1.807 1.374 1.49 1.54 1.177 1.623 0.926 1.623 0.737 1.623 0.646 1.596 0.573 1.549 0.518 1.496 0.463 1.427 0.434 1.334 0.434 1.131 0.434 0.921 0.571 0.702 0.837 0.616 0.952 0.542 1.07 0.484 1.199 0.42 1.33 0.354 1.49 0.281 1.677L0 2.382Z" fill="#231F20" fill-rule="nonzero"/></g><g transform="matrix(4.16667 0 0 4.16667 179.592 222.78)"><path d="M0 1.511C-0.057 1.508-0.11 1.498-0.161 1.49-0.206 1.482-0.245 1.453-0.281 1.421-0.318 1.38-0.333 1.329-0.333 1.266-0.333 1.153-0.287 1.01-0.187 0.832-0.091 0.657 0 0.527 0.084 0.441 0.33 0.188 0.615 0.059 0.938 0.059 0.997 0.059 1.043 0.069 1.074 0.084 1.101 0.099 1.118 0.14 1.118 0.201 1.118 0.313 1.082 0.462 1.012 0.653 0.944 0.846 0.907 0.944 0.907 0.951 0.907 0.974 0.921 0.988 0.946 0.988 0.97 0.988 0.987 0.979 1.007 0.956 1.025 0.931 1.043 0.906 1.059 0.877 1.08 0.846 1.091 0.828 1.097 0.818 1.165 0.695 1.238 0.52 1.316 0.304 1.392 0.087 1.434-0.077 1.434-0.185 1.434-0.297 1.347-0.355 1.184-0.355 0.976-0.355 0.772-0.311 0.577-0.227 0.38-0.142 0.201-0.02 0.042 0.134-0.116 0.287-0.241 0.468-0.333 0.668-0.426 0.869-0.471 1.077-0.471 1.3-0.471 1.532-0.402 1.686-0.259 1.76-0.116 1.831 0.074 1.866 0.318 1.866L0.652 1.866C0.782 1.866 0.882 1.856 0.954 1.844 1.026 1.828 1.089 1.805 1.137 1.768 1.184 1.734 1.238 1.681 1.306 1.608 1.369 1.537 1.436 1.468 1.505 1.398L1.487 1.38C1.324 1.469 1.12 1.518 0.876 1.518L0.188 1.518C0.123 1.518 0.058 1.514 0 1.511" fill="#231F20" fill-rule="nonzero"/></g><g transform="matrix(4.16667 0 0 4.16667 189.014 225.555)"><path d="M0 0.134 0.204 0.01C0.096-0.045 0.015-0.1-0.033-0.151-0.091-0.199-0.116-0.268-0.116-0.352-0.116-0.432-0.094-0.516-0.047-0.607 0.001-0.699 0.054-0.778 0.112-0.844 0.171-0.908 0.229-0.955 0.281-0.982 0.335-1.01 0.405-1.021 0.489-1.021L0.675-1.001 1.429-0.946C1.414-0.845 1.376-0.757 1.313-0.684 1.252-0.616 1.177-0.579 1.084-0.579 1.021-0.579 0.913-0.623 0.758-0.713 0.602-0.802 0.493-0.845 0.424-0.845 0.354-0.845 0.286-0.813 0.213-0.747 0.139-0.684 0.105-0.616 0.105-0.54 0.105-0.428 0.208-0.348 0.411-0.293 0.614-0.24 0.793-0.215 0.958-0.215 0.958-0.058 0.918 0.039 0.844 0.079 0.806 0.093 0.75 0.094 0.675 0.094 0.508 0.094 0.384 0.106 0.301 0.134 0.221 0.17 0.129 0.239 0.025 0.34-0.076 0.44-0.125 0.534-0.125 0.614-0.125 0.769 0.015 0.847 0.305 0.847 0.338 0.842 0.371 0.842 0.405 0.84 0.431 0.838 0.463 0.838 0.5 0.838L0.797 0.838C0.911 0.838 1.006 0.832 1.091 0.817 1.171 0.803 1.253 0.775 1.34 0.734 1.428 0.691 1.532 0.624 1.644 0.534L1.661 0.534C1.555 0.687 1.406 0.84 1.21 0.998 1.06 1.102 0.892 1.155 0.705 1.155 0.664 1.153 0.625 1.15 0.587 1.149L0.12 1.149C-0.073 1.141-0.223 1.114-0.33 1.068-0.44 1.026-0.492 0.922-0.492 0.757-0.492 0.519-0.33 0.314 0 0.134" fill="#231F20" fill-rule="nonzero"/></g><g transform="matrix(4.16667 0 0 4.16667 208.533 231.021)"><path d="M0-2.82 0.22-2.945 0.082-2.582C0.011-2.403-0.064-2.142-0.148-1.79-0.228-1.44-0.301-1.16-0.364-0.954-0.427-0.752-0.53-0.549-0.669-0.351-0.81-0.154-1.005 0.004-1.251 0.125L-0.939-0.42C-0.849-0.62-0.755-0.925-0.658-1.334L-0.418-2.212-0.32-2.49C-0.651-2.392-0.898-2.342-1.062-2.34L-1.062-2.449C-0.696-2.49-0.344-2.613 0-2.82" fill="#231F20" fill-rule="nonzero"/></g><g transform="matrix(4.16667 0 0 4.16667 215.693 226.133)"><path d="M0 0.755C0.211 0.755 0.389 0.678 0.536 0.524 0.682 0.37 0.786 0.185 0.859-0.038 0.932-0.261 0.964-0.474 0.964-0.687 0.964-0.974 0.923-1.173 0.833-1.29 0.741-1.409 0.567-1.467 0.303-1.467 0.081-1.467-0.115-1.421-0.273-1.329-0.438-1.238-0.562-1.11-0.649-0.944-0.736-0.777-0.779-0.58-0.779-0.349-0.779-0.059-0.715 0.2-0.585 0.422-0.456 0.647-0.261 0.755 0 0.755M-0.931 2.527-0.912 2.527-0.931 2.51C-0.752 2.338-0.569 2.154-0.376 1.963-0.187 1.774-0.021 1.586 0.125 1.4 0.27 1.213 0.386 1.01 0.481 0.787L0.462 0.765C0.219 0.932-0.023 1.016-0.261 1.016-0.428 1.016-0.579 0.965-0.71 0.869-0.837 0.768-0.941 0.639-1.012 0.48-1.082 0.325-1.117 0.161-1.117-0.005-1.117-0.492-0.924-0.929-0.534-1.31-0.371-1.472-0.205-1.592-0.042-1.663 0.125-1.737 0.312-1.772 0.522-1.772 0.812-1.772 1.026-1.706 1.162-1.566 1.295-1.43 1.367-1.211 1.367-0.917 1.367-0.586 1.32-0.275 1.229 0.017 1.135 0.307 1.007 0.579 0.84 0.845 0.671 1.107 0.473 1.362 0.245 1.612-0.146 2.037-0.536 2.338-0.931 2.51L-0.931 2.527Z" fill="#231F20" fill-rule="nonzero"/></g><g transform="matrix(4.16667 0 0 4.16667 223.63 225.989)"><path d="M0 0.194 0.134-0.147C0.346-0.786 0.521-1.213 0.663-1.443 0.735-1.55 0.824-1.622 0.928-1.657 1.028-1.69 1.159-1.707 1.321-1.707L2.587-1.707C2.501-1.562 2.411-1.466 2.315-1.421 2.218-1.377 2.087-1.353 1.925-1.353L1.221-1.353C1.074-1.353 0.97-1.349 0.918-1.341 0.864-1.328 0.82-1.303 0.786-1.264 0.751-1.222 0.708-1.137 0.645-1.011L0.497-0.653 0.393-0.398 0.416-0.383C0.709-0.692 1.023-0.848 1.358-0.848 1.617-0.848 1.833-0.782 2.007-0.642 2.182-0.505 2.269-0.308 2.269-0.055 2.269 0.107 2.232 0.273 2.16 0.448 2.087 0.619 1.993 0.783 1.88 0.939 1.768 1.091 1.648 1.223 1.526 1.327 1.117 1.708 0.6 1.901-0.027 1.901L-0.425 1.88C-0.237 1.699-0.094 1.584 0.012 1.536L0.312 1.547C0.443 1.547 0.543 1.552 0.614 1.556 0.864 1.556 1.06 1.504 1.192 1.397 1.306 1.305 1.417 1.178 1.522 1.018 1.626 0.857 1.711 0.683 1.778 0.504 1.836 0.325 1.867 0.164 1.867 0.021 1.867-0.174 1.811-0.336 1.699-0.467 1.586-0.601 1.434-0.665 1.244-0.665 1.063-0.665 0.886-0.591 0.698-0.442 0.514-0.296 0.331-0.121 0.151 0.083L0.009 0.232 0 0.194Z" fill="#231F20" fill-rule="nonzero"/></g><g transform="matrix(4.16667 0 0 4.16667 240.522 226.133)"><path d="M0 0.755C0.214 0.755 0.391 0.678 0.536 0.524 0.68 0.37 0.789 0.185 0.859-0.038 0.931-0.261 0.967-0.474 0.967-0.687 0.967-0.974 0.925-1.173 0.835-1.29 0.744-1.409 0.568-1.467 0.305-1.467 0.082-1.467-0.114-1.421-0.272-1.329-0.435-1.238-0.562-1.11-0.646-0.944-0.735-0.777-0.778-0.58-0.778-0.349-0.778-0.059-0.714 0.2-0.584 0.422-0.454 0.647-0.26 0.755 0 0.755M-0.931 2.527-0.913 2.527-0.931 2.51C-0.75 2.338-0.564 2.154-0.376 1.963-0.185 1.774-0.02 1.586 0.125 1.4 0.27 1.213 0.389 1.01 0.484 0.787L0.463 0.765C0.219 0.932-0.021 1.016-0.26 1.016-0.43 1.016-0.578 0.965-0.708 0.869-0.836 0.768-0.94 0.639-1.012 0.48-1.082 0.325-1.117 0.161-1.117-0.005-1.117-0.492-0.923-0.929-0.532-1.31-0.373-1.472-0.206-1.592-0.039-1.663 0.125-1.737 0.313-1.772 0.525-1.772 0.815-1.772 1.026-1.706 1.164-1.566 1.297-1.43 1.367-1.211 1.367-0.917 1.367-0.586 1.32-0.275 1.23 0.017 1.136 0.307 1.007 0.579 0.839 0.845 0.671 1.107 0.474 1.362 0.247 1.612-0.143 2.037-0.535 2.338-0.931 2.51L-0.931 2.527Z" fill="#231F20" fill-rule="nonzero"/></g></svg>