<svg width="613.01" height="228.085" viewBox="0 0 162.192 60.3474" xmlns="http://www.w3.org/2000/svg" xmlns:xlink="http://www.w3.org/1999/xlink" id="svg959" overflow="hidden"><defs id="defs956"><clipPath id="clipPath1500"><path d="M0 238 595.276 238 595.276 0 0 0Z" id="path1498"/></clipPath></defs><g id="layer1" transform="translate(11.0313 -127.936)"><g id="g1464" transform="matrix(0.352778 0 0 -0.352778 -34.9352 198.101)"><path d="M345.772 184.599 402.342 184.599 402.342 197.209 345.772 197.209Z" id="path1466" fill="#00316C"/><g id="g1468" transform="translate(67.7593 197.207)"><path d="M0 0 13.675 0 13.675-26.089 38.896 0 55.415 0 30.105-26.375 56.568-62.165 40.141-62.165 20.87-35.7 13.675-43.16 13.675-62.165 0-62.165Z" id="path1470" fill="#00316C"/></g><g id="g1472" transform="translate(213.441 197.207)"><path d="M0 0 12.609 0 41.562-38.275 41.562 0 55.237 0 55.237-62.165 43.604-62.165 13.707-22.646 13.707-62.165 0-62.165Z" id="path1474" fill="#00316C"/></g><g id="g1476" transform="translate(297.604 184.599)"><path d="M0 0-21.446 0-21.446 12.61 35.122 12.61 35.122 0 13.675 0 13.675-49.554 0-49.554Z" id="path1478" fill="#00316C"/></g><g id="g1480" transform="translate(471.295 197.209)"><path d="M0 0 13.675 0 13.675-24.599 42.547-24.599 42.547 0 56.222 0 56.222-62.164 42.547-62.164 42.547-37.21 13.675-37.21 13.675-62.164 0-62.164Z" id="path1482" fill="#00316C"/></g><path d="M326.51 135.045 383.079 135.045 383.079 147.655 326.51 147.655Z" id="path1484" fill="#00B9EF"/><path d="M336.141 159.822 392.71 159.822 392.71 172.432 336.141 172.432Z" id="path1486" fill="#007BC7"/><path d="M130.077 147.653 186.647 147.653 186.647 135.042 130.077 135.042Z" id="path1488" fill="#00316C"/><path d="M139.709 172.43 196.278 172.43 196.278 159.82 139.709 159.82Z" id="path1490" fill="#007BC7"/><path d="M149.339 197.207 205.908 197.207 205.908 184.597 149.339 184.597Z" id="path1492" fill="#00B9EF"/><g id="g1494"><g id="g1496" clip-path="url(#clipPath1500)"><g id="g1502" transform="translate(462.842 145)"><path d="M0 0-8.549 8.636C-13.528 4.109-17.963 1.213-25.204 1.213-36.066 1.213-43.578 10.265-43.578 21.127L-43.578 21.308C-43.578 32.17-35.885 41.041-25.204 41.041-18.868 41.041-13.889 38.325-9.001 33.89L-0.895 43.238C-5.933 48.78-15.366 53.894-25.115 53.894-29.572 53.894-33.701 53.088-37.448 51.678-49.575 46.824-58.152 34.987-58.152 21.127-58.152 5.409-47.128-7.715-32.396-10.988-30.235-11.416-27.983-11.641-25.655-11.641-22.837-11.641-20.295-11.399-17.953-10.958-10.811-9.344-4.546-5.424 0 0" id="path1504" fill="#00316C"/></g><path d="M147.748 82.399 153.874 82.399 153.874 65.692 147.748 65.692Z" id="path1506" fill="#00316C"/><g id="g1508" transform="translate(133.786 82.2178)"><path d="M0 0 0 7.246 6.125 7.246 6.125 0" id="path1510" fill="#00316C"/></g><path d="M147.748 109.751 153.874 109.751 153.874 96.175 147.748 96.175Z" id="path1512" fill="#00316C"/><path d="M153.874 104.657 119.823 104.657 119.823 109.751 153.874 109.751Z" id="path1514" fill="#00316C"/><path d="M153.874 77.307 119.341 77.307 119.341 82.4 153.874 82.4Z" id="path1516" fill="#00316C"/><path d="M157.32 88.355 116.377 88.355 116.377 93.449 157.32 93.449Z" id="path1518" fill="#00316C"/><path d="M394.293 109.751 400.419 109.751 400.419 78.051 394.293 78.051Z" id="path1520" fill="#00316C"/><path d="M394.293 109.751 413.225 109.751 413.225 104.657 394.293 104.657Z" id="path1522" fill="#00316C"/><path d="M394.293 81.382 417.876 81.382 417.876 76.288 394.293 76.288Z" id="path1524" fill="#00316C"/><path d="M417.033 110.926 422.528 110.926 422.528 65.696 417.033 65.696Z" id="path1526" fill="#00316C"/><path d="M426.251 110.926 431.746 110.926 431.746 65.696 426.251 65.696Z" id="path1528" fill="#00316C"/><path d="M428.941 91.793 420.141 91.793 420.141 96.887 428.941 96.887Z" id="path1530" fill="#00316C"/><path d="M354.826 93.449 360.952 93.449 360.952 78.051 354.826 78.051Z" id="path1532" fill="#00316C"/><path d="M366.957 109.751 373.083 109.751 373.083 80.859 366.957 80.859Z" id="path1534" fill="#00316C"/><path d="M373.083 104.657 347.01 104.657 347.01 109.751 373.083 109.751Z" id="path1536" fill="#00316C"/><path d="M381.587 72.942 345.32 72.942 345.32 78.036 381.587 78.036Z" id="path1538" fill="#00316C"/><path d="M377.977 110.926 384.103 110.926 384.103 65.696 377.977 65.696Z" id="path1540" fill="#00316C"/><path d="M390.253 91.793 379.937 91.793 379.937 96.887 390.253 96.887Z" id="path1542" fill="#00316C"/><path d="M243.096 110.926 249.222 110.926 249.222 65.696 243.096 65.696Z" id="path1544" fill="#00316C"/><path d="M212.785 109.751 218.911 109.751 218.911 78.976 212.785 78.976Z" id="path1546" fill="#00316C"/><path d="M245.954 95.234 231.028 95.234 231.028 100.328 245.954 100.328Z" id="path1548" fill="#00316C"/><path d="M239.254 78.976 212.784 78.976 212.784 84.07 239.254 84.07Z" id="path1550" fill="#00316C"/><path d="M100.321 110.926 106.447 110.926 106.447 79.372 100.321 79.372Z" id="path1552" fill="#00316C"/><path d="M78.878 115.255 85.004 115.255 85.004 105.338 78.878 105.338Z" id="path1554" fill="#00316C"/><path d="M75.725 80.832 81.85 80.832 81.85 66.152 75.725 66.152Z" id="path1556" fill="#00316C"/><path d="M107.722 66.152 75.725 66.152 75.725 71.246 107.722 71.246Z" id="path1558" fill="#00316C"/><path d="M113.49 95.234 105.918 95.234 105.918 100.328 113.49 100.328Z" id="path1560" fill="#00316C"/><path d="M96.007 104.44 67.876 104.44 67.876 109.534 96.007 109.534Z" id="path1562" fill="#00316C"/><g id="g1564" transform="translate(81.9419 108.799)"><path d="M0 0C-6.578 0-12.22-4.852-12.22-11.416-12.22-17.979-6.578-22.831 0-22.831 6.577-22.831 12.219-17.979 12.219-11.416 12.219-4.852 6.577 0 0 0M0-4.953C3.563-4.953 6.463-7.853 6.463-11.416 6.463-14.979 3.563-17.878 0-17.878-3.564-17.878-6.464-14.979-6.464-11.416-6.464-7.853-3.564-4.953 0-4.953" id="path1566" fill="#00316C"/></g><path d="M449.681 115.255 455.806 115.255 455.806 105.338 449.681 105.338Z" id="path1568" fill="#00316C"/><path d="M466.809 104.44 438.678 104.44 438.678 109.534 466.809 109.534Z" id="path1570" fill="#00316C"/><g id="g1572" transform="translate(452.744 108.799)"><path d="M0 0C-6.577 0-12.219-4.852-12.219-11.416-12.219-17.979-6.577-22.831 0-22.831 6.578-22.831 12.219-17.979 12.219-11.416 12.219-4.852 6.578 0 0 0M0-4.953C3.563-4.953 6.463-7.853 6.463-11.416 6.463-14.979 3.563-17.878 0-17.878-3.563-17.878-6.463-14.979-6.463-11.416-6.463-7.853-3.563-4.953 0-4.953" id="path1574" fill="#00316C"/></g><path d="M190.633 110.926 196.128 110.926 196.128 65.696 190.633 65.696Z" id="path1576" fill="#00316C"/><path d="M199.852 110.926 205.347 110.926 205.347 65.696 199.852 65.696Z" id="path1578" fill="#00316C"/><path d="M193.279 95.234 184.479 95.234 184.479 100.328 193.279 100.328Z" id="path1580" fill="#00316C"/><path d="M288.587 110.926 294.713 110.926 294.713 65.696 288.587 65.696Z" id="path1582" fill="#00316C"/><path d="M283.895 104.657 257.311 104.657 257.311 109.751 283.895 109.751Z" id="path1584" fill="#00316C"/><g id="g1586" transform="translate(279.408 76.4629)"><path d="M0 0-11.942 28.731-5.747 28.731 5.372 1.999Z" id="path1588" fill="#00316C"/></g><g id="g1590" transform="translate(256.426 78.4619)"><path d="M0 0 11.519 26.732 17.714 26.732 5.348-1.999Z" id="path1592" fill="#00316C"/></g><path d="M483.786 95.234 476.214 95.234 476.214 100.328 483.786 100.328Z" id="path1594" fill="#00316C"/><path d="M470.617 110.926 476.743 110.926 476.743 84.582 470.617 84.582Z" id="path1596" fill="#00316C"/><path d="M471.025 81.382 477.151 81.382 477.151 65.693 471.025 65.693Z" id="path1598" fill="#00316C"/><path d="M477.151 76.288 445.153 76.288 445.153 81.382 477.151 81.382Z" id="path1600" fill="#00316C"/><path d="M318.101 96.651 324.227 96.651 324.227 87.859 318.101 87.859Z" id="path1602" fill="#00316C"/><path d="M342.485 85.561 301.541 85.561 301.541 90.655 342.485 90.655Z" id="path1604" fill="#00316C"/><path d="M332.912 109.751 339.038 109.751 339.038 93.685 332.912 93.685Z" id="path1606" fill="#00316C"/><path d="M339.038 104.657 304.988 104.657 304.988 109.751 339.038 109.751Z" id="path1608" fill="#00316C"/><path d="M526.245 70.032 485.301 70.032 485.301 75.126 526.245 75.126Z" id="path1610" fill="#00316C"/><path d="M505.322 92.576 511.448 92.576 511.448 74.373 505.322 74.373Z" id="path1612" fill="#00316C"/><path d="M492.918 92.576 499.044 92.576 499.044 74.373 492.918 74.373Z" id="path1614" fill="#00316C"/><path d="M516.672 109.751 522.797 109.751 522.797 77.935 516.672 77.935Z" id="path1616" fill="#00316C"/><path d="M522.797 104.657 488.747 104.657 488.747 109.751 522.797 109.751Z" id="path1618" fill="#00316C"/><g id="g1620" transform="translate(173.59 105.355)"><path d="M0 0C-3.878 0-7.021-3.391-7.021-7.573-7.021-11.756-3.878-15.146 0-15.146 3.878-15.146 7.021-11.756 7.021-7.573 7.021-3.391 3.878 0 0 0M13.011-7.573C13.011-14.759 7.186-20.584 0-20.584-7.186-20.584-13.011-14.759-13.011-7.573-13.011-0.388-7.186 5.437 0 5.437 7.186 5.437 13.011-0.388 13.011-7.573" id="path1622" fill="#00316C"/></g><g id="g1624" transform="translate(334.458 75.4316)"><path d="M0 0C0-6.873-5.572-12.444-12.444-12.444-19.317-12.444-24.89-6.873-24.89 0-24.89 6.873-19.317 12.444-12.444 12.444-5.572 12.444 0 6.873 0 0" id="path1626" fill="#00316C"/></g><g id="g1628" transform="translate(322.013 82.5137)"><path d="M0 0C-3.627 0-6.566-3.171-6.566-7.082-6.566-10.993-3.627-14.164 0-14.164 3.626-14.164 6.565-10.993 6.565-7.082 6.565-3.171 3.626 0 0 0" id="path1630" fill="#FFFFFF"/></g><g id="g1632" transform="translate(79.1451 42.4229)"><path d="M0 0-2.331-2.423-2.331-8.868-4.847-8.868-4.847 10.205-2.331 10.205-2.331 0.772 6.145 10.205 9.183 10.205 1.678 1.782 9.771-8.868 6.76-8.868Z" id="path1634" fill="#00316C"/></g><g id="g1636" transform="translate(91.5943 40.4844)"><path d="M0 0C0-1.572 0.363-2.835 1.094-3.786 1.822-4.737 2.798-5.214 4.021-5.214 5.252-5.214 6.23-4.731 6.955-3.766 7.68-2.802 8.042-1.45 8.042 0.288 8.042 1.842 7.673 3.102 6.935 4.067 6.198 5.032 5.217 5.515 3.994 5.515 2.798 5.515 1.832 5.039 1.1 4.086 0.365 3.135 0 1.772 0 0M-2.438 0.288C-2.438 1.677-2.165 2.926-1.619 4.034-1.073 5.144-0.314 6 0.66 6.602 1.635 7.204 2.745 7.506 3.994 7.506 5.925 7.506 7.484 6.838 8.679 5.501 9.87 4.165 10.465 2.388 10.465 0.17L10.465 0C10.465-1.38 10.201-2.618 9.674-3.714 9.144-4.811 8.389-5.664 7.406-6.275 6.424-6.887 5.295-7.191 4.021-7.191 2.099-7.191 0.544-6.523-0.648-5.187-1.841-3.852-2.438-2.083-2.438 0.117Z" id="path1638" fill="#00316C"/></g><g id="g1640" transform="translate(112.433 45.5537)"><path d="M0 0C-0.367 0.061-0.764 0.091-1.192 0.091-2.782 0.091-3.859-0.586-4.428-1.938L-4.428-11.999-6.851-11.999-6.851 2.175-4.493 2.175-4.454 0.536C-3.658 1.804-2.532 2.437-1.073 2.437-0.604 2.437-0.244 2.375 -8.88178e-16 2.253Z" id="path1642" fill="#00316C"/></g><g id="g1644" transform="translate(120.475 45.999)"><path d="M0 0C-0.979 0-1.799-0.356-2.464-1.068-3.126-1.78-3.537-2.777-3.694-4.061L3.406-4.061 3.406-3.878C3.336-2.646 3.004-1.691 2.411-1.016 1.816-0.339 1.014 0 0 0M0.302-12.706C-1.62-12.706-3.184-12.075-4.389-10.813-5.595-9.552-6.196-7.864-6.196-5.751L-6.196-5.306C-6.196-3.899-5.927-2.644-5.392-1.539-4.854-0.434-4.104 0.43-3.137 1.055-2.173 1.68-1.126 1.991 4.44089e-16 1.991 1.843 1.991 3.274 1.384 4.297 0.17 5.318-1.043 5.829-2.781 5.829-5.043L5.829-6.052-3.772-6.052C-3.737-7.45-3.329-8.578-2.548-9.438-1.767-10.299-0.773-10.729 0.431-10.729 1.289-10.729 2.013-10.554 2.605-10.204 3.201-9.855 3.72-9.393 4.165-8.816L5.646-9.969C4.458-11.794 2.676-12.706 0.302-12.706" id="path1646" fill="#00316C"/></g><g id="g1648" transform="translate(134.32 35.4023)"><path d="M0 0C0.759 0 1.479 0.195 2.16 0.589 2.842 0.981 3.336 1.492 3.642 2.121L3.642 5.029 1.742 5.029C-1.227 5.029-2.712 4.16-2.712 2.423-2.712 1.662-2.458 1.068-1.953 0.641-1.446 0.213-0.796 0 0 0M4.021-1.848C3.882-1.568 3.768-1.07 3.681-0.354 2.555-1.524 1.209-2.109-0.354-2.109-1.752-2.109-2.896-1.715-3.793-0.925-4.687-0.134-5.135 0.867-5.135 2.082-5.135 3.558-4.575 4.704-3.453 5.521-2.33 6.337-0.751 6.745 1.282 6.745L3.642 6.745 3.642 7.858C3.642 8.706 3.388 9.381 2.881 9.883 2.376 10.385 1.629 10.636 0.643 10.636-0.224 10.636-0.947 10.418-1.532 9.981-2.117 9.544-2.41 9.016-2.41 8.396L-4.848 8.396C-4.848 9.103-4.596 9.786-4.093 10.446-3.593 11.105-2.911 11.628-2.05 12.012-1.189 12.396-0.244 12.588 0.786 12.588 2.419 12.588 3.697 12.18 4.625 11.363 5.55 10.546 6.03 9.422 6.064 7.99L6.064 1.467C6.064 0.165 6.231-0.87 6.563-1.639L6.563-1.848Z" id="path1650" fill="#00316C"/></g><path d="M154.868 33.555 152.352 33.555 152.352 52.628 154.868 52.628Z" id="path1652" fill="#00316C"/><g id="g1654" transform="translate(161.862 47.7285)"><path d="M0 0 0.08-1.782C1.161-0.42 2.576 0.262 4.322 0.262 7.318 0.262 8.83-1.428 8.854-4.809L8.854-14.174 6.432-14.174 6.432-4.795C6.424-3.773 6.189-3.018 5.732-2.528 5.272-2.039 4.559-1.795 3.59-1.795 2.805-1.795 2.113-2.005 1.521-2.424 0.925-2.843 0.464-3.394 0.131-4.075L0.131-14.174-2.292-14.174-2.292 0Z" id="path1656" fill="#00316C"/></g><g id="g1658" transform="translate(183.107 37.3145)"><path d="M0 0C0 0.654-0.246 1.163-0.739 1.526-1.233 1.889-2.093 2.2-3.32 2.463-4.547 2.725-5.521 3.038-6.241 3.405-6.962 3.772-7.495 4.209-7.84 4.716-8.185 5.223-8.356 5.824-8.356 6.522-8.356 7.685-7.866 8.667-6.884 9.471-5.901 10.273-4.646 10.676-3.117 10.676-1.511 10.676-0.208 10.261 0.794 9.432 1.793 8.602 2.293 7.541 2.293 6.248L-0.145 6.248C-0.145 6.912-0.425 7.483-0.989 7.964-1.552 8.444-2.262 8.685-3.117 8.685-3.999 8.685-4.688 8.492-5.187 8.107-5.686 7.725-5.934 7.222-5.934 6.602-5.934 6.017-5.702 5.575-5.24 5.278-4.776 4.982-3.941 4.698-2.731 4.428-1.521 4.156-0.542 3.833 0.209 3.458 0.96 3.082 1.518 2.63 1.881 2.102 2.242 1.573 2.423 0.93 2.423 0.17 2.423-1.097 1.918-2.111 0.904-2.876-0.109-3.64-1.425-4.021-3.039-4.021-4.174-4.021-5.179-3.82-6.051-3.419-6.925-3.019-7.608-2.456-8.103-1.736-8.595-1.016-8.841-0.236-8.841 0.602L-6.418 0.602C-6.375-0.21-6.049-0.854-5.443-1.33-4.836-1.806-4.034-2.044-3.039-2.044-2.122-2.044-1.388-1.858-0.831-1.486-0.277-1.116 0-0.621 0 0" id="path1660" fill="#00316C"/></g><g id="g1662" transform="translate(192.458 51.1602)"><path d="M0 0 0-3.432 2.647-3.432 2.647-5.305 0-5.305 0-14.106C0-14.675 0.119-15.101 0.355-15.385 0.592-15.669 0.993-15.812 1.56-15.812 1.839-15.812 2.225-15.758 2.713-15.653L2.713-17.607C2.075-17.781 1.455-17.867 0.852-17.867-0.229-17.867-1.046-17.54-1.596-16.886-2.147-16.229-2.423-15.301-2.423-14.096L-2.423-5.305-5.004-5.305-5.004-3.432-2.423-3.432-2.423 0Z" id="path1664" fill="#00316C"/></g><path d="M201.05 33.555 198.627 33.555 198.627 47.729 201.05 47.729ZM198.43 51.488C198.43 51.881 198.551 52.212 198.792 52.483 199.032 52.754 199.386 52.89 199.858 52.89 200.331 52.89 200.689 52.754 200.933 52.483 201.177 52.212 201.3 51.881 201.3 51.488 201.3 51.094 201.177 50.767 200.933 50.506 200.689 50.243 200.331 50.112 199.858 50.112 199.386 50.112 199.032 50.243 198.792 50.506 198.551 50.767 198.43 51.094 198.43 51.488" id="path1666" fill="#00316C"/><g id="g1668" transform="translate(208.697 51.1602)"><path d="M0 0 0-3.432 2.646-3.432 2.646-5.305 0-5.305 0-14.106C0-14.675 0.119-15.101 0.355-15.385 0.591-15.669 0.993-15.812 1.56-15.812 1.839-15.812 2.224-15.758 2.713-15.653L2.713-17.607C2.074-17.781 1.455-17.867 0.852-17.867-0.229-17.867-1.046-17.54-1.596-16.886-2.147-16.229-2.423-15.301-2.423-14.096L-2.423-5.305-5.004-5.305-5.004-3.432-2.423-3.432-2.423 0Z" id="path1670" fill="#00316C"/></g><g id="g1672" transform="translate(223.408 34.9561)"><path d="M0 0C-0.944-1.109-2.327-1.663-4.153-1.663-5.665-1.663-6.813-1.225-7.604-0.347-8.396 0.531-8.794 1.83-8.804 3.55L-8.804 12.772-6.379 12.772-6.379 3.616C-6.379 1.468-5.507 0.393-3.761 0.393-1.908 0.393-0.678 1.083-0.066 2.463L-0.066 12.772 2.357 12.772 2.357-1.401 0.051-1.401Z" id="path1674" fill="#00316C"/></g><g id="g1676" transform="translate(233.216 51.1602)"><path d="M0 0 0-3.432 2.646-3.432 2.646-5.305 0-5.305 0-14.106C0-14.675 0.119-15.101 0.355-15.385 0.591-15.669 0.993-15.812 1.56-15.812 1.838-15.812 2.224-15.758 2.713-15.653L2.713-17.607C2.074-17.781 1.455-17.867 0.852-17.867-0.229-17.867-1.046-17.54-1.596-16.886-2.147-16.229-2.423-15.301-2.423-14.096L-2.423-5.305-5.004-5.305-5.004-3.432-2.423-3.432-2.423 0Z" id="path1678" fill="#00316C"/></g><g id="g1680" transform="translate(244.219 45.999)"><path d="M0 0C-0.979 0-1.799-0.356-2.464-1.068-3.127-1.78-3.537-2.777-3.694-4.061L3.406-4.061 3.406-3.878C3.336-2.646 3.004-1.691 2.411-1.016 1.816-0.339 1.014 0 0 0M0.302-12.706C-1.62-12.706-3.184-12.075-4.389-10.813-5.595-9.552-6.196-7.864-6.196-5.751L-6.196-5.306C-6.196-3.899-5.927-2.644-5.392-1.539-4.854-0.434-4.104 0.43-3.137 1.055-2.173 1.68-1.126 1.991 4.44089e-16 1.991 1.843 1.991 3.274 1.384 4.297 0.17 5.318-1.043 5.829-2.781 5.829-5.043L5.829-6.052-3.772-6.052C-3.738-7.45-3.329-8.578-2.548-9.438-1.767-10.299-0.773-10.729 0.431-10.729 1.289-10.729 2.013-10.554 2.605-10.204 3.201-9.855 3.72-9.393 4.165-8.816L5.646-9.969C4.458-11.794 2.676-12.706 0.302-12.706" id="path1682" fill="#00316C"/></g><g id="g1684" transform="translate(262.253 40.4844)"><path d="M0 0C0-1.572 0.363-2.835 1.094-3.786 1.822-4.737 2.799-5.214 4.021-5.214 5.252-5.214 6.23-4.731 6.955-3.766 7.68-2.802 8.043-1.45 8.043 0.288 8.043 1.842 7.674 3.102 6.935 4.067 6.198 5.032 5.218 5.515 3.995 5.515 2.799 5.515 1.832 5.039 1.1 4.086 0.365 3.135 0 1.772 0 0M-2.438 0.288C-2.438 1.677-2.164 2.926-1.618 4.034-1.072 5.144-0.313 6 0.661 6.602 1.636 7.204 2.745 7.506 3.995 7.506 5.926 7.506 7.484 6.838 8.679 5.501 9.871 4.165 10.466 2.388 10.466 0.17L10.466 0C10.466-1.38 10.201-2.618 9.674-3.714 9.145-4.811 8.39-5.664 7.406-6.275 6.424-6.887 5.296-7.191 4.021-7.191 2.1-7.191 0.544-6.523-0.648-5.187-1.84-3.852-2.438-2.083-2.438 0.117Z" id="path1686" fill="#00316C"/></g><g id="g1688" transform="translate(276.361 33.5547)"><path d="M0 0 0 12.301-2.24 12.301-2.24 14.174 0 14.174 0 15.627C0 17.146 0.406 18.321 1.219 19.151 2.031 19.98 3.178 20.396 4.663 20.396 5.222 20.396 5.777 20.321 6.327 20.175L6.196 18.221C5.786 18.3 5.349 18.339 4.885 18.339 4.1 18.339 3.492 18.108 3.065 17.649 2.637 17.188 2.423 16.53 2.423 15.672L2.423 14.174 5.449 14.174 5.449 12.301 2.423 12.301 2.423 0Z" id="path1690" fill="#00316C"/></g><g id="g1692" transform="translate(303.25 42.3701)"><path d="M0 0-8.266 0-8.266-6.759 1.336-6.759 1.336-8.815-10.781-8.815-10.781 10.258 1.205 10.258 1.205 8.201-8.266 8.201-8.266 2.058 0 2.058Z" id="path1694" fill="#00316C"/></g><g id="g1696" transform="translate(310.113 47.7285)"><path d="M0 0 0.08-1.782C1.161-0.42 2.577 0.262 4.323 0.262 7.318 0.262 8.83-1.428 8.854-4.809L8.854-14.174 6.432-14.174 6.432-4.795C6.424-3.773 6.189-3.018 5.732-2.528 5.272-2.039 4.559-1.795 3.591-1.795 2.805-1.795 2.113-2.005 1.521-2.424 0.925-2.843 0.464-3.394 0.131-4.075L0.131-14.174-2.292-14.174-2.292 0Z" id="path1698" fill="#00316C"/></g><g id="g1700" transform="translate(328.686 45.999)"><path d="M0 0C-0.979 0-1.799-0.356-2.464-1.068-3.126-1.78-3.537-2.777-3.694-4.061L3.406-4.061 3.406-3.878C3.337-2.646 3.004-1.691 2.411-1.016 1.816-0.339 1.014 0 0 0M0.302-12.706C-1.62-12.706-3.184-12.075-4.388-10.813-5.595-9.552-6.195-7.864-6.195-5.751L-6.195-5.306C-6.195-3.899-5.927-2.644-5.392-1.539-4.854-0.434-4.103 0.43-3.137 1.055-2.173 1.68-1.126 1.991 -4.44089e-16 1.991 1.843 1.991 3.275 1.384 4.297 0.17 5.318-1.043 5.829-2.781 5.829-5.043L5.829-6.052-3.772-6.052C-3.737-7.45-3.329-8.578-2.548-9.438-1.766-10.299-0.772-10.729 0.432-10.729 1.289-10.729 2.013-10.554 2.606-10.204 3.201-9.855 3.72-9.393 4.165-8.816L5.646-9.969C4.459-11.794 2.676-12.706 0.302-12.706" id="path1702" fill="#00316C"/></g><g id="g1704" transform="translate(344.653 45.5537)"><path d="M0 0C-0.367 0.061-0.764 0.091-1.192 0.091-2.782 0.091-3.859-0.586-4.428-1.938L-4.428-11.999-6.851-11.999-6.851 2.175-4.493 2.175-4.454 0.536C-3.658 1.804-2.532 2.437-1.073 2.437-0.604 2.437-0.244 2.375 -8.88178e-16 2.253Z" id="path1706" fill="#00316C"/></g><g id="g1708" transform="translate(348.973 40.4844)"><path d="M0 0C0-1.599 0.326-2.854 0.981-3.766 1.638-4.679 2.555-5.136 3.732-5.136 5.261-5.136 6.383-4.441 7.1-3.052L7.1 3.419C6.356 4.771 5.244 5.449 3.759 5.449 2.579 5.449 1.658 4.99 0.995 4.073 0.33 3.157 0 1.799 0 0M-2.438 0.274C-2.438 2.484-1.927 4.241-0.904 5.548 0.117 6.854 1.472 7.506 3.155 7.506 4.886 7.506 6.235 6.895 7.204 5.671L7.322 7.244 9.536 7.244 9.536-6.589C9.536-8.424 8.992-9.869 7.905-10.926 6.818-11.982 5.357-12.511 3.522-12.511 2.501-12.511 1.502-12.292 0.523-11.854-0.455-11.419-1.202-10.821-1.717-10.061L-0.459-8.607C0.581-9.891 1.851-10.532 3.353-10.532 4.532-10.532 5.451-10.2 6.11-9.536 6.769-8.873 7.1-7.938 7.1-6.733L7.1-5.516C6.131-6.634 4.808-7.191 3.129-7.191 1.472-7.191 0.127-6.523-0.898-5.187-1.924-3.852-2.438-2.03-2.438 0.274" id="path1710" fill="#00316C"/></g><g id="g1712" transform="translate(367.82 37.1045)"><path d="M0 0 3.302 10.624 5.895 10.624 0.197-5.738C-0.686-8.096-2.087-9.274-4.009-9.274L-4.467-9.235-5.371-9.064-5.371-7.101-4.715-7.152C-3.894-7.152-3.256-6.986-2.796-6.654-2.339-6.323-1.961-5.716-1.664-4.833L-1.126-3.393-6.184 10.624-3.537 10.624Z" id="path1714" fill="#00316C"/></g><g id="g1716" transform="translate(396.519 50.5713)"><path d="M0 0-6.131 0-6.131-17.017-8.632-17.017-8.632 0-14.75 0-14.75 2.057 0 2.057Z" id="path1718" fill="#00316C"/></g><g id="g1720" transform="translate(401.598 45.999)"><path d="M0 0C-0.979 0-1.799-0.356-2.464-1.068-3.126-1.78-3.537-2.777-3.694-4.061L3.406-4.061 3.406-3.878C3.336-2.646 3.004-1.691 2.411-1.016 1.816-0.339 1.014 0 0 0M0.302-12.706C-1.62-12.706-3.184-12.075-4.388-10.813-5.595-9.552-6.195-7.864-6.195-5.751L-6.195-5.306C-6.195-3.899-5.927-2.644-5.392-1.539-4.854-0.434-4.103 0.43-3.137 1.055-2.173 1.68-1.126 1.991 -4.44089e-16 1.991 1.843 1.991 3.275 1.384 4.297 0.17 5.318-1.043 5.829-2.781 5.829-5.043L5.829-6.052-3.772-6.052C-3.737-7.45-3.329-8.578-2.548-9.438-1.766-10.299-0.773-10.729 0.432-10.729 1.289-10.729 2.013-10.554 2.605-10.204 3.201-9.855 3.72-9.393 4.165-8.816L5.646-9.969C4.459-11.794 2.676-12.706 0.302-12.706" id="path1722" fill="#00316C"/></g><g id="g1724" transform="translate(416.935 35.2705)"><path d="M0 0C0.863 0 1.618 0.262 2.265 0.786 2.911 1.311 3.27 1.965 3.34 2.751L5.632 2.751C5.589 1.939 5.31 1.166 4.794 0.433 4.279-0.302 3.59-0.886 2.73-1.323 1.871-1.759 0.96-1.978 0-1.978-1.931-1.978-3.466-1.335-4.604-0.046-5.745 1.242-6.315 3.004-6.315 5.24L-6.315 5.646C-6.315 7.026-6.061 8.253-5.555 9.327-5.047 10.401-4.321 11.235-3.373 11.829-2.426 12.423-1.308 12.72-0.015 12.72 1.575 12.72 2.896 12.243 3.949 11.292 5.002 10.34 5.562 9.104 5.632 7.584L3.34 7.584C3.27 8.501 2.923 9.256 2.298 9.844 1.674 10.434 0.902 10.729-0.015 10.729-1.246 10.729-2.2 10.285-2.877 9.398-3.554 8.513-3.891 7.231-3.891 5.554L-3.891 5.096C-3.891 3.462-3.556 2.205-2.883 1.323-2.21 0.441-1.25 0 0 0" id="path1726" fill="#00316C"/></g><g id="g1728" transform="translate(428.199 46.0127)"><path d="M0 0C1.075 1.317 2.472 1.978 4.191 1.978 7.187 1.978 8.699 0.288 8.724-3.093L8.724-12.458 6.301-12.458 6.301-3.079C6.292-2.058 6.059-1.302 5.601-0.812 5.142-0.323 4.427-0.079 3.459-0.079 2.673-0.079 1.981-0.289 1.389-0.708 0.794-1.127 0.332-1.678 0-2.359L0-12.458-2.424-12.458-2.424 7.662 0 7.662Z" id="path1730" fill="#00316C"/></g><g id="g1732" transform="translate(444.399 47.7285)"><path d="M0 0 0.079-1.782C1.16-0.42 2.576 0.262 4.322 0.262 7.317 0.262 8.83-1.428 8.854-4.809L8.854-14.174 6.432-14.174 6.432-4.795C6.423-3.773 6.189-3.018 5.731-2.528 5.272-2.039 4.559-1.795 3.59-1.795 2.804-1.795 2.112-2.005 1.52-2.424 0.925-2.843 0.463-3.394 0.131-4.075L0.131-14.174-2.292-14.174-2.292 0Z" id="path1734" fill="#00316C"/></g><g id="g1736" transform="translate(459.187 40.4844)"><path d="M0 0C0-1.572 0.363-2.835 1.093-3.786 1.821-4.737 2.798-5.214 4.021-5.214 5.252-5.214 6.23-4.731 6.955-3.766 7.679-2.802 8.042-1.45 8.042 0.288 8.042 1.842 7.673 3.102 6.935 4.067 6.198 5.032 5.217 5.515 3.994 5.515 2.798 5.515 1.832 5.039 1.1 4.086 0.365 3.135 0 1.772 0 0M-2.438 0.288C-2.438 1.677-2.165 2.926-1.619 4.034-1.073 5.144-0.314 6 0.66 6.602 1.635 7.204 2.745 7.506 3.994 7.506 5.925 7.506 7.484 6.838 8.679 5.501 9.87 4.165 10.466 2.388 10.466 0.17L10.466 0C10.466-1.38 10.2-2.618 9.673-3.714 9.145-4.811 8.389-5.664 7.406-6.275 6.424-6.887 5.295-7.191 4.021-7.191 2.099-7.191 0.543-6.523-0.648-5.187-1.841-3.852-2.438-2.083-2.438 0.117Z" id="path1738" fill="#00316C"/></g><path d="M475.807 33.555 473.384 33.555 473.384 53.675 475.807 53.675Z" id="path1740" fill="#00316C"/><g id="g1742" transform="translate(481.964 40.4844)"><path d="M0 0C0-1.572 0.363-2.835 1.094-3.786 1.822-4.737 2.799-5.214 4.021-5.214 5.252-5.214 6.23-4.731 6.955-3.766 7.68-2.802 8.043-1.45 8.043 0.288 8.043 1.842 7.673 3.102 6.935 4.067 6.198 5.032 5.218 5.515 3.994 5.515 2.799 5.515 1.832 5.039 1.1 4.086 0.365 3.135 0 1.772 0 0M-2.438 0.288C-2.438 1.677-2.164 2.926-1.619 4.034-1.073 5.144-0.313 6 0.661 6.602 1.635 7.204 2.745 7.506 3.994 7.506 5.925 7.506 7.484 6.838 8.679 5.501 9.871 4.165 10.466 2.388 10.466 0.17L10.466 0C10.466-1.38 10.201-2.618 9.674-3.714 9.145-4.811 8.39-5.664 7.406-6.275 6.424-6.887 5.295-7.191 4.021-7.191 2.099-7.191 0.544-6.523-0.648-5.187-1.84-3.852-2.438-2.083-2.438 0.117Z" id="path1744" fill="#00316C"/></g><g id="g1746" transform="translate(497.814 40.4844)"><path d="M0 0C0-1.599 0.325-2.854 0.98-3.766 1.637-4.679 2.554-5.136 3.731-5.136 5.26-5.136 6.382-4.441 7.099-3.052L7.099 3.419C6.355 4.771 5.243 5.449 3.758 5.449 2.578 5.449 1.657 4.99 0.994 4.073 0.33 3.157 0 1.799 0 0M-2.438 0.274C-2.438 2.484-1.927 4.241-0.905 5.548 0.116 6.854 1.471 7.506 3.155 7.506 4.885 7.506 6.234 6.895 7.203 5.671L7.322 7.244 9.535 7.244 9.535-6.589C9.535-8.424 8.992-9.869 7.904-10.926 6.817-11.982 5.356-12.511 3.522-12.511 2.501-12.511 1.501-12.292 0.522-11.854-0.456-11.419-1.203-10.821-1.718-10.061L-0.46-8.607C0.58-9.891 1.85-10.532 3.352-10.532 4.531-10.532 5.451-10.2 6.109-9.536 6.769-8.873 7.099-7.938 7.099-6.733L7.099-5.516C6.13-6.634 4.807-7.191 3.128-7.191 1.471-7.191 0.127-6.523-0.899-5.187-1.925-3.852-2.438-2.03-2.438 0.274" id="path1748" fill="#00316C"/></g><g id="g1750" transform="translate(516.123 37.1045)"><path d="M0 0 3.301 10.624 5.895 10.624 0.197-5.738C-0.686-8.096-2.087-9.274-4.009-9.274L-4.467-9.235-5.371-9.064-5.371-7.101-4.715-7.152C-3.895-7.152-3.256-6.986-2.797-6.654-2.339-6.323-1.962-5.716-1.664-4.833L-1.126-3.393-6.184 10.624-3.537 10.624Z" id="path1752" fill="#00316C"/></g></g></g></g></g></svg>