<svg xmlns="http://www.w3.org/2000/svg" id="Layer_1" version="1.1" viewBox="0 0 2835.5619096 751.1811024"><defs><style>.st0{fill:#fff}.st1{fill:#6b6b6b}</style></defs><path d="M1031.274 125.286H919.092V610.89h344.585v-94.552h-232.403zM1510.467 425.808h91.302v84.867c-16.78 6.435-49.61 12.883-80.848 12.883-101 0-134.668-51.324-134.668-155.508 0-99.299 32.021-157.852 133.008-157.852 56.084 0 88.16 17.643 114.582 51.282l69.776-64.055c-42.488-60.913-117.052-79.352-186.759-79.352-157.07 0-239.633 85.731-239.633 249.169 0 162.681 74.523 250.814 238.838 250.814 75.29 0 149.018-19.208 189.132-47.263V335.22h-194.73zM1805.462 132.255v71.213h98.19v18.315c0 73.413-29.689 112.274-109.548 137.624l30.23 67.99c55.053-12.923 109.005-45.322 131.131-89.559 23.723 44.237 75.6 74.994 123.586 86.32l38.287-77.674c-69.602-15.092-119.773-52.914-119.773-125.228v-17.788h96.562v-71.213zm447.377-9.746h-90.133v102.544h-84.74v73.924h84.74v187.3h79.349c6.446-25.412 10.784-68.037 10.784-98.778zm9.157 430.611h-265.532c-6.972 0-9.157-1.595-9.157-9.157V438.755h-90.132v141.884c0 30.788 15.618 45.369 46.438 45.369h318.383zm51.256-421.423v70.687h102.575v34.166c0 90.101-18.33 146.765-111.701 187.81l35.064 62.583C2392.616 467 2442.818 429.194 2466 381.176c23.196 45.338 71.787 82.587 118.705 100.902l42.082-73.368c-90.658-34.01-121.958-86.909-121.958-172.703v-33.623h99.786v-70.687zm522.31 124.732h-89.575v-133.92h-86.336v503.499h75.521c7.02-29.688 10.815-80.697 10.815-120.627V328.758h89.575z" class="st1"/><path d="M375.59 751.181c207.475 0 375.591-168.28 375.591-375.645C751.181 168.074 583.065 0 375.591 0 168.17 0 0 168.074 0 375.536c0 207.366 168.172 375.645 375.59 375.645" style="fill:#a50034"/><path d="M360.68 210.693v329.26h104.637v-29.317h-74.756V210.693zM255.696 300.579c24.914 0 45.095-20.181 45.095-44.972 0-24.914-20.181-45.108-45.095-45.108-24.722 0-44.958 20.194-44.958 45.108 0 24.79 20.236 44.972 44.958 44.972" class="st0"/><path d="M390.557 61.29c-3.841-.165-11.331-.275-14.94-.275C202.344 61.015 61.31 202.09 61.31 375.46c0 83.988 32.61 162.86 91.891 222.223 59.583 59.404 138.578 92.07 222.416 92.07 83.852 0 162.86-32.666 222.43-92.07 59.225-59.363 91.85-138.235 91.85-222.223v-14.35l-12.526.096H465.547v29.18H660.07v4.226c-9.988 148.263-133.749 265.795-284.454 265.795-76.087 0-147.632-29.62-201.466-83.426-53.862-53.82-83.51-125.42-83.51-201.521 0-76.142 29.648-147.728 83.51-201.508 53.834-53.93 125.38-83.536 201.466-83.536 3.444 0 11.524.068 14.94.15z" class="st0"/></svg>