<svg viewBox="0 0 2048 2048" xmlns="http://www.w3.org/2000/svg" xmlns:xlink="http://www.w3.org/1999/xlink" id="레이어_1" xml:space="preserve" overflow="visible"><g><g><g><path d="M183.727 1996.94C186.529 1992.56 187.925 1986.82 187.925 1979.75 187.925 1970.55 184.984 1963.6 179.085 1958.87 173.152 1954.14 163.917 1951.77 151.297 1951.77L109.327 1951.84C109.327 1951.84 116.854 1953.97 118.218 1961.53L118.218 2045.63 142.374 2045.63 142.374 2009.02 163.917 2045.63 192.658 2045.63 166.924 2007.95C174.713 2005.95 180.316 2002.28 183.727 1996.94ZM157.475 1994.31C154.936 1995.55 150.606 1996.15 144.468 1996.15L142.373 1996.15 142.373 1971.59 144.468 1971.59C152.085 1971.59 157.244 1972.82 159.956 1975.27 161.895 1977.03 162.848 1979.95 162.848 1984.06 162.849 1989.15 161.057 1992.56 157.475 1994.31Z"/><path d="M204.982 1962.55 204.982 2045.63 262.481 2045.63 262.481 2024.62 229.927 2024.62 229.927 2008.74 260.631 2008.74 260.631 1988.66 229.927 1988.66 229.927 1972.26 262.481 1972.26 262.481 1951.77 195.977 1951.84C195.977 1951.83 204.136 1954.16 204.982 1962.55Z"/><path d="M341.761 1958.47C335.623 1954 325.78 1951.77 312.223 1951.77L271.781 1951.8C271.781 1951.8 281.543 1954.53 281.905 1964.67L281.905 2045.63 306.06 2045.63 306.06 2014.67 313.275 2014.67C326.486 2014.67 336.083 2012.56 342.024 2008.36 348.76 2003.54 352.138 1995.36 352.138 1983.8 352.139 1971.98 348.68 1963.54 341.761 1958.47ZM322.601 1992.59C320.679 1993.57 317.178 1994.04 312.1 1994.04 311.303 1994.04 310.177 1994.04 308.674 1994.04L306.061 1994.04 306.061 1971.98 310.268 1971.98C315.782 1971.98 319.98 1972.69 322.922 1974.1 325.847 1975.49 327.325 1978.54 327.325 1983.29 327.325 1987.92 325.756 1991.03 322.601 1992.59Z"/><path d="M450.687 1991.82 450.687 1951.77 416.227 1951.84C416.227 1951.84 425.363 1954.33 425.38 1963.83L425.487 2000.87C425.487 2011.47 424.181 2018.55 421.551 2022.14 419.365 2025.13 415.241 2026.6 409.218 2026.6 401.782 2026.6 396.91 2023.94 394.634 2018.59 393.319 2015.45 392.678 2009.5 392.678 2000.74L392.678 1951.77 358.243 1951.8C358.243 1951.8 366.895 1954.25 367.339 1963.21L367.339 2001.53C367.339 2017.98 370.691 2029.84 377.363 2037.1 384.075 2044.37 394.683 2048 409.218 2048 421.642 2048 431.033 2046.21 437.425 2042.63 443.135 2039.38 446.932 2034.53 448.854 2028.05 450.169 2023.58 450.818 2016.42 450.818 2006.52 450.737 2004.16 450.687 2001.76 450.687 1999.31 450.687 1996.86 450.687 1994.36 450.687 1991.82Z"/><path d="M525.095 1995.1C531.757 1993.18 536.4 1990.41 539.021 1986.82 541.124 1983.94 542.167 1980.08 542.167 1975.27 542.167 1965.47 538.404 1958.87 530.886 1955.45 525.455 1952.98 516.088 1951.77 502.778 1951.77L463.807 1951.83C463.807 1951.83 471.506 1954.02 472.73 1961.83L472.73 2045.63 499.113 2045.63 505.932 2045.63C521.855 2045.63 532.981 2042.91 539.274 2037.5 544.089 2033.38 546.488 2027.22 546.488 2018.98 546.488 2011.28 544.187 2005.34 539.545 2001.13 535.875 1997.81 531.059 1995.79 525.095 1995.1ZM496.617 1970.41 503.453 1970.41C508.341 1970.41 511.719 1970.76 513.56 1971.46 516.715 1972.69 518.293 1975.37 518.293 1979.47 518.293 1983.58 516.748 1986.39 513.683 1987.86 511.669 1988.84 508.514 1989.32 504.235 1989.32L496.618 1989.19 496.617 1970.41 496.617 1970.41ZM516.435 2025.03C513.985 2026.08 510.149 2026.6 504.882 2026.6L496.616 2026.6 496.616 2005.59 505.547 2005.59C511.668 2005.59 516.088 2006.57 518.8 2008.5 520.986 2010.06 522.086 2012.46 522.086 2015.71 522.087 2020.24 520.198 2023.36 516.435 2025.03Z"/><path d="M589.948 1951.77 555.315 1951.83C555.315 1951.83 563.68 1954.2 564.354 1962.84L564.354 2045.63 621.853 2045.63 621.853 2023.58 589.949 2023.58 589.949 1951.77 589.948 1951.77Z"/><path d="M637.15 1963.87 637.183 1963.68 637.183 2045.63 663.048 2045.63 663.048 1951.77 627.981 1951.83C627.981 1951.83 637.15 1954.32 637.15 1963.87Z"/><path d="M693.351 1966.34C686.186 1975.53 682.596 1986.35 682.596 1998.78 682.596 2011.9 686.663 2023.15 694.797 2032.5 703.72 2042.76 715.289 2047.87 729.454 2047.87 737.424 2047.87 745.722 2045.94 754.4 2042.1L754.4 2014.12C749.765 2018.77 745.386 2022.01 741.278 2023.86 738.476 2025.08 735.444 2025.69 732.215 2025.69 723.982 2025.69 717.64 2022.49 713.17 2016.09 709.686 2011.11 707.911 2005.34 707.911 1998.78 707.911 1990.19 710.68 1983.42 716.201 1978.42 720.835 1974.22 726.167 1972.13 732.214 1972.13 736.141 1972.13 739.905 1973 743.496 1974.74 746.297 1976.14 749.937 1979 754.399 1983.29L754.399 1955.32C746.264 1951.56 737.949 1949.67 729.453 1949.67 714.04 1949.67 702.019 1955.24 693.351 1966.34Z"/><path d="M861.508 1949.67C845.503 1949.67 832.759 1955.29 823.31 1966.48 815.331 1975.93 811.371 1986.7 811.371 1998.78 811.371 2013.83 816.794 2026.04 827.64 2035.4 837.254 2043.71 848.42 2047.87 861.106 2047.87 874.951 2047.87 886.775 2043.25 896.633 2034.02 906.485 2024.8 911.39 2013.16 911.39 1999.16 911.39 1986.74 907.332 1975.76 899.173 1966.21 889.806 1955.19 877.268 1949.67 861.508 1949.67ZM877.399 2020.43C872.839 2024.54 867.556 2026.6 861.508 2026.6 853.374 2026.6 847.063 2023.55 842.61 2017.41 838.922 2012.33 837.105 2006.17 837.105 1998.9 837.105 1991.12 839.381 1984.53 843.991 1979.15 848.576 1973.76 854.425 1971.08 861.508 1971.08 869.824 1971.08 876.216 1974.35 880.677 1980.92 884.178 1986.08 885.928 1992.16 885.928 1999.16 885.928 2008.18 883.101 2015.27 877.399 2020.43Z"/><path d="M930.05 1962.43 930.05 2045.63 954.979 2045.63 954.979 2008.74 985.7 2008.74 985.7 1988.66 954.979 1988.66 954.979 1972.26 987.549 1972.26 987.549 1951.77 921.028 1951.8C921.028 1951.8 929.146 1954.12 930.05 1962.43Z"/><path d="M1132.72 1951.77 1102.66 1951.77 1073.24 1994.31 1073.24 1951.77 1038.6 1951.8C1038.6 1951.8 1047.76 1954.55 1047.76 1964.08L1047.78 1963.95 1047.78 2045.63 1073.24 2045.63 1073.24 2003.64 1103.7 2045.63 1135.48 2045.63 1097.8 1997.72 1132.72 1951.77Z"/><path d="M1186.7 1949.67C1170.68 1949.67 1157.94 1955.29 1148.48 1966.48 1140.52 1975.93 1136.55 1986.7 1136.55 1998.78 1136.55 2013.83 1141.97 2026.04 1152.81 2035.4 1162.46 2043.71 1173.6 2047.87 1186.3 2047.87 1200.13 2047.87 1211.97 2043.25 1221.81 2034.02 1231.66 2024.8 1236.59 2013.16 1236.59 1999.16 1236.59 1986.74 1232.51 1975.76 1224.37 1966.21 1215.01 1955.19 1202.44 1949.67 1186.7 1949.67ZM1202.59 2020.43C1198.04 2024.54 1192.73 2026.6 1186.7 2026.6 1178.55 2026.6 1172.26 2023.55 1167.79 2017.41 1164.12 2012.33 1162.28 2006.17 1162.28 1998.9 1162.28 1991.12 1164.59 1984.53 1169.16 1979.15 1173.77 1973.76 1179.61 1971.08 1186.7 1971.08 1195 1971.08 1201.39 1974.35 1205.86 1980.92 1209.36 1986.08 1211.1 1992.16 1211.1 1999.16 1211.1 2008.18 1208.28 2015.27 1202.59 2020.43Z"/><path d="M1316.82 1996.94C1319.62 1992.56 1321.02 1986.82 1321.02 1979.75 1321.02 1970.55 1318.06 1963.6 1312.16 1958.87 1306.25 1954.14 1297 1951.77 1284.39 1951.77L1242.24 1951.84C1242.24 1951.84 1250.8 1954.25 1251.31 1963.09L1251.31 2045.64 1275.47 2045.64 1275.47 2009.02 1297 2045.64 1325.75 2045.64 1300.02 2007.95C1307.81 2005.95 1313.4 2002.28 1316.82 1996.94ZM1290.57 1994.31C1288.01 1995.55 1283.69 1996.15 1277.56 1996.15L1275.47 1996.15 1275.47 1971.59 1277.56 1971.59C1285.18 1971.59 1290.34 1972.82 1293.05 1975.27 1294.98 1977.03 1295.94 1979.95 1295.94 1984.06 1295.94 1989.15 1294.15 1992.56 1290.57 1994.31Z"/><path d="M1338.06 1962.32 1338.06 2045.63 1395.58 2045.63 1395.58 2024.62 1363.02 2024.62 1363.02 2008.74 1393.74 2008.74 1393.74 1988.66 1363.02 1988.66 1363.02 1972.26 1395.58 1972.26 1395.58 1951.77 1329.1 1951.87C1329.1 1951.87 1337.08 1954.14 1338.06 1962.32Z"/><path d="M1426.65 1951.87C1428.67 1951.92 1434.99 1953.61 1432.37 1963.09L1403.96 2045.63 1429.43 2045.63 1434.29 2028.71 1470.66 2028.71 1475.24 2045.63 1500.84 2045.63 1468.29 1951.77 1426.65 1951.87ZM1439.92 2010.45 1449.4 1979.47C1450.18 1977.11 1451.18 1972.92 1452.4 1966.88 1453.72 1972.48 1454.86 1976.68 1455.81 1979.47L1465.27 2010.45 1439.92 2010.45Z"/><path d="M1629.33 2009.93 1586.44 1951.77 1552.7 1951.77C1552.7 1951.77 1561.12 1954.16 1561.76 1962.84L1561.76 2045.63 1585.88 2045.63 1585.88 1985.75 1628.96 2045.63 1653.51 2045.63 1653.51 1951.77 1629.33 1951.77 1629.33 2009.93 1629.33 2009.93Z"/><path d="M1728.05 1951.77 1686.35 1951.77C1686.35 1951.77 1695.2 1952.28 1693.03 1960.46L1663.72 2045.63 1689.18 2045.63 1694.05 2028.71 1730.41 2028.71 1735.01 2045.63 1760.61 2045.63 1728.24 1952.34 1728.05 1951.77ZM1699.68 2010.45 1709.15 1979.47C1709.92 1977.11 1710.94 1972.92 1712.16 1966.88 1713.48 1972.48 1714.62 1976.68 1715.57 1979.47L1725.03 2010.45 1699.68 2010.45Z"/><path d="M1793.83 2013.38C1793.3 2010.84 1771.91 1951.77 1771.91 1951.77L1738.14 1951.87C1739.55 1951.92 1744.81 1952.77 1748.83 1961.21L1784.12 2045.63 1803.68 2045.63 1842.93 1951.77 1815.63 1951.77 1793.83 2013.38Z"/><path d="M1914.21 1951.77C1914.21 1951.77 1898.61 1981.46 1898.34 1982.37 1898.14 1981.74 1882.71 1951.77 1882.71 1951.77L1847.94 1951.87C1847.94 1951.87 1855.33 1953.34 1858.39 1959.9L1885.98 2002.84 1885.98 2045.63 1910.68 2045.63 1910.68 2002.84 1943.51 1951.77 1914.21 1951.77Z"/><path d="M761.834 1763.44C766.452 1768.06 772.601 1770.61 779.11 1770.61L928.176 1770.61 928.176 1614.28 738.398 1614.24C738.398 1614.24 754.332 1618.62 754.768 1635.15L754.768 1746.53C754.768 1752.89 757.274 1758.89 761.834 1763.44ZM803.024 1655.57 877.295 1655.57 877.295 1731.32 803.024 1731.32 803.024 1655.57Z"/><path d="M807.515 1790.43 754.854 1790.43 754.854 1880.17C754.854 1886.66 757.403 1892.76 762.039 1897.39 766.65 1902 772.722 1904.53 779.145 1904.53L1027.43 1904.53 1027.43 1865.23 807.515 1865.23 807.515 1790.43Z"/><path d="M650.895 1634.26 650.904 1634.18 650.818 1770.89 702.461 1770.89 702.461 1709.61 734.115 1709.61 734.115 1668.18 702.461 1668.18 702.461 1612.62 634.482 1612.71C634.482 1612.71 650.895 1617.19 650.895 1634.26Z"/><path d="M709.944 1863.16 490.081 1863.16 490.081 1804.21 437.241 1804.21 437.241 1877.05C437.241 1884.1 439.978 1890.7 444.948 1895.67 449.986 1900.69 456.7 1903.46 463.859 1903.46L709.945 1903.46 709.945 1863.16 709.944 1863.16Z"/><path d="M1450.74 1596.97 1395.47 1596.97 1395.47 1612.56 1327.52 1612.56C1327.52 1612.56 1343.07 1616.87 1343.84 1632.93L1343.84 1653.38 1378.6 1653.38C1359.26 1667.63 1347.49 1690.41 1347.49 1714.59 1347.49 1734.93 1355.39 1754.05 1369.78 1768.42 1384.16 1782.79 1403.27 1790.71 1423.59 1790.71 1465.56 1790.71 1499.71 1756.56 1499.71 1714.59 1499.71 1690.41 1487.95 1667.63 1468.62 1653.38L1504.04 1653.38 1504.04 1612.56 1450.74 1612.56 1450.74 1596.97 1450.74 1596.97ZM1423.41 1744.77C1406.16 1744.77 1392.17 1730.77 1392.17 1713.53 1392.17 1696.29 1406.16 1682.3 1423.41 1682.3 1440.66 1682.3 1454.64 1696.29 1454.64 1713.53 1454.64 1730.77 1440.66 1744.77 1423.41 1744.77Z"/><path d="M433.409 1630.73 433.409 1653.38 468.151 1653.38C448.822 1667.63 437.054 1690.41 437.054 1714.59 437.054 1734.93 444.974 1754.05 459.342 1768.42 473.711 1782.79 492.835 1790.71 513.166 1790.71 555.118 1790.71 589.262 1756.56 589.262 1714.59 589.262 1690.41 577.51 1667.63 558.155 1653.38L593.608 1653.38 593.608 1612.56 540.305 1612.56 540.305 1597.87 485.036 1597.87 485.036 1612.56 417.262 1612.64C417.262 1612.64 431.374 1616.51 433.409 1630.73ZM489.252 1737.2C482.922 1730.87 479.451 1722.47 479.451 1713.53 479.451 1704.58 482.922 1696.18 489.252 1689.85 495.573 1683.54 503.98 1680.05 512.926 1680.05 521.856 1680.05 530.272 1683.54 536.584 1689.85 542.914 1696.18 546.403 1704.58 546.403 1713.53 546.403 1731.99 531.383 1747.01 512.926 1747.01 503.98 1747.01 495.573 1743.53 489.252 1737.2Z"/><path d="M1573.35 1904.12 1573.35 1726.41 1595.13 1726.41 1595.13 1904.12 1641.51 1904.12 1641.51 1612.22 1579.07 1612.3C1579.07 1612.3 1592.62 1616.03 1595.06 1629.54L1595.13 1684.98 1573.35 1684.98 1573.35 1612.33 1507.79 1612.33C1507.79 1612.33 1524.21 1616.76 1524.21 1633.84L1524.24 1633.56 1524.24 1904.12 1573.35 1904.12 1573.35 1904.12Z"/><path d="M120.582 1632.05 120.582 1762.79C120.582 1769.4 123.079 1775.54 127.578 1780.05 131.94 1784.42 137.807 1786.82 144.068 1786.82L257.605 1786.82 257.605 1746.63 173.011 1746.63 173.011 1653.46 257.605 1653.55 257.605 1614.01 104.485 1614.11C104.486 1614.11 118.409 1618.05 120.582 1632.05Z"/><path d="M285.347 1629.67 285.347 1904.12 334.441 1904.12 334.441 1726.41 356.225 1726.41 356.225 1904.12 402.608 1904.12 402.608 1612.26 340.24 1612.26C340.24 1612.26 353.479 1616.17 356.165 1629.35L356.225 1684.98 334.441 1684.98 334.441 1612.35 288.974 1612.31 269.378 1612.31C269.378 1612.31 282.798 1616.23 285.347 1629.67Z"/><path d="M975.657 1634.18 975.734 1633.61 975.657 1770.89 1027.3 1770.89 1027.3 1612.62 959.244 1612.62C959.244 1612.62 975.657 1617.1 975.657 1634.18Z"/><path d="M1050.83 1770.61 1158.12 1770.61 1158.12 1799.96 1050.81 1799.96 1050.81 1839.7 1269.19 1839.7 1269.19 1904.19 1323.1 1904.19 1323.1 1826.44C1323.1 1819.31 1320.33 1812.62 1315.35 1807.64 1310.4 1802.69 1303.79 1799.96 1296.73 1799.96L1210.91 1799.96 1210.91 1770.61 1324.4 1770.61 1324.25 1731.04 1050.83 1731.04 1050.83 1770.61Z"/><path d="M1051.24 1634.18 1051.24 1650.32 1051.24 1652.56 1053.48 1652.56 1269.61 1652.56 1269.61 1709.9 1323.86 1709.9 1323.86 1639.6C1323.86 1632.28 1321.09 1625.5 1316.06 1620.48 1311.23 1615.64 1304.76 1612.96 1297.84 1612.96L1034.87 1612.96C1034.87 1612.96 1050.96 1617.45 1051.24 1634.18Z"/><path d="M1663.54 1633.8 1663.54 1654.14 1881.9 1654.14 1881.9 1714.72 1935.82 1714.72 1935.82 1641.17C1935.82 1633.98 1933.03 1627.26 1928.02 1622.23 1923.07 1617.29 1916.47 1614.57 1909.46 1614.57L1647.28 1614.52C1647.28 1614.52 1663.54 1619.96 1663.54 1633.8Z"/><path d="M1936.21 1736.14 1663.54 1736.14 1663.54 1775.57 1776.67 1775.57 1776.67 1829.15 1829.46 1829.15 1829.46 1775.57 1936.21 1775.57Z"/><path d="M1663.03 1799.87 1663.1 1877.57C1663.1 1884.64 1665.82 1891.26 1670.8 1896.27 1675.82 1901.28 1682.54 1904.04 1689.68 1904.04L1935.78 1904.04 1935.78 1864.33 1715.87 1864.33 1715.87 1799.87 1663.03 1799.87Z"/></g></g><g id="XMLID_2_"><g><path d="M788.39 572.22C759.56 701.32 840.27 829.82 969.37 859.62 1099.19 889.61 1228.63 808.61 1258.63 678.94 1273.59 614.03 1233.16 549.27 1168.25 534.31 1103.42 519.35 1038.66 559.78 1023.7 624.76 1008.74 689.67 943.98 730.02 879.14 715.14 814.8 700.23 774.52 636.55 788.39 572.22ZM1024 353.56C1173.62 353.56 1294.9 474.84 1294.9 624.46 1294.9 774.15 1173.62 895.51 1024 895.51 874.38 895.51 753.1 774.23 753.1 624.46 753.1 474.84 874.38 353.56 1024 353.56Z" fill="#FFFFFF"/><path d="M1715.56 1530.7C1605.62 1532.89 1516.6 1524.88 1444.51 1509.92 1080.98 1434.66 1150.72 1183.79 1150.72 1183.79 1150.72 1183.79 1196.59 1459.62 1715.56 1530.7Z" fill="#00A5E3"/><path d="M1441.87 1522.69C1441.87 1522.69 1389.2 1533.04 1311.14 1515.81 1228.1 1497.53 1116.19 1447.88 1007.98 1321.31 931.06 1231.47 849.37 1218.17 756.58 1286.85L755.37 1286.48C766.7 1266.83 901.06 1044.82 1070.85 1260.41 1086.11 1279.83 1101.68 1302.87 1117.55 1329.93 1117.55 1329.93 1217.82 1497.75 1441.87 1522.69Z" fill="#00A5E3"/><path d="M1308.57 1527.53C1308.57 1527.53 1080.75 1533.19 980.17 1448.03 980.17 1448.03 810.83 1286.25 672.25 1469.72 672.25 1469.72 555.5 1380.55 473.97 1539.54 473.97 1539.54 453.11 1316.32 657.82 1386.83 657.82 1386.83 696.2 1331.89 759.98 1304.54 820.81 1278.39 904.76 1277.18 1000.65 1372.09 1001.33 1372.85 1002.09 1373.6 1002.77 1374.36 1013.57 1386.67 1126.31 1510.68 1308.57 1527.53Z" fill="#00A5E3"/><path d="M1168.25 534.31C1233.16 549.27 1273.59 614.03 1258.63 678.94 1228.63 808.61 1099.19 889.61 969.37 859.62 840.27 829.82 759.56 701.32 788.39 572.22 774.52 636.55 814.8 700.23 879.14 715.14 943.98 730.02 1008.74 689.67 1023.7 624.76 1038.66 559.78 1103.42 519.35 1168.25 534.31Z" fill="#303188"/><path d="M1298.75 826.14 1765.36 826.14C1765.36 880.4 1737.7 891.81 1737.7 891.81 1481.82 954.5 1281.91 1124.9 1182.51 1224.58 1169.59 1197.24 1162.47 1172.15 1158.6 1151.79 1158.6 1151.79 1117.47 1161.58 1133.79 1276.15 1124.56 1286.52 1118.37 1293.91 1115.42 1297.49 1104.53 1280.42 1093.58 1264.87 1082.72 1251.06 1030.84 1185.19 976.32 1151.79 920.66 1151.79 896.75 1151.79 872.79 1158.03 849.45 1170.35 840.07 1175.3 830.76 1181.24 821.6 1188.13 713.76 1087.58 530.92 947.38 304.1 891.81 304.1 891.81 276.45 880.4 276.45 826.14L743.05 826.14C701.57 769.62 677.01 700.02 677.01 624.46 677.01 450.13 807.96 306.34 976.92 286.09L976.92 260.24 768.52 260.24 732.4 193.9 959.77 193.9C932.34 174.63 914.28 142.74 914.28 106.62 914.28 47.76 962.04 0 1020.9 0 1079.77 0 1127.52 47.76 1127.52 106.62 1127.52 142.74 1109.46 174.63 1082.03 193.9L1309.41 193.9 1273.29 260.24 1064.88 260.24 1064.88 286.09C1233.84 306.34 1364.79 450.13 1364.79 624.46 1364.79 700.02 1340.24 769.62 1298.75 826.14ZM1294.9 624.46C1294.9 474.84 1173.62 353.56 1024 353.56 874.38 353.56 753.1 474.84 753.1 624.46 753.1 774.23 874.38 895.51 1024 895.51 1173.62 895.51 1294.9 774.15 1294.9 624.46ZM1072.21 106.7C1072.21 78.36 1049.31 55.46 1020.98 55.46 992.72 55.46 969.82 78.44 969.82 106.7 969.82 134.96 992.72 157.78 1020.98 157.85 1049.31 157.85 1072.21 135.03 1072.21 106.7Z" fill="#303188"/></g></g></g></svg>