<?xml version="1.0" encoding="UTF-8" standalone="no"?>
<!DOCTYPE svg PUBLIC "-//W3C//DTD SVG 1.1//EN" "http://www.w3.org/Graphics/SVG/1.1/DTD/svg11.dtd">
<svg width="100%" height="100%" viewBox="0 0 1400 270" version="1.1" xmlns="http://www.w3.org/2000/svg" xmlns:xlink="http://www.w3.org/1999/xlink" xml:space="preserve" xmlns:serif="http://www.serif.com/" style="fill-rule:evenodd;clip-rule:evenodd;stroke-linejoin:round;stroke-miterlimit:2;">
    <g transform="matrix(1,0,0,1,385,32.5)">
        <path d="M0,0L82,0C83.865,9.944 85.681,19.856 87.268,29.842C87.474,31.122 87.679,32.402 87.89,33.721C88.444,37.172 88.994,40.623 89.545,44.075C90.124,47.704 90.705,51.333 91.286,54.961C92.382,61.806 93.476,68.652 94.569,75.497C95.815,83.302 97.064,91.106 98.313,98.91C100.878,114.94 103.44,130.97 106,147C108.146,140.349 109.146,133.569 110.231,126.677C110.446,125.331 110.661,123.985 110.877,122.639C111.339,119.753 111.798,116.867 112.255,113.98C112.978,109.416 113.707,104.853 114.437,100.29C115.721,92.256 117,84.221 118.277,76.186C120.203,64.075 122.134,51.965 124.069,39.855C124.793,35.318 125.515,30.78 126.235,26.242C126.683,23.424 127.133,20.606 127.583,17.788C127.891,15.856 128.196,13.923 128.502,11.99C128.685,10.843 128.869,9.696 129.058,8.515C129.217,7.516 129.375,6.518 129.539,5.489C130,3 130,3 131,0L213,0C214.15,28.743 214.15,28.743 214.389,39.58C214.418,40.835 214.448,42.089 214.478,43.382C214.556,46.736 214.632,50.091 214.707,53.445C214.755,55.57 214.803,57.695 214.851,59.82C215.022,67.317 215.191,74.815 215.357,82.312C215.493,88.409 215.631,94.505 215.773,100.602C216.552,134.074 217.185,167.515 217,201L167,201C166.384,190.525 165.847,180.215 165.811,169.748C165.798,167.732 165.785,165.717 165.772,163.701C165.76,161.574 165.749,159.447 165.74,157.32C165.719,152.849 165.691,148.378 165.663,143.907C165.598,133.613 165.543,123.32 165.487,113.026C165.436,103.574 165.383,94.123 165.322,84.671C165.294,80.245 165.271,75.817 165.251,71.39C165.24,69.292 165.228,67.194 165.215,65.096C165.199,62.563 165.186,60.029 165.177,57.496C165.112,48.635 164.624,39.836 164,31C163.841,31.858 163.682,32.716 163.519,33.6C159.657,54.456 155.793,75.312 151.926,96.167C150.056,106.252 148.187,116.338 146.32,126.424C144.693,135.212 143.064,144.001 141.434,152.789C140.571,157.444 139.708,162.1 138.847,166.755C138.037,171.134 137.225,175.513 136.412,179.892C136.113,181.501 135.815,183.111 135.518,184.721C135.113,186.914 134.705,189.107 134.297,191.299C134.069,192.528 133.842,193.757 133.607,195.023C133,198 133,198 132,201L81,201C77.625,186.375 77.625,186.375 76.59,180.758C76.353,179.481 76.116,178.204 75.872,176.889C75.622,175.522 75.371,174.156 75.121,172.79C74.848,171.313 74.575,169.837 74.302,168.36C73.719,165.209 73.138,162.057 72.558,158.905C71.641,153.915 70.719,148.926 69.796,143.937C68.006,134.253 66.22,124.568 64.434,114.883C62.158,102.538 59.882,90.192 57.599,77.848C56.683,72.894 55.77,67.939 54.859,62.985C54.291,59.901 53.721,56.817 53.151,53.734C52.888,52.31 52.626,50.886 52.364,49.462C51.103,42.583 49.811,35.758 48,29C47.996,29.68 47.992,30.36 47.987,31.06C47.883,47.779 47.774,64.498 47.661,81.217C47.606,89.303 47.553,97.389 47.503,105.475C47.459,112.542 47.413,119.608 47.363,126.674C47.337,130.399 47.312,134.124 47.291,137.848C47.169,158.915 46.678,179.943 46,201L-4,201C-4.193,165.546 -3.512,130.137 -2.72,94.696C-2.578,88.311 -2.442,81.925 -2.306,75.54C-2.158,68.517 -2.005,61.495 -1.851,54.473C-1.787,51.533 -1.724,48.593 -1.661,45.653C-1.574,41.549 -1.482,37.446 -1.389,33.342C-1.364,32.167 -1.34,30.992 -1.315,29.782C-1.083,19.831 -0.524,9.955 0,0Z" style="fill:rgb(19,40,159);fill-rule:nonzero;"/>
    </g>
    <g transform="matrix(1,0,0,1,1033,32.5)">
        <path d="M0,0L74,0C75.818,4.848 77.504,9.444 78.935,14.375C79.465,16.192 79.465,16.192 80.005,18.045C80.386,19.363 80.767,20.682 81.148,22C81.558,23.407 81.967,24.815 82.377,26.222C83.255,29.238 84.13,32.255 85.004,35.272C86.386,40.041 87.772,44.809 89.159,49.576C90.609,54.561 92.058,59.547 93.506,64.532C97.015,76.618 100.534,88.7 104.059,100.781C104.303,101.618 104.547,102.454 104.798,103.316C106,107.437 107.203,111.557 108.405,115.678C110.448,122.678 112.49,129.678 114.531,136.679C115.489,139.964 116.447,143.248 117.406,146.533C117.937,148.355 118.469,150.178 119,152C118.854,140.729 118.709,129.458 118.562,118.188C118.551,117.337 118.54,116.487 118.529,115.611C118.171,87.97 117.807,60.328 117.438,32.688C117.421,31.441 117.421,31.441 117.404,30.17C117.269,20.113 117.135,10.056 117,0L167,0L167,199L96,199C92.625,189.999 92.625,189.999 91.217,185.4C90.737,183.841 90.737,183.841 90.249,182.25C89.739,180.577 89.739,180.577 89.219,178.871C88.853,177.677 88.487,176.482 88.109,175.252C87.112,171.994 86.116,168.735 85.122,165.476C84.497,163.429 83.871,161.381 83.245,159.334C74.785,131.676 66.433,103.985 58.101,76.287C54.759,65.184 51.385,54.09 48,43C47.883,71.347 48.015,99.674 48.572,128.016C49.032,151.684 49.076,175.327 49,199L0,199L0,0Z" style="fill:rgb(19,40,159);fill-rule:nonzero;"/>
    </g>
    <g transform="matrix(1,0,0,1,838,32.5)">
        <path d="M0,0L51,0C51.015,4.623 51.029,9.246 51.044,14.01C51.094,29.281 51.161,44.552 51.236,59.823C51.281,69.082 51.32,78.341 51.346,87.601C51.369,95.672 51.403,103.744 51.449,111.816C51.473,116.089 51.491,120.361 51.498,124.634C51.504,128.659 51.524,132.684 51.554,136.709C51.563,138.183 51.567,139.657 51.565,141.131C51.233,153.07 51.233,153.07 56.31,163.507C60.215,167.063 64.065,168.961 69.356,169.031C75.242,168.675 79.327,167.645 84,164C88.938,156.687 88.578,149.28 88.546,140.771C88.555,139.233 88.565,137.695 88.577,136.157C88.605,132.001 88.609,127.844 88.608,123.688C88.611,119.337 88.636,114.986 88.659,110.635C88.7,102.405 88.72,94.175 88.734,85.944C88.749,76.57 88.788,67.197 88.828,57.823C88.91,38.549 88.962,19.274 89,0L140,0C140.176,18.986 140.344,37.972 140.495,56.958C140.565,65.775 140.64,74.592 140.724,83.41C140.797,91.103 140.862,98.796 140.919,106.49C140.949,110.556 140.983,114.622 141.026,118.688C141.592,172.911 141.592,172.911 126.262,189.93C113.762,201.975 94.895,206.453 78,207C76.888,207.04 75.775,207.08 74.629,207.121C52.115,207.526 30.375,204.601 13.188,188.812C0.732,175.6 -0.476,158.14 -0.341,140.885C-0.34,139.336 -0.34,137.787 -0.342,136.238C-0.343,132.084 -0.325,127.93 -0.304,123.776C-0.285,119.416 -0.284,115.056 -0.28,110.696C-0.271,102.462 -0.246,94.228 -0.216,85.995C-0.182,76.611 -0.166,67.228 -0.151,57.844C-0.12,38.563 -0.065,19.281 0,0Z" style="fill:rgb(19,40,159);fill-rule:nonzero;"/>
    </g>
    <g transform="matrix(1,0,0,1,1377.5,42.812)">
        <path d="M0,0C8.932,8.654 13.478,19.557 15.5,31.688L15.5,54.688L-35.5,54.688C-35.83,48.417 -36.16,42.148 -36.5,35.688C-39.626,28.393 -41.54,25.363 -48.75,22.312C-56.653,20.995 -62.968,22.022 -69.5,26.688C-74.453,31.64 -74.729,38.522 -74.782,45.144C-74.78,46.09 -74.777,47.035 -74.775,48.01C-74.78,49.024 -74.785,50.038 -74.79,51.082C-74.804,54.419 -74.803,57.757 -74.801,61.094C-74.805,63.421 -74.809,65.749 -74.814,68.076C-74.821,72.948 -74.821,77.82 -74.816,82.692C-74.81,88.93 -74.827,95.167 -74.85,101.404C-74.865,106.209 -74.866,111.013 -74.862,115.817C-74.863,118.116 -74.868,120.416 -74.878,122.716C-74.891,125.932 -74.884,129.149 -74.872,132.365C-74.88,133.311 -74.888,134.257 -74.895,135.231C-74.839,142.326 -73.884,147.25 -68.75,152.5C-62.667,156.594 -57.355,157.127 -50.223,156.293C-44.848,155.098 -40.968,152.534 -37.562,148.25C-35.409,143.056 -35.339,137.665 -35.184,132.102C-35.152,131.049 -35.152,131.049 -35.121,129.975C-35.056,127.754 -34.996,125.533 -34.938,123.312C-34.894,121.798 -34.851,120.284 -34.807,118.77C-34.699,115.076 -34.6,111.382 -34.5,107.688L-55.5,107.688L-55.5,76.688L15.5,76.688C15.562,88.155 15.624,99.623 15.688,111.438C15.729,116.834 15.729,116.834 15.77,122.339C15.784,126.792 15.784,126.792 15.786,128.888C15.791,130.326 15.801,131.765 15.817,133.203C15.983,149.598 13.4,164.261 1.789,176.59C-14.908,191.891 -38.313,195.281 -60.137,194.606C-80.179,193.609 -100.368,189.021 -114.5,173.688C-127.879,157.209 -126.66,135.897 -126.668,115.867C-126.671,113.839 -126.675,111.81 -126.678,109.781C-126.684,105.54 -126.686,101.299 -126.685,97.058C-126.685,91.669 -126.699,86.28 -126.716,80.891C-126.727,76.702 -126.729,72.514 -126.729,68.325C-126.73,66.341 -126.734,64.356 -126.742,62.372C-126.9,18.21 -126.9,18.21 -111.5,1.688C-108.02,-1.32 -104.403,-3.885 -100.5,-6.312C-99.844,-6.721 -99.188,-7.13 -98.512,-7.551C-71.154,-22.724 -24.152,-20.343 0,0Z" style="fill:rgb(19,40,159);fill-rule:nonzero;"/>
    </g>
    <g transform="matrix(1,0,0,1,73.608,26.184)">
        <path d="M0,0C2.192,0.003 4.382,-0.02 6.574,-0.046C25.003,-0.129 43.497,3.498 57.549,16.277C71.23,30.417 69.392,45.999 69.392,65.316L19.392,65.316C18.897,57.891 18.897,57.891 18.392,50.316C17.215,45.428 16.504,42.67 13.392,38.878C7.362,35.737 1.055,34.444 -5.545,36.441C-9.724,38.134 -12.322,40.203 -14.682,44.081C-17.027,49.742 -16.291,56.452 -14.233,62.066C-8.613,70.201 1.157,75.144 9.705,79.566C11.823,80.69 13.94,81.817 16.056,82.945C17.114,83.505 18.171,84.066 19.261,84.644C32.337,91.623 45.117,98.613 56.392,108.316C57.157,108.968 57.921,109.62 58.709,110.292C69.291,120.051 74.049,132.294 74.67,146.468C75.15,165.112 73.617,182.814 60.392,197.128C41.049,215.294 14.276,215.157 -10.584,214.499C-18.253,214.213 -25.349,212.743 -32.608,210.316C-33.736,209.942 -34.864,209.568 -36.026,209.183C-42.831,206.63 -48.192,203.124 -53.608,198.316C-54.53,197.567 -54.53,197.567 -55.471,196.804C-62.965,190.208 -68.251,179.132 -69.608,169.316C-69.835,164.311 -69.796,159.324 -69.733,154.316C-69.691,149.696 -69.65,145.076 -69.608,140.316L-15.608,140.316C-15.113,152.691 -15.113,152.691 -14.608,165.316C-10.321,173.095 -10.321,173.095 -3.608,176.316C3.636,177.859 9.295,176.772 16.205,174.316C20.784,170.129 22.586,163.783 22.892,157.691C22.672,152.911 20.772,149.372 18.392,145.316C18.101,144.621 17.81,143.926 17.509,143.21C16.1,140.82 14.864,140.542 12.392,139.316C10.734,138.117 9.093,136.893 7.467,135.652C1.342,131.147 -5.11,127.538 -11.795,123.941C-59.522,97.85 -59.522,97.85 -67.608,73.316C-71.132,57.879 -69.546,39.763 -61.858,25.878C-52.986,12.549 -39.605,5.16 -24.152,1.778C-16.103,0.239 -8.163,-0.024 0,0Z" style="fill:rgb(19,40,159);fill-rule:nonzero;"/>
    </g>
    <g transform="matrix(1,0,0,1,216,32.5)">
        <path d="M0,0L89,0C90.564,4.693 91.698,9.116 92.569,13.946C92.714,14.728 92.859,15.51 93.007,16.316C93.489,18.927 93.965,21.539 94.44,24.151C94.785,26.027 95.13,27.903 95.475,29.779C96.411,34.867 97.341,39.956 98.27,45.045C99.243,50.37 100.22,55.694 101.197,61.019C102.836,69.958 104.471,78.897 106.104,87.837C107.994,98.177 109.888,108.517 111.786,118.855C113.611,128.799 115.432,138.743 117.252,148.687C118.026,152.921 118.802,157.155 119.579,161.388C120.494,166.37 121.404,171.352 122.313,176.335C122.647,178.165 122.982,179.995 123.319,181.825C123.777,184.319 124.232,186.813 124.685,189.308C124.82,190.036 124.954,190.763 125.093,191.513C125.679,194.761 126,197.681 126,201L72,201C70.777,195.495 69.661,190.264 68.855,184.725C68.756,184.051 68.657,183.378 68.555,182.683C68.229,180.457 67.907,178.23 67.586,176.003C67.351,174.394 67.116,172.785 66.88,171.176C66.376,167.727 65.875,164.278 65.374,160.829C64.583,155.374 63.788,149.92 62.991,144.466C61.733,135.841 60.477,127.217 59.223,118.592C56.976,103.136 54.724,87.681 52.469,72.226C51.679,66.804 50.89,61.382 50.102,55.96C49.612,52.59 49.121,49.22 48.63,45.851C48.403,44.289 48.176,42.727 47.949,41.164C47.64,39.032 47.329,36.899 47.018,34.767C46.758,32.977 46.758,32.977 46.492,31.151C46.065,28.414 45.569,25.71 45,23C44.867,23.893 44.734,24.786 44.597,25.706C41.361,47.422 38.123,69.138 34.882,90.853C33.315,101.354 31.748,111.856 30.184,122.357C28.82,131.509 27.456,140.661 26.089,149.812C25.365,154.659 24.642,159.506 23.921,164.353C23.242,168.913 22.561,173.474 21.88,178.034C21.629,179.709 21.38,181.384 21.131,183.06C20.792,185.345 20.45,187.629 20.107,189.913C19.916,191.193 19.726,192.472 19.529,193.79C19,197 19,197 18,201L-37,201C-33.483,179.523 -29.7,158.114 -25.736,136.716C-24.944,132.441 -24.155,128.164 -23.366,123.888C-22.045,116.734 -20.722,109.581 -19.398,102.428C-17.874,94.2 -16.354,85.971 -14.835,77.741C-13.36,69.745 -11.882,61.749 -10.403,53.753C-9.78,50.382 -9.157,47.01 -8.535,43.639C-7.803,39.672 -7.069,35.706 -6.333,31.74C-6.066,30.298 -5.8,28.855 -5.534,27.413C-5.167,25.422 -4.798,23.432 -4.428,21.442C-4.223,20.336 -4.019,19.23 -3.808,18.091C-2.614,12.045 -1.291,6.026 0,0Z" style="fill:rgb(19,40,159);fill-rule:nonzero;"/>
    </g>
    <g transform="matrix(1,0,0,1,719.753,27.184)">
        <path d="M0,0C2.047,0.003 4.093,-0.02 6.139,-0.046C24.962,-0.136 43.355,3.754 57.212,17.226C69.785,30.597 68.247,46.203 68.247,64.316L18.247,64.316C17.917,58.706 17.587,53.096 17.247,47.316C15.59,42.7 14.578,40.347 10.747,37.378C5.339,35.08 -0.196,34.188 -5.909,35.999C-10.691,38.149 -13.664,40.353 -15.753,45.316C-16.46,51.094 -16.641,56.318 -14.253,61.691C-8.163,68.086 -1.728,72.819 5.997,77.066C7.36,77.832 7.36,77.832 8.751,78.614C13.334,81.182 17.943,83.697 22.571,86.183C42.506,96.91 63.575,109.025 71.52,131.48C75.99,148.926 74.665,171.531 65.594,187.163C56.113,201.26 41.52,208.096 25.247,211.316C18.303,212.444 11.457,212.537 4.444,212.556C2.28,212.566 0.117,212.597 -2.046,212.628C-22.679,212.785 -41.457,207.793 -57.003,193.628C-71.169,178.776 -69.753,158.759 -69.753,139.316L-15.753,139.316C-15.258,151.691 -15.258,151.691 -14.753,164.316C-13.268,166.791 -13.268,166.791 -11.753,169.316L-11.753,171.316C-10.093,171.999 -8.425,172.662 -6.753,173.316C-5.361,173.873 -5.361,173.873 -3.941,174.441C3.358,176.444 8.522,175.194 15.247,172.316C16.237,171.986 17.227,171.656 18.247,171.316C19.431,168.939 19.431,168.939 20.247,166.316C20.577,165.326 20.907,164.336 21.247,163.316C21.886,155.558 22.125,149.57 17.247,143.316C16.831,142.781 16.414,142.246 15.985,141.695C7.155,131.659 -7.018,125.568 -18.503,119.191C-35.173,109.932 -35.173,109.932 -42.753,104.316C-43.688,103.625 -44.622,102.934 -45.585,102.222C-58.015,92.564 -66.726,81.292 -68.753,65.316C-69.715,48.462 -67.829,32.449 -56.628,19.128C-41.713,3.477 -20.762,-0.067 0,0Z" style="fill:rgb(19,40,159);fill-rule:nonzero;"/>
    </g>
</svg>
