<?xml version="1.0" encoding="UTF-8"?>
<svg id="_레이어_2" data-name="레이어 2" xmlns="http://www.w3.org/2000/svg" xmlns:xlink="http://www.w3.org/1999/xlink" viewBox="0 0 326.8 341.17">
  <defs>
    <style>
      .cls-1 {
        fill: #0046ff;
      }

      .cls-2 {
        clip-path: url(#clippath);
      }
    </style>
    <clipPath id="clippath">
      <path class="cls-1" d="M144.44,155.47c-9.29-.91-20.39-3.84-30.06-12.21-8.9-7.67-14.4-18.23-17.08-27.54-2.73-9.5-3.89-20.6.64-19.73,1.38.27,3.79,6.37,6.41,10.83,2.71,4.59,4.88,7.13,6.94,8.69.93.7,4.1-6.35,8.73-10.37,2.69-2.22,5.6-2.98,6.1,3.64.56,8.1-.9,17.75,1.48,17.75,2.18,0,7.18-1.66,18.14-2.6,4.11-.35,6.46.44,2.54,5.95-1.97,2.77-4.58,6.68-10.79,11.14,9.31,8.72,20.47,7.66,20.69,11.38.12,2.12-4.05,3.3-9.51,3.3-1.35,0-2.76-.07-4.23-.21M175.78,77.09c-8.53-1.78-10.28-9.52-10.28-9.52-.7-2.73-.88-6.18-.3-10.57,1.14-9.2,3.65-13.49,6.48-20.63,3.79-9.57-5.44-15.17-3.93-18.67,2.07-4.76,8.66,1.28,16.05,1.74,6.32.34,10.14.04,15.07.69,6.56.86,14.38,3.09,17.88,7.18,3.2,3.75-1.7,8.31-7.55,5.46-4.3-2.1-9.71-.82-6.53,3.66,3.8,4.26,5.63,4.37,9.53,5.39,10.72,2.83,10.94,13.11,3.68,18.41-8.24,6.04-16.63,3.53-19.96-8.31-1.68-5.92-5.84-8.93-10.14-7.24-4.24,1.67-1.73,9.45,1.52,16.66,5.59,14.31-5.74,15.82-10.08,15.82-.67,0-1.18-.05-1.43-.08M169.63,158.16c-.1-1.91,2.69-2.37,2.69-2.37,24.89-4.92,17.61-21.23,8.81-29.56-3.71-3.49-38.36-33.4-38.36-33.4-33.03-28.44-30.39-50.64-30.39-50.64,1.62-27.34,25.52-34.11,43.62-32.53,2.12.18,3.31,1.45,2.92,3.23-.38,1.93-3.19,2.06-3.19,2.06-5.76.35-10.93.93-14.83,3.58-14.57,9.8-10.3,26.5,9.15,45.08,2.45,2.34,5.05,4.8,7.74,7.31,0,0,3.89,3.44,11.68,10.83,14.95,13.77,23.14,21.2,23.14,21.2,26.38,21.96,17.34,42.04,7.29,49-7.69,5.33-16.2,7.83-27.37,8.43-.09.01-.19.02-.29.02-1.02,0-2.56-.62-2.62-2.24M159.58.09c-46.42,2.09-82.34,41.44-80.24,87.86,2.1,46.42,41.44,82.35,87.87,80.25,46.41-2.09,82.35-41.42,80.25-87.85C245.44,35.2,208.18,0,163.44,0c-1.28,0-2.57.03-3.85.09"/>
    </clipPath>
  </defs>
  <g id="Layer_1" data-name="Layer 1">
    <g>
      <path class="cls-1" d="M144.44,155.47c-9.29-.91-20.39-3.84-30.06-12.21-8.9-7.67-14.4-18.23-17.08-27.54-2.73-9.5-3.89-20.6.64-19.73,1.38.27,3.79,6.37,6.41,10.83,2.71,4.59,4.88,7.13,6.94,8.69.93.7,4.1-6.35,8.73-10.37,2.69-2.22,5.6-2.98,6.1,3.64.56,8.1-.9,17.75,1.48,17.75,2.18,0,7.18-1.66,18.14-2.6,4.11-.35,6.46.44,2.54,5.95-1.97,2.77-4.58,6.68-10.79,11.14,9.31,8.72,20.47,7.66,20.69,11.38.12,2.12-4.05,3.3-9.51,3.3-1.35,0-2.76-.07-4.23-.21M175.78,77.09c-8.53-1.78-10.28-9.52-10.28-9.52-.7-2.73-.88-6.18-.3-10.57,1.14-9.2,3.65-13.49,6.48-20.63,3.79-9.57-5.44-15.17-3.93-18.67,2.07-4.76,8.66,1.28,16.05,1.74,6.32.34,10.14.04,15.07.69,6.56.86,14.38,3.09,17.88,7.18,3.2,3.75-1.7,8.31-7.55,5.46-4.3-2.1-9.71-.82-6.53,3.66,3.8,4.26,5.63,4.37,9.53,5.39,10.72,2.83,10.94,13.11,3.68,18.41-8.24,6.04-16.63,3.53-19.96-8.31-1.68-5.92-5.84-8.93-10.14-7.24-4.24,1.67-1.73,9.45,1.52,16.66,5.59,14.31-5.74,15.82-10.08,15.82-.67,0-1.18-.05-1.43-.08M169.63,158.16c-.1-1.91,2.69-2.37,2.69-2.37,24.89-4.92,17.61-21.23,8.81-29.56-3.71-3.49-38.36-33.4-38.36-33.4-33.03-28.44-30.39-50.64-30.39-50.64,1.62-27.34,25.52-34.11,43.62-32.53,2.12.18,3.31,1.45,2.92,3.23-.38,1.93-3.19,2.06-3.19,2.06-5.76.35-10.93.93-14.83,3.58-14.57,9.8-10.3,26.5,9.15,45.08,2.45,2.34,5.05,4.8,7.74,7.31,0,0,3.89,3.44,11.68,10.83,14.95,13.77,23.14,21.2,23.14,21.2,26.38,21.96,17.34,42.04,7.29,49-7.69,5.33-16.2,7.83-27.37,8.43-.09.01-.19.02-.29.02-1.02,0-2.56-.62-2.62-2.24M159.58.09c-46.42,2.09-82.34,41.44-80.24,87.86,2.1,46.42,41.44,82.35,87.87,80.25,46.41-2.09,82.35-41.42,80.25-87.85C245.44,35.2,208.18,0,163.44,0c-1.28,0-2.57.03-3.85.09"/>
      <g class="cls-2">
        <rect class="cls-1" x="77.24" width="172.32" height="170.29"/>
      </g>
    </g>
    <path class="cls-1" d="M2.64,252.48c4.83,3.87,12.48,6.28,17.8,6.28,6.52,0,10.47-2.82,10.47-8.21,0-4.19-1.69-6.85-7.01-9.5-6.13-3.14-11.11-5.08-15.79-9.02-4.19-3.7-7.16-8.22-7.16-14.9,0-9.34,7.73-15.86,20.62-15.86,7.08,0,13.04,1.12,18.6,3.54v9.9c0,1.45-1.37,1.93-2.5.97-4.5-3.78-9.18-5.56-14.5-5.56-5.72,0-8.94,2.66-8.94,7,0,3.14,1.12,5.32,3.22,7.01,4.03,3.3,9.02,5.72,13.45,7.81,8.37,3.94,13.29,8.61,13.29,18.44,0,12.24-10.39,17.31-23.6,17.31-9.75,0-22.07-4.67-20.45-8.7l2.49-6.52Z"/>
    <path class="cls-1" d="M51.37,202.11h13.77v22.47c3.38-2.9,7.65-4.67,12.73-4.67,10.15,0,16.83,5.88,16.83,14.42v32.37h-12.64v-30.68c0-4.59-2.34-6.68-7.33-6.68-3.3,0-6.36,1.45-9.58,3.78v33.58h-12.64v-56.53c0-2.74-.41-4.1-2.02-5.8-.96-1.21-.31-2.25.9-2.25"/>
    <path class="cls-1" d="M118.45,221.44v45.26h-12.64v-37.29c0-2.58-.57-3.94-2.01-5.63-.97-1.21-.32-2.34.81-2.34h13.85ZM118.93,207.1c0,4.35-3.22,7.65-7.65,7.65s-7.65-3.31-7.65-7.65,3.22-7.65,7.65-7.65c4.43,0,7.65,3.3,7.65,7.65"/>
    <path class="cls-1" d="M128.76,221.44h13.45v4.43c3.3-3.22,7.33-5.96,12.96-5.96,9.58,0,16.92,5.4,16.92,15.3v31.49h-12.65v-30.36c0-5.08-2.25-7.33-7.33-7.33-3.54,0-6.6,1.45-9.5,4.03v33.66h-12.64v-37.13c0-2.74-.48-4.11-2.01-5.8-1.05-1.21-.41-2.34.8-2.34"/>
    <path class="cls-1" d="M181.67,202.11h13.77v22.47c3.38-2.9,7.65-4.67,12.72-4.67,10.15,0,16.84,5.88,16.84,14.42v32.37h-12.64v-30.68c0-4.59-2.34-6.68-7.34-6.68-3.29,0-6.36,1.45-9.57,3.78v33.58h-12.65v-56.53c0-2.74-.4-4.1-2.02-5.8-.96-1.21-.32-2.25.89-2.25"/>
    <path class="cls-1" d="M253.67,228.45c-4.91,0-10.07,2.25-13.69,4.59-1.77,1.2-2.82.56-2.82-1.29v-8.46c4.75-2.09,11.92-3.38,17.32-3.38,12.48,0,19.65,4.83,19.65,14.82v31.97h-12.41v-4.91c-3.54,4.35-8.61,6.36-14.01,6.36-9.02,0-15.22-5.8-15.22-14.34,0-9.66,6.69-15.7,20.86-15.7h8.13v-3.39c0-4.43-2.82-6.28-7.81-6.28M261.48,246.49h-8.22c-6.2,0-8.61,2.82-8.61,7.09,0,3.54,2.09,5.96,5.8,5.96,4.35,0,8.22-2.02,11.03-5.24v-7.81h0Z"/>
    <path class="cls-1" d="M283.47,221.44h13.45v4.43c3.31-3.22,7.33-5.96,12.97-5.96,9.58,0,16.91,5.4,16.91,15.3v31.49h-12.65v-30.36c0-5.08-2.25-7.33-7.33-7.33-3.54,0-6.59,1.45-9.5,4.03v33.66h-12.64v-37.13c0-2.74-.48-4.11-2.01-5.8-1.05-1.21-.41-2.34.8-2.34"/>
    <path class="cls-1" d="M84.3,290.55h17.45c10.4,0,17,4.76,17,12.43,0,4.82-1.9,8.37-5.58,10.59,5.14,1.97,8.25,5.71,8.25,12.3,0,9.33-7.55,14.15-18.9,14.15h-17.25v-43.07c0-2.16-.38-3.24-1.59-4.57-.76-.95-.25-1.84.64-1.84M95.59,310.73h5.45c4.76,0,7.36-1.78,7.36-6.54s-2.6-6.6-7.55-6.6h-5.27v13.13h0ZM110.75,325.32c0-5.27-2.92-7.55-8.88-7.55h-6.28v15.22h6.34c5.96,0,8.82-2.35,8.82-7.67"/>
    <path class="cls-1" d="M142.21,309.9c-3.87,0-7.93,1.78-10.78,3.62-1.4.95-2.22.44-2.22-1.02v-6.66c3.74-1.65,9.39-2.66,13.64-2.66,9.83,0,15.48,3.81,15.48,11.67v25.18h-9.77v-3.87c-2.79,3.43-6.79,5.01-11.04,5.01-7.1,0-11.98-4.57-11.98-11.29,0-7.61,5.26-12.37,16.42-12.37h6.41v-2.67c0-3.49-2.22-4.94-6.15-4.94M148.37,324.11h-6.47c-4.88,0-6.79,2.22-6.79,5.58,0,2.79,1.65,4.69,4.57,4.69,3.42,0,6.47-1.59,8.69-4.12v-6.15h0Z"/>
    <path class="cls-1" d="M165.69,304.38h10.59v3.49c2.6-2.54,5.78-4.7,10.22-4.7,7.55,0,13.32,4.25,13.32,12.05v24.81h-9.96v-23.92c0-4-1.78-5.77-5.78-5.77-2.79,0-5.2,1.14-7.48,3.17v26.51h-9.96v-29.24c0-2.16-.38-3.24-1.58-4.57-.83-.95-.32-1.84.63-1.84"/>
    <path class="cls-1" d="M208.25,340.03v-44.53c0-2.16-.32-3.24-1.59-4.57-.76-.95-.25-1.78.7-1.78h10.85v29.18l12.62-13.96h11.42l-13.64,15.22,15.29,20.42h-10.97l-10.97-14.91c-1.14-1.59-1.65-1.84-2.85-1.84h-.89v16.75h-9.96Z"/>
  </g>
</svg>