<svg xmlns="http://www.w3.org/2000/svg" id="_레이어_1" version="1.1" viewBox="0 0 1092.7296559 338.364755"><defs><style>.st0{fill:#1428a0}</style></defs><path d="M965.126 71.526c29.829.47 50.948 18.77 51.144 46.857h76.275s7.946-80.972-80.405-110.742C979.963-3.203 928.545-5.356 884.37 20.402c-36.72 21.393-69.19 58.738-91.15 116.32-9.885 25.934-17.635 68.427-10.766 108.257 6.498 37.736 30.417 71.97 73.516 85.866 41.983 13.544 98.078 8.22 133.505-11.372 41.964-23.194 76.275-66.528 87.96-110.077H996.99s-11.509 43.275-56.252 56.193c-21.256 6.127-65.275 6.166-80.248-31.316-8.22-20.59-4.717-71.264 25.092-115.048 11.646-17.126 37.286-48.365 79.544-47.699M679.072 13.79 575.649 210.83 558.895 13.79H337.958l-4.306 20.317h107.435l-4.364 20.492h-107.71l-4.325 20.317h107.709l-4.365 20.551H320.088l-4.325 20.689H501.39l17.225 202.362h66.703l107.376-204.555-43.392 204.555h82.694l64.61-304.728z" class="st0"/><path d="M230.175 147.196c-35.29-7.555-62.456-13.916-79.328-20.453-8.651-3.367-17.928-7.36-22.254-14.347-4.541-7.34-3.308-19.318 3.953-27.813 5.618-6.596 16.637-14.738 35.25-16.422 16.5-1.487 31.709 1.547 43.688 8.515 16.088 9.355 24.759 25.953 25.502 39.439h77.86s-6.81-88.626-98.705-111.076C175.117-4.962 116.007.46 77.097 33.968 53.16 54.598 35.505 87.42 45.233 124.276c7.34 27.911 27.401 49.93 70.09 64.825 17.517 6.107 62.104 17.635 70.363 20.101 10.12 3.034 21.961 7.908 21.198 23.448-.588 11.783-6.714 21.628-21.354 29.125-13.466 6.89-52.475 15.99-81.834-1.057-15.6-9.062-25.522-28.479-26.305-42.356H0s2.368 21.12 10.942 42.297c9.199 22.704 29.476 54.334 74.806 69.229 45.311 14.895 105.204 9.297 145.465-14.876 37.286-22.39 53.16-55.978 59.5-76.548h105.595l-4.521 20.57H284.372l-4.325 20.317h107.297l-4.482 20.551H275.428l-4.326 20.317h184.492l22.372-102.111-263.997.235 4.991-20.747h263.468l4.287-20.317H223.834l4.971-20.59h262.548l4.326-20.336H232.485z" class="st0"/></svg>