<svg width="842" height="353" xmlns="http://www.w3.org/2000/svg" xmlns:xlink="http://www.w3.org/1999/xlink" overflow="hidden"><path d="M0 0C16.1216-0.54628 31.7799-0.834166 46 8 46.5891 8.35707 47.1782 8.71414 47.7852 9.08203 51.1346 11.2831 53.6819 13.6756 56.25 16.75 67.1219 29.5221 81.5558 37.1409 98 40 102.992 40.2992 107.948 40.2857 112.946 40.1949 115.4 40.1513 117.853 40.1285 120.307 40.1107 126.397 40.0631 132.486 39.9863 138.576 39.9002 143.74 39.8273 148.904 39.7707 154.068 39.7373 156.462 39.7154 158.854 39.67 161.248 39.6238 173.14 39.4891 184.762 40.766 194 49 198.829 55.5992 198.697 62.9394 197.615 70.7986 197.073 73.8135 196.474 76.8101 195.848 79.8086 195.628 80.8971 195.408 81.9857 195.182 83.1072 194.485 86.5525 193.774 89.9949 193.062 93.4375 192.588 95.7752 192.115 98.1131 191.643 100.451 190.777 104.711 189.911 108.971 189.031 113.228 188.856 114.08 188.681 114.931 188.5 115.808 188 118 188 118 187 121 178.454 121.093 169.909 121.164 161.363 121.207 157.393 121.228 153.424 121.256 149.455 121.302 145.617 121.346 141.779 121.369 137.94 121.38 136.484 121.387 135.027 121.401 133.571 121.423 125.535 121.538 118.62 121.117 111.146 117.861 108.921 116.814 108.921 116.814 106 117 104.306 117.755 102.641 118.575 101 119.438 96.6691 121.7 93.3586 123.127 88.4368 123.114 87.516 123.113 86.5953 123.113 85.6467 123.113 84.656 123.108 83.6653 123.103 82.6445 123.098 81.6278 123.096 80.611 123.095 79.5634 123.093 76.3131 123.088 73.0628 123.075 69.8125 123.062 67.61 123.057 65.4076 123.053 63.2051 123.049 57.8034 123.038 52.4017 123.021 47 123 46.9391 123.662 46.8782 124.325 46.8154 125.007 46.3941 129.428 45.976 133.788 45.0273 138.133 44.8674 138.879 44.7075 139.626 44.5427 140.395 44.343 141.296 44.1433 142.197 43.9375 143.125 43.2981 146.054 42.6587 148.982 42 152 33.42 152 24.84 152 16 152 17.4122 142.398 19.1212 132.882 21.0039 123.363 21.2903 121.907 21.5765 120.451 21.8625 118.994 22.4566 115.973 23.0527 112.952 23.6501 109.931 24.4162 106.057 25.1771 102.182 25.9365 98.3067 26.5238 95.3132 27.1138 92.3203 27.7046 89.3276 27.9866 87.8976 28.2677 86.4674 28.5479 85.037 28.9374 83.0506 29.331 81.0649 29.7249 79.0793 29.9475 77.9505 30.1702 76.8217 30.3997 75.6586 31 73 31 73 32 71 40.841 70.907 49.6818 70.8361 58.5231 70.7927 62.6293 70.7719 66.7351 70.7438 70.8411 70.6982 74.8093 70.6545 78.7771 70.6308 82.7455 70.6205 84.2537 70.6131 85.7619 70.5988 87.2699 70.5771 101.644 70.3784 101.644 70.3784 108.202 74.2364 110.53 75.2251 111.659 74.8401 114 74 115.942 73.0752 117.817 72.0602 119.707 71.0352 126.235 68.0881 132.022 67.724 139.09 67.8047 140.507 67.8089 140.507 67.8089 141.952 67.8133 144.947 67.8244 147.942 67.8495 150.938 67.875 152.977 67.885 155.017 67.8942 157.057 67.9023 162.038 67.9243 167.019 67.9588 172 68 170.271 62.8424 170.271 62.8424 166.519 59.0945 161.553 57.55 156.87 57.52 151.695 57.4883 150.616 57.4703 149.537 57.4524 148.425 57.4339 144.992 57.3799 141.559 57.3459 138.125 57.3125 135.792 57.2793 133.458 57.2448 131.125 57.209 125.417 57.1241 119.709 57.0573 114 57 114.66 52.71 115.32 48.42 116 44 114.563 44.7966 114.563 44.7966 113.098 45.6094 91.2461 57.3688 67.0418 59.6883 43.0762 52.6416 31.5261 49.0723 21.2949 44.3378 11 38 11 37.01 11 36.02 11 35 16.9804 33.2805 22.8076 31.688 29 31 26.2098 28.1226 23.3578 25.4193 20.3125 22.8125 17.0833 19.9984 13.9498 17.1074 10.875 14.125 10.0887 13.3645 9.30234 12.6039 8.49219 11.8203 5.23976 8.13966 2.63771 4.13433 0 0ZM127.938 91.375C126.706 94.8235 126.752 96.549 128 100 132.436 103.656 135.454 104.488 141.148 104.391 141.806 104.385 142.463 104.379 143.141 104.373 145.219 104.351 147.297 104.301 149.375 104.25 150.793 104.23 152.211 104.212 153.629 104.195 157.087 104.151 160.543 104.083 164 104 165.549 99.7185 166.482 95.6293 167.125 91.125 167.293 89.9726 167.46 88.8202 167.633 87.6328 167.815 86.3296 167.815 86.3296 168 85 163.874 84.9003 159.749 84.8281 155.622 84.7803 154.222 84.7603 152.821 84.7331 151.421 84.6982 138.368 84.257 138.368 84.257 127.938 91.375ZM54 88C53.4952 90.4158 52.996 92.8324 52.5 95.25 52.3569 95.9319 52.2138 96.6138 52.0664 97.3164 51.3875 100.646 51 103.583 51 107 55.4999 107.088 59.9995 107.141 64.5 107.188 65.7684 107.213 67.0369 107.238 68.3438 107.264 79.1357 107.418 79.1357 107.418 88.6155 102.724 91.3449 99.9433 91.9933 98.197 92.125 94.3125 91.31 90.9396 91.31 90.9396 88.8977 89.3113 85.2432 87.6575 82.5174 87.6592 78.5117 87.707 77.8085 87.7113 77.1053 87.7155 76.3808 87.7199 74.1493 87.7366 71.9187 87.7742 69.6875 87.8125 68.1686 87.8276 66.6497 87.8412 65.1309 87.8535 61.4203 87.8865 57.7102 87.9382 54 88Z" fill="#00548C" transform="translate(395 41)"/><path d="M0 0C1.08402 0.00523682 2.16804 0.0104736 3.28491 0.0158691 4.45474 0.0190918 5.62456 0.0223144 6.82983 0.0256348 8.06153 0.0340137 9.29323 0.0423926 10.5623 0.0510254 12.4156 0.057793 12.4156 0.057793 14.3064 0.0646973 17.3709 0.0765293 20.4353 0.0930137 23.4998 0.113525 23.387 0.667611 23.2743 1.2217 23.1581 1.79257 21.9786 7.59859 20.8127 13.4072 19.6545 19.2175 19.2215 21.381 18.785 23.5438 18.345 25.7058 17.7104 28.8269 17.0883 31.9504 16.4685 35.0745 16.2716 36.029 16.0748 36.9836 15.8719 37.9671 14.4279 45.3417 13.4097 52.7744 15.4998 60.1135 19.2763 61.3021 22.935 61.3163 26.8748 61.3635 28.8045 61.4022 28.8045 61.4022 30.7732 61.4417 35.8671 60.9931 39.0199 59.6783 42.5469 55.949 44.8372 52.6235 45.6108 49.8792 46.5193 45.9495 46.682 45.2558 46.8447 44.5622 47.0124 43.8475 48.9326 35.5196 50.5631 27.1282 52.1873 18.7385 52.6474 16.3697 53.1088 14.0011 53.5737 11.6331 53.8593 10.178 54.1421 8.72231 54.4218 7.26602 55.3874 2.33823 55.3874 2.33823 56.4998 0.113525 64.4198 0.113525 72.3398 0.113525 80.4998 0.113525 79.3736 10.2488 79.3736 10.2488 78.5476 14.4746 78.2716 15.8967 78.2716 15.8967 77.9901 17.3475 77.7922 18.3415 77.5943 19.3355 77.3904 20.3596 77.1817 21.4108 76.973 22.4619 76.758 23.5449 76.3165 25.7565 75.8726 27.9676 75.4265 30.1782 74.753 33.5351 74.099 36.8954 73.4451 40.2561 73.0114 42.4159 72.5765 44.5754 72.1404 46.7346 71.9506 47.7266 71.7608 48.7186 71.5652 49.7406 69.269 60.8504 65.0698 69.657 55.4998 76.1135 45.4816 81.2308 36.973 82.3137 25.8748 82.3635 24.7494 82.3841 23.6241 82.4048 22.4646 82.426 11.5358 82.4766 0.111115 80.6465-8.51196 73.4299-13.5821 68.3186-14.4125 64.223-14.5002 57.1135-14.0095 52.6582-13.1364 48.309-12.2268 43.9221-11.862 42.0824-11.862 42.0824-11.4898 40.2056-10.8463 36.9767-10.1901 33.7508-9.52802 30.5257-8.9883 27.8796-8.46234 25.2309-7.93685 22.582-7.30964 19.4235-6.67469 16.2665-6.03931 13.1096-5.80072 11.9212-5.56213 10.7328-5.31631 9.50841-5.09293 8.4196-4.86955 7.33079-4.6394 6.20898-4.34509 4.76531-4.34509 4.76531-4.04483 3.29247-3.28097 0.236169-3.20354 0.145459 0 0Z" fill="#00548D" transform="translate(293.5 111.886)"/><path d="M0 0C8.84097-0.0929946 17.6818-0.163913 26.5231-0.207249 30.6293-0.228056 34.7351-0.256245 38.8411-0.301758 42.8093-0.345464 46.7771-0.369189 50.7455-0.379509 52.2537-0.386856 53.7619-0.401203 55.2699-0.42292 63.5575-0.53744 70.7309-0.448937 78 4 78 8.33789 77.5382 9.12851 75.125 12.5 69.944 19.8084 69.2491 24.9777 70 34 71.3279 37.5611 72.3551 39.3551 75 42 74.9297 43.957 74.9297 43.957 74 46 71.8203 47.4492 71.8203 47.4492 69.125 48.6875 68.2407 49.1039 67.3564 49.5202 66.4453 49.9492 62.9264 51.4613 60.2369 52.1239 56.4368 52.1135 55.516 52.1134 54.5953 52.1134 53.6467 52.1133 52.656 52.1081 51.6653 52.103 50.6445 52.0977 49.6278 52.0962 48.611 52.0948 47.5634 52.0934 44.3131 52.0878 41.0628 52.0752 37.8125 52.0625 35.61 52.0575 33.4076 52.0529 31.2051 52.0488 25.8034 52.0378 20.4017 52.0211 15 52 14.9391 52.6623 14.8782 53.3247 14.8154 54.007 14.3941 58.4284 13.976 62.7876 13.0273 67.1328 12.8674 67.8793 12.7075 68.6259 12.5427 69.395 12.343 70.2959 12.1433 71.1968 11.9375 72.125 11.2981 75.0537 10.6587 77.9825 10 81 1.42 81-7.16 81-16 81-14.5878 71.398-12.8788 61.8817-10.9961 52.3633-10.7097 50.9069-10.4235 49.4506-10.1375 47.9942-9.54336 44.9727-8.94731 41.9517-8.34985 38.9309-7.58383 35.0569-6.82295 31.182-6.06348 27.3067-5.47622 24.3132-4.88621 21.3203-4.29537 18.3276-4.01341 16.8976-3.73233 15.4674-3.45215 14.037-3.06262 12.0506-2.66899 10.0649-2.27515 8.07935-2.05246 6.95051-1.82977 5.82168-1.60033 4.65865-1 2-1 2 0 0ZM22 17C21.4952 19.4158 20.996 21.8324 20.5 24.25 20.3569 24.9319 20.2138 25.6138 20.0664 26.3164 19.3875 29.6463 19 32.5833 19 36 23.4999 36.0877 27.9995 36.1406 32.5 36.1875 33.7684 36.2126 35.0369 36.2378 36.3438 36.2637 47.1357 36.4181 47.1357 36.4181 56.6155 31.7244 59.3449 28.9433 59.9933 27.197 60.125 23.3125 59.31 19.9396 59.31 19.9396 56.8977 18.3113 53.2432 16.6575 50.5174 16.6592 46.5117 16.707 45.8085 16.7113 45.1053 16.7155 44.3808 16.7199 42.1493 16.7366 39.9187 16.7742 37.6875 16.8125 36.1686 16.8276 34.6497 16.8412 33.1309 16.8535 29.4203 16.8865 25.7102 16.9382 22 17Z" fill="#00548C" transform="translate(427 112)"/><path d="M0 0C16.1216-0.54628 31.7799-0.834166 46 8 46.5891 8.35707 47.1782 8.71414 47.7852 9.08203 51.1346 11.2831 53.6819 13.6756 56.25 16.75 67.294 29.7243 83.3261 38.7532 100.465 40.2095 106.307 40.606 112.148 40.8323 118 41 114.319 45.1124 110.673 47.4834 105.562 49.625 104.852 49.9235 104.142 50.222 103.41 50.5295 79.2391 60.3463 52.6147 57.3224 28.8594 47.7266 22.6082 45.0407 16.7844 41.561 11 38 11 37.01 11 36.02 11 35 16.9804 33.2805 22.8076 31.688 29 31 26.2098 28.1226 23.3578 25.4193 20.3125 22.8125 17.0833 19.9984 13.9498 17.1074 10.875 14.125 10.0887 13.3645 9.30234 12.6039 8.49219 11.8203 5.23976 8.13966 2.63771 4.13433 0 0Z" fill="#E51873" transform="translate(395 41)"/><path d="M0 0C4.29 0 8.58 0 13 0 13 3.96 13 7.92 13 12 20.26 12 27.52 12 35 12 35 8.04 35 4.08 35 0 39.29 0 43.58 0 48 0 48 12.54 48 25.08 48 38 42.39 38 36.78 38 31 38 31 41.96 31 45.92 31 50 41.56 50 52.12 50 63 50 63 52.97 63 55.94 63 59 37.26 59 11.52 59-15 59-15 56.03-15 53.06-15 50-4.44 50 6.12 50 17 50 17 46.04 17 42.08 17 38 15.9404 38.0232 14.8808 38.0464 13.7891 38.0703 12.401 38.0891 11.013 38.1073 9.625 38.125 8.92633 38.1418 8.22766 38.1585 7.50781 38.1758 5.67103 38.1934 3.83398 38.103 2 38 0 36 0 36-0.227051 32.4683-0.226734 30.9554-0.215406 29.4424-0.195312 27.9297-0.192483 27.1335-0.189653 26.3372-0.186737 25.5169-0.175526 22.9694-0.150421 20.4223-0.125 17.875-0.114971 16.1497-0.105845 14.4245-0.0976562 12.6992-0.0755842 8.46601-0.0410487 4.23306 0 0ZM13 21C13 23.64 13 26.28 13 29 20.26 29 27.52 29 35 29 35 26.36 35 23.72 35 21 27.74 21 20.48 21 13 21Z" fill="#00548D" transform="translate(322 232)"/><path d="M0 0C25.41 0 50.82 0 77 0 77 2.97 77 5.94 77 9 66.44 9 55.88 9 45 9 45 10.98 45 12.96 45 15 50.28 15 55.56 15 61 15 61.0268 18.3126 61.0468 21.6249 61.0625 24.9375 61.0709 25.883 61.0793 26.8286 61.0879 27.8027 61.0911 28.7019 61.0943 29.601 61.0977 30.5273 61.1029 31.36 61.1081 32.1926 61.1135 33.0505 61 35 61 35 60 36 57.7085 36.0879 55.4143 36.1069 53.1211 36.0977 52.0911 36.0955 52.0911 36.0955 51.0403 36.0934 48.8393 36.0878 46.6384 36.0752 44.4375 36.0625 42.9486 36.0575 41.4596 36.0529 39.9707 36.0488 36.3138 36.0378 32.6569 36.0205 29 36 29 37.65 29 39.3 29 41 39.89 41 50.78 41 62 41 62 43.97 62 46.94 62 50 55.7704 50.0493 49.5408 50.0857 43.311 50.1099 41.1906 50.1199 39.0701 50.1336 36.9497 50.1509 33.9065 50.1751 30.8636 50.1865 27.8203 50.1953 26.3921 50.2108 26.3921 50.2108 24.9351 50.2266 24.0543 50.2267 23.1736 50.2269 22.2661 50.2271 21.4889 50.2315 20.7117 50.2359 19.9109 50.2405 18 50 18 50 16 48 15.7729 45.937 15.7729 45.937 15.8047 43.4297 15.8097 42.6226 15.8147 41.8155 15.8198 40.9839 15.8471 39.445 15.8471 39.445 15.875 37.875 15.9163 34.6162 15.9575 31.3575 16 28 26.56 28 37.12 28 48 28 48 26.35 48 24.7 48 23 36.78 23 25.56 23 14 23 14 20.36 14 17.72 14 15 19.94 15 25.88 15 32 15 32 13.02 32 11.04 32 9 21.44 9 10.88 9 0 9 0 6.03 0 3.06 0 0Z" fill="#00548D" transform="translate(69 263)"/><path d="M0 0C1.56319 0.00785522 1.56319 0.00785522 3.15796 0.0158691 4.1706 0.0183667 5.18324 0.0208643 6.22656 0.0234375 7.52263 0.0325415 8.81871 0.0416455 10.1541 0.0510254 12.3727 0.0625134 14.5914 0.0736397 16.8101 0.0844727 19.7008 0.098999 19.7008 0.098999 22.5916 0.113525 19.2179 18.7254 15.5867 37.2734 11.7791 55.801 11.2717 58.2795 10.7645 60.758 10.2576 63.2366 9.0386 69.1962 7.815 75.1548 6.59155 81.1135-1.65845 81.1135-9.90845 81.1135-18.4084 81.1135-17.8003 75.0323-17.2073 69.4812-16.0256 63.5684-15.8905 62.8858-15.7555 62.2032-15.6163 61.4999-15.1767 59.2855-14.7303 57.0725-14.2834 54.8596-13.9731 53.307-13.663 51.7542-13.3533 50.2014-12.7074 46.9693-12.0582 43.7378-11.4065 40.5068-10.57 36.3585-9.74124 32.2086-8.91489 28.0581-8.27779 24.8621-7.63696 21.6668-6.99493 18.4718-6.68764 16.9405-6.38145 15.409-6.07635 13.8773-5.65174 11.7488-5.2222 9.62137-4.79126 7.49414-4.54779 6.28298-4.30432 5.07182-4.05347 3.82396-3.17912 0.149852-3.17912 0.149852 0 0Z" fill="#00548D" transform="translate(389.408 111.886)"/><path d="M0 0C4.62 0 9.24 0 14 0 14.0493 6.22964 14.0857 12.4592 14.1099 18.689 14.1199 20.8094 14.1336 22.9299 14.1509 25.0503 14.1751 28.0935 14.1865 31.1364 14.1953 34.1797 14.2056 35.1318 14.216 36.0839 14.2266 37.0649 14.2267 37.9457 14.2269 38.8264 14.2271 39.7339 14.2315 40.5111 14.2359 41.2883 14.2405 42.0891 14 44 14 44 12 46 7.98806 46.2778 4.02553 46.0857 0 46 0 39.4 0 32.8 0 26-2.64 26-5.28 26-8 26-8.04125 26.8456-8.0825 27.6912-8.125 28.5625-9.31289 33.2292-11.3236 35.9202-15 39-21.9923 43.1039-29.2892 44.321-37.1953 42.4922-43.0921 40.5415-47.2909 37.4497-50.875 32.3125-52.791 26.6711-52.7884 21.4115-50.9375 15.75-46.8971 10.0153-41.9546 6.00064-35.0078 4.59766-27.3483 3.41824-20.9794 4.31837-14.5625 8.8125-11.5954 11.2133-9.89861 13.1809-9 17-6.03 17-3.06 17 0 17 0 11.39 0 5.78 0 0ZM-35.8125 16.0625C-38.4432 19.5951-39 21.6091-39 26-37.4848 30.0152-36.5945 31.6037-33 34-29.2243 34.4119-26.9136 34.5529-23.625 32.5625-21.2652 28.8412-20.6585 25.3863-21 21-23.1947 16.7074-23.1947 16.7074-27 14-30.9939 13.4675-32.5174 13.6461-35.8125 16.0625Z" fill="#00548D" transform="translate(525 227)"/><path d="M0 0C4.29 0 8.58 0 13 0 13 3.3 13 6.6 13 10 19.27 10 25.54 10 32 10 32 6.7 32 3.4 32 0 36.29 0 40.58 0 45 0 45 11.88 45 23.76 45 36 39.0731 36.0688 33.1475 36.1286 27.2205 36.1648 25.2038 36.1799 23.1872 36.2004 21.1707 36.2263 18.2738 36.2627 15.3775 36.2797 12.4805 36.293 11.5773 36.3085 10.674 36.3239 9.74345 36.3399 8.48249 36.3402 8.48249 36.3402 7.19604 36.3406 6.45658 36.3472 5.71712 36.3539 4.95525 36.3608 2.40897 35.8909 1.53429 35.0587 0 33-0.261531 30.4123-0.349584 28.071-0.292969 25.4883-0.288724 24.7601-0.284479 24.0318-0.280106 23.2815-0.263327 20.9581-0.225679 18.6356-0.1875 16.3125-0.172452 14.7363-0.158764 13.1602-0.146484 11.584-0.113427 7.72232-0.0616519 3.86131 0 0ZM13 19C13 21.64 13 24.28 13 27 19.27 27 25.54 27 32 27 32 24.36 32 21.72 32 19 25.73 19 19.46 19 13 19Z" fill="#00548D" transform="translate(493 276)"/><path d="M0 0C4.62 0 9.24 0 14 0 14 1.98 14 3.96 14 6 20.27 6 26.54 6 33 6 33 8.97 33 11.94 33 15 31.02 15.33 29.04 15.66 27 16 27.3506 16.6806 27.7013 17.3612 28.0625 18.0625 29.278 21.871 29.0326 24.1451 28 28 24.2302 32.6075 19.8842 35.8572 14 37 4.76865 37.7602-3.30525 37.7711-11 32-13.7275 29.209-14.9735 27.5914-15.0391 23.6523-14.4709 17.4709-14.4709 17.4709-13 16-15.31 15.67-17.62 15.34-20 15-20 12.03-20 9.06-20 6-13.4 6-6.8 6 0 6 0 4.02 0 2.04 0 0ZM-1 18C-2.58612 20.257-2.58612 20.257-3 23-1.75071 26.16-0.650871 27.6022 2.25 29.375 5.91581 30.2081 8.36487 29.9737 12 29 15.0858 26.9154 15.0858 26.9154 17 24 17.0748 20.8602 16.4868 19.5882 14.5 17.1875 9.49278 14.8091 3.71936 15.0644-1 18Z" fill="#00548D" transform="translate(656 225)"/><path d="M0 0C4.47732 4.25457 6.14974 8.11668 6.3125 14.25 6.24191 20.93 4.52389 24.4761-0.25 29.25-6.90378 33.4842-13.1234 34.9156-21 34-27.8368 32.4363-32.838 29.0988-36.875 23.3125-38.791 17.6711-38.7884 12.4115-36.9375 6.75-33.0514 1.23424-27.9677-2.96083-21.375-4.6875-13.6338-5.40428-6.46514-4.5687 0 0ZM-21.8125 7C-24.4849 10.665-25.4781 13.4667-25 18-22.7877 22.2748-22.7877 22.2748-19 25-15.403 25.3997-13.4322 25.2209-10.1875 23.5625-7.51019 20.4262-7.04311 18.3092-6.78906 14.2578-7.12018 10.7137-8.70259 8.62561-11 6-15.1279 3.93603-18.1065 4.36461-21.8125 7Z" fill="#00548D" transform="translate(289 279)"/><path d="M0 0C3.64525 3.87308 4.97741 6.70179 5.0625 12.0625 4.03474 17.7206 0.714233 21.0893-3.76562 24.4492-11.9102 29.0185-23.2818 28.3137-32.1758 26.4648-37.7202 24.5214-42.3596 21.5082-45 16.125-46.0143 11.8036-45.99 8.07541-43.957 4.07031-33.5694-9.48895-13.1543-8.22146 0 0ZM-30 6.125C-31.4374 8.99971-31.3817 10.9439-31 14.125-28.2619 17.393-25.6594 18.412-21.5625 19.0625-17.2916 19.3686-14.5933 18.579-11 16.125-8.82134 12.857-8.27791 11.9159-9 8.125-12.1018 4.79627-14.0419 3.42664-18.375 2.0625-22.9733 2.14178-26.231 3.52345-30 6.125Z" fill="#00548D" transform="translate(684 285.875)"/><path d="M0 0C11.55 0 23.1 0 35 0 35 8.95833 35 8.95833 32.5 13.3125 30.4108 16.9134 30.4108 16.9134 30 21 31.9059 22.6577 33.7597 24.1111 35.8125 25.5625 36.3597 25.9615 36.9069 26.3604 37.4707 26.7715 39.9466 28.5691 42.4541 30.3027 45 32 45 32.66 45 33.32 45 34 43.216 35.2801 41.3715 36.4766 39.5 37.625 38.4791 38.2566 37.4581 38.8883 36.4062 39.5391 35.6122 40.0212 34.8181 40.5033 34 41 33.3464 40.4373 33.3464 40.4373 32.6797 39.8633 28.8139 36.5414 24.9234 33.2536 21 30 20.5269 30.4357 20.0538 30.8714 19.5664 31.3203 14.6665 35.7331 9.57164 39.479 4 43 1.13941 41.6406-0.859277 40.3548-3 38-1.45709 34.0848 0.997952 32.1079 4.1875 29.4375 10.3193 24.0067 15.3797 17.8608 18 10 12.06 9.67 6.12 9.34 0 9 0 6.03 0 3.06 0 0Z" fill="#00548D" transform="translate(552 232)"/><path d="M0 0C3.97811 2.96889 5.88543 6.19733 7.14844 10.9336 7.10507 15.0751 6.32016 18.4496 3.72656 21.7344-3.7037 28.6023-11.4034 29.4941-21.2148 29.2891-28.1794 28.6083-33.8171 25.8155-38.8516 20.9336-41.3662 16.6588-41.8549 12.7828-40.8516 7.93359-37.5125 1.64246-32.4028-1.3964-25.7461-3.44531-16.972-5.32802-7.87427-4.53518 0 0ZM-26.8516 8.93359C-28.1806 11.8243-28.1806 11.8243-27.8516 14.9336-25.8855 17.7875-24.2849 19.4548-20.9453 20.5703-16.1152 21.4342-13.016 20.7099-8.85156 17.9336-6.51721 15.049-6.51721 15.049-6.91406 11.4336-7.5379 7.90549-7.5379 7.90549-9.85156 5.99609-16.1525 3.7645-22.2596 3.48069-26.8516 8.93359Z" fill="#00548D" transform="translate(124.852 232.066)"/><path d="M0 0C11.55 0 23.1 0 35 0 33.875 10.125 33.875 10.125 31.4375 15.0625 30.7549 16.4721 30.7549 16.4721 30.0586 17.9102 29.5346 18.9446 29.5346 18.9446 29 20 29.8314 20.5543 30.6629 21.1086 31.5195 21.6797 35.6797 24.4531 39.8398 27.2266 44 30 44 30.66 44 31.32 44 32 41.918 33.7266 41.918 33.7266 39.1875 35.625 38.2942 36.2566 37.4009 36.8883 36.4805 37.5391 34 39 34 39 31 39 29.2461 37.3203 29.2461 37.3203 27.4375 35.125 26.8381 34.4057 26.2387 33.6864 25.6211 32.9453 24.8187 31.9824 24.8187 31.9824 24 31 23.34 30.34 22.68 29.68 22 29 17.8787 29.2208 15.1165 32.038 12 34.5 5.1844 39.8843 5.1844 39.8843 2 40-0.333701 38.6351-2.00595 36.8581-4 35-1.13832 32.0489 1.78423 29.3263 4.9375 26.6875 10.8875 21.5233 14.4808 16.0383 18 9 12.06 9 6.12 9 0 9 0 6.03 0 3.06 0 0Z" fill="#00548D" transform="translate(235 232)"/><path d="M0 0C4.29 0 8.58 0 13 0 13.0451 7.78848 13.0819 15.5769 13.1036 23.3655 13.1141 26.9818 13.1283 30.5981 13.1509 34.2144 13.1726 37.7027 13.1846 41.1909 13.1898 44.6793 13.1953 46.6614 13.2109 48.6434 13.2266 50.6255 13.2267 51.8266 13.2269 53.0276 13.2271 54.2651 13.2315 55.3266 13.2359 56.388 13.2405 57.4817 13 60 13 60 11 62 8.39844 62.1953 8.39844 62.1953 5.375 62.125 4.37211 62.107 3.36922 62.0889 2.33594 62.0703 1.17965 62.0355 1.17965 62.0355 0 62 0 59.36 0 56.72 0 54-5.28 54-10.56 54-16 54-16 51.36-16 48.72-16 46-10.72 46-5.44 46 0 46 0 30.82 0 15.64 0 0Z" fill="#00548D" transform="translate(761 227)"/><path d="M0 0C20.3591 11.8757 45.5167 15.853 68.6797 10.625 69.2185 10.4806 69.7573 10.3363 70.3125 10.1875 67.0217 12.9677 63.7343 14.3188 59.6875 15.75 58.5402 16.1638 57.393 16.5776 56.2109 17.0039 32.2295 24.693 4.45472 20.5078-17.7402 9.13574-21.7979 6.9412-25.7596 4.60561-29.6875 2.1875-29.6875 1.1975-29.6875 0.2075-29.6875-0.8125-10.437-6.34746-10.437-6.34746 0 0Z" fill="#FCCB01" transform="translate(435.688 76.8125)"/><path d="M0 0C5.28 0 10.56 0 16 0 16.0761 6.16763 15.9677 11.8967 15 18 15.4742 18.3426 15.9484 18.6851 16.437 19.0381 18.5893 20.6002 20.7321 22.1749 22.875 23.75 23.6214 24.2888 24.3677 24.8277 25.1367 25.3828 26.2099 26.1756 26.2099 26.1756 27.3047 26.9844 27.9645 27.4662 28.6244 27.9479 29.3042 28.4443 31.1621 30.1487 32.0214 31.6948 33 34 31.758 35.1545 30.5061 36.2983 29.25 37.4375 28.5539 38.0756 27.8578 38.7137 27.1406 39.3711 25.0121 40.9908 23.6098 41.5827 21 42 20.0951 40.8611 20.0951 40.8611 19.1719 39.6992 18.3727 38.7054 17.5734 37.7115 16.75 36.6875 15.9611 35.7014 15.1722 34.7152 14.3594 33.6992 12.348 31.3981 10.5207 29.6939 8 28 6.9868 29.1389 6.9868 29.1389 5.95312 30.3008 5.05227 31.3049 4.15122 32.3088 3.25 33.3125 2.80656 33.812 2.36313 34.3115 1.90625 34.8262-0.535711 37.5375-2.87685 40.0841-6 42-9.75807 41.9217-11.4295 41.5369-14.1875 38.9414-15.0847 37.9804-15.0847 37.9804-16 37-15.4083 36.4663-14.8166 35.9327-14.207 35.3828-4.65921 26.3801-1.14531 18.0429 0 5 0 3.35 0 1.7 0 0Z" fill="#00548D" transform="translate(166 232)"/><path d="M0 0C5.28 0 10.56 0 16 0 16 9 16 9 14.5 13.5 14.2216 14.3559 13.9431 15.2119 13.6562 16.0938 13.4397 16.7228 13.2231 17.3519 13 18 13.5798 18.2718 14.1595 18.5437 14.7568 18.8237 16.99 19.9948 18.8831 21.2985 20.8906 22.8203 21.5996 23.3553 22.3086 23.8902 23.0391 24.4414 23.7687 24.997 24.4983 25.5526 25.25 26.125 26.3676 26.97 26.3676 26.97 27.5078 27.832 29.3407 29.2185 31.1714 30.6079 33 32 29.9171 35.9619 27.0142 39.0107 23 42 22.01 42 21.02 42 20 42 18.5703 40.4258 18.5703 40.4258 17.125 38.3125 15.2692 35.6912 13.4591 33.3331 11.125 31.125 10.4237 30.4237 9.7225 29.7225 9 29 9 28.34 9 27.68 9 27 8.34 27 7.68 27 7 27 6.76926 27.553 6.53852 28.106 6.30078 28.6758 4.64103 31.6414 2.57124 33.768 0.1875 36.1875-0.66457 37.0679-1.51664 37.9484-2.39453 38.8555-5.11494 41.0946-6.50572 41.8854-10 42-13.3125 40.0625-13.3125 40.0625-16 38-15.4373 37.3638-15.4373 37.3638-14.8633 36.7148-13.218 34.8293-11.605 32.9199-10 31-9.54754 30.4715-9.09508 29.943-8.62891 29.3984-1.88772 20.8722-0.502406 10.5505 0 0Z" fill="#00548D" transform="translate(405 232)"/><path d="M0 0C4.29 0 8.58 0 13 0 13 6.27 13 12.54 13 19 16.96 19 20.92 19 25 19 25 21.97 25 24.94 25 28 21.37 28 17.74 28 14 28 14.0464 29.6861 14.0928 31.3722 14.1406 33.1094 14.1781 35.3229 14.2145 37.5364 14.25 39.75 14.2835 40.8612 14.317 41.9723 14.3516 43.1172 14.3645 44.1871 14.3773 45.257 14.3906 46.3594 14.4116 47.3439 14.4325 48.3284 14.4541 49.3428 14 52 14 52 12.6006 54.3525 10 56 10 56 0 56 0 37.52 0 19.04 0 0Z" fill="#00548D" transform="translate(441 227)"/><path d="M0 0C4.29 0 8.58 0 13 0 13 6.27 13 12.54 13 19 16.96 19 20.92 19 25 19 25 21.97 25 24.94 25 28 21.04 28 17.08 28 13 28 13.0348 29.7699 13.0696 31.5398 13.1055 33.3633 13.1336 35.6797 13.1609 37.9961 13.1875 40.3125 13.2252 42.0634 13.2252 42.0634 13.2637 43.8496 13.2782 45.527 13.2782 45.527 13.293 47.2383 13.3165 48.7858 13.3165 48.7858 13.3406 50.3645 13 53 13 53 10 56 6.7 56 3.4 56 0 56 0 37.52 0 19.04 0 0Z" fill="#00548D" transform="translate(203 227)"/><path d="M0 0C4.465 2.75665 6.66797 6.35548 8.25 11.3125 8.3341 15.4335 7.33315 17.79 5.3125 21.375-0.152066 26.8396-4.86707 28.4446-12.4375 28.8125-18.7803 28.6942-23.5305 27.0628-28.6875 23.375-31.6923 20.1556-32.9074 17.7006-33.1875 13.375-32.9446 9.13232-31.4826 6.6114-28.6875 3.375-20.8522-2.54148-9.19502-4.19697 0 0ZM-17.5 6.9375C-20.1243 9.86173-20.6062 11.4737-20.6875 15.375-19.5673 18.7356-18.7422 19.3386-15.6875 21.375-12.7726 21.9588-12.7726 21.9588-9.6875 21.375-6.32406 18.889-4.88692 17.4607-4.125 13.3125-4.82395 9.66244-5.66952 8.51935-8.6875 6.375-12.5041 5.07573-13.9454 4.96272-17.5 6.9375Z" fill="#00548D" transform="translate(746.688 231.625)"/><path d="M0 0C4.62 0 9.24 0 14 0 14.0493 6.22964 14.0857 12.4592 14.1099 18.689 14.1199 20.8094 14.1336 22.9299 14.1509 25.0503 14.1751 28.0935 14.1865 31.1364 14.1953 34.1797 14.2056 35.1318 14.216 36.0839 14.2266 37.0649 14.2267 37.9457 14.2269 38.8264 14.2271 39.7339 14.2315 40.5111 14.2359 41.2883 14.2405 42.0891 14 44 14 44 12 46 7.98806 46.2778 4.02553 46.0857 0 46 0 39.4 0 32.8 0 26-4.62 26-9.24 26-14 26-14 23.03-14 20.06-14 17-9.38 17-4.76 17 0 17 0 11.39 0 5.78 0 0Z" fill="#00548D" transform="translate(283 227)"/><path d="M0 0C4.29 0 8.58 0 13 0 14.6615 1.66149 14.1444 3.6464 14.1611 5.93115 14.1707 6.98249 14.1803 8.03383 14.1902 9.11703 14.1945 10.2618 14.1987 11.4065 14.2031 12.5859 14.2088 13.7538 14.2145 14.9217 14.2204 16.1249 14.2299 18.6015 14.2364 21.0781 14.2402 23.5547 14.2499 27.3518 14.2809 31.1483 14.3125 34.9453 14.319 37.3464 14.3243 39.7474 14.3281 42.1484 14.3405 43.2891 14.3528 44.4298 14.3655 45.6051 14.3625 46.6627 14.3595 47.7204 14.3564 48.8101 14.3601 49.7419 14.3637 50.6738 14.3675 51.6339 14 54 14 54 11 57 7.7 57 4.4 57 1 57 0.67 38.19 0.34 19.38 0 0Z" fill="#00548D" transform="translate(600 226)"/><path d="M0 0C4.62 0 9.24 0 14 0 14 7.59 14 15.18 14 23 24.23 23 34.46 23 45 23 45 25.97 45 28.94 45 32 39.2159 32.0494 33.4319 32.0857 27.6477 32.1099 25.6796 32.1199 23.7115 32.1336 21.7434 32.1509 18.9161 32.1751 16.0891 32.1865 13.2617 32.1953 12.3804 32.2056 11.499 32.216 10.591 32.2266 9.77036 32.2267 8.94974 32.2269 8.10425 32.2271 7.38255 32.2315 6.66085 32.2359 5.91728 32.2405 4 32 4 32 1 30-0.0991155 26.7027-0.113946 24.2704-0.0976562 20.8008-0.0944336 19.5923-0.0912109 18.3838-0.0878906 17.1387-0.0795117 15.876-0.0711328 14.6134-0.0625 13.3125-0.0557324 11.4011-0.0557324 11.4011-0.0488281 9.45117-0.0370288 6.30076-0.0190932 3.15037 0 0Z" fill="#00548D" transform="translate(171 281)"/><path d="M0 0C4.62 0 9.24 0 14 0 14 7.26 14 14.52 14 22 24.23 22 34.46 22 45 22 45 24.97 45 27.94 45 31 38.9128 31.074 32.8258 31.1285 26.7383 31.1648 24.6663 31.1799 22.5943 31.2004 20.5225 31.2263 17.5487 31.2626 14.5755 31.2797 11.6016 31.293 10.2062 31.3162 10.2062 31.3162 8.78262 31.3399 7.92188 31.3401 7.06114 31.3403 6.17432 31.3406 5.41487 31.3472 4.65542 31.3539 3.87296 31.3608 3.25488 31.2417 2.6368 31.1227 2 31-0.391122 27.4133-0.23381 25.836-0.195312 21.582-0.188867 20.3284-0.182422 19.0748-0.175781 17.7832-0.159023 16.4729-0.142266 15.1625-0.125 13.8125-0.114966 12.4772-0.105841 11.1419-0.0976562 9.80664-0.0740537 6.53768-0.0381822 3.26882 0 0Z" fill="#00548D" transform="translate(569 281)"/><path d="M0 0C25.74 0 51.48 0 78 0 78 2.97 78 5.94 78 9 52.26 9 26.52 9 0 9 0 6.03 0 3.06 0 0Z" fill="#00548D" transform="translate(624 267)"/><path d="M0 0C4.29 0 8.58 0 13 0 13 7.26 13 14.52 13 22 23.56 22 34.12 22 45 22 45 24.97 45 27.94 45 31 38.9128 31.0493 32.8257 31.0857 26.7383 31.1099 24.6663 31.1199 22.5944 31.1336 20.5225 31.1509 17.5488 31.1751 14.5753 31.1865 11.6016 31.1953 10.2062 31.2108 10.2062 31.2108 8.78262 31.2266 7.92188 31.2267 7.06114 31.2269 6.17432 31.2271 5.41487 31.2315 4.65542 31.2359 3.87296 31.2405 2 31 2 31 0 29-0.227051 26.1108-0.227051 26.1108-0.195312 22.4609-0.185645 20.508-0.185645 20.508-0.175781 18.5156-0.159069 17.1354-0.142139 15.7552-0.125 14.375-0.11497 12.987-0.105844 11.599-0.0976562 10.2109-0.0740193 6.80722-0.0381473 3.40359 0 0Z" fill="#00548D" transform="translate(411 281)"/><path d="M0 0C4.29 0 8.58 0 13 0 13 5.61 13 11.22 13 17 23.23 17 33.46 17 44 17 44 19.97 44 22.94 44 26 38.2159 26.0494 32.4319 26.0857 26.6477 26.1099 24.6796 26.1199 22.7115 26.1336 20.7434 26.1509 17.9161 26.1751 15.0891 26.1865 12.2617 26.1953 11.3804 26.2056 10.499 26.216 9.59099 26.2266 8.77036 26.2267 7.94974 26.2269 7.10425 26.2271 6.38255 26.2315 5.66085 26.2359 4.91728 26.2405 3 26 3 26 0 24-0.340576 21.5698-0.340576 21.5698-0.292969 18.5547-0.283301 17.4783-0.273633 16.402-0.263672 15.293-0.238535 14.165-0.213398 13.0371-0.1875 11.875-0.173965 10.7393-0.16043 9.60367-0.146484 8.43359-0.111047 5.6222-0.0572384 2.81104 0 0Z" fill="#00548D" transform="translate(730 287)"/><path d="M0 0C0 2.64 0 5.28 0 8-6.46009 9.95022-12.2718 10.2226-19 10-18.9768 10.7709-18.9536 11.5417-18.9297 12.3359-18.9026 13.8403-18.9026 13.8403-18.875 15.375-18.8518 16.3727-18.8286 17.3705-18.8047 18.3984-19 21-19 21-21 23-24.6802 23.2763-28.3049 23.0859-32 23-32 19.04-32 15.08-32 11-37.94 11-43.88 11-50 11-50 8.03-50 5.06-50 2-48.9723 1.97494-47.9446 1.94989-46.8857 1.92407-43.0165 1.8288-39.1474 1.72889-35.2783 1.62769-33.6143 1.58478-31.9502 1.54308-30.2861 1.50269-21.552 1.28985-12.8637 1.02768-4.16113 0.198975-2 0-2 0 0 0Z" fill="#00548D" transform="translate(759 261)"/><path d="M0 0C16.1073-0.987503 29.7598 3.16389 44.6914 8.88672 52.113 11.384 59.2591 12.3344 67.0625 12.625 67.9281 12.6637 68.7937 12.7023 69.6855 12.7422 71.7901 12.8352 73.895 12.9186 76 13 71.6046 17.3954 64.4059 17.2803 58.4897 17.3801 36.9515 17.3398 18.1874 12.996 0 1 0 0.67 0 0.34 0 0Z" fill="#81318B" transform="translate(429 73)"/><path d="M0 0C1.75 0.0625 1.75 0.0625 4 1 8.73183 6.91479 8.78728 12.6291 8 20 6.697 26.7593 2.69699 31.1615-2 36-5.81052 33.2925-7.60035 31.4523-9 27-10.3013 16.4253-7.92972 10.2042-1.6875 1.9375-1.13063 1.29813-0.57375 0.65875 0 0Z" fill="#8DC021" transform="translate(505 119)"/></svg>