<?xml version="1.0" encoding="UTF-8" standalone="no"?>
<!DOCTYPE svg PUBLIC "-//W3C//DTD SVG 1.1//EN" "http://www.w3.org/Graphics/SVG/1.1/DTD/svg11.dtd">
<svg width="100%" height="100%" viewBox="0 0 63 61" version="1.1" xmlns="http://www.w3.org/2000/svg" xmlns:xlink="http://www.w3.org/1999/xlink" xml:space="preserve" xmlns:serif="http://www.serif.com/" style="fill-rule:evenodd;clip-rule:evenodd;stroke-linejoin:round;stroke-miterlimit:2;">
    <g transform="matrix(0.128,0,0,0.128,-0.944245,-1.538963)">
        <path d="M141.301,452.595C141.72,453.093 142.163,453.567 142.613,454.042C143.298,454.77 144.042,455.437 144.796,456.091C144.041,455.436 143.296,454.767 142.61,454.037C142.163,453.566 141.721,453.093 141.301,452.595L141.301,452.595Z" style="fill:none;fill-rule:nonzero;"/>
        <path d="M351.988,458.66C350.944,459.326 349.86,459.929 348.743,460.464C347.997,460.821 347.225,461.117 346.45,461.414C345.458,461.789 344.446,462.113 343.42,462.383C341.988,462.769 340.53,463.046 339.056,463.213C338.029,463.33 336.996,463.39 335.962,463.395L165.912,463.434L164.246,463.434C161.703,463.418 159.173,463.069 156.721,462.397C154.453,461.797 152.265,460.936 150.198,459.838C152.266,460.938 154.454,461.802 156.723,462.403C159.175,463.075 161.704,463.423 164.246,463.439L165.914,463.439L335.965,463.399C336.998,463.395 338.031,463.335 339.058,463.219C340.532,463.052 341.991,462.774 343.422,462.388C344.45,462.116 345.463,461.79 346.457,461.412C347.235,461.129 347.999,460.815 348.75,460.468C349.863,459.933 350.943,459.33 351.984,458.664C354.68,456.971 357.082,454.847 359.093,452.378L361.431,449.464L359.09,452.374C357.081,454.842 354.682,456.966 351.988,458.66L351.988,458.66Z" style="fill:none;fill-rule:nonzero;"/>
        <path d="M471.853,307.136L471.854,307.134L471.853,307.135L471.853,307.136Z" style="fill:none;fill-rule:nonzero;"/>
        <path d="M82.512,108.488L105.008,97.739L82.514,108.486C78.489,110.436 75.008,113.238 72.272,116.64C75.007,113.239 78.488,110.438 82.512,108.488L82.512,108.488Z" style="fill:none;fill-rule:nonzero;"/>
        <path d="M466.133,319.215L426.903,368.017L466.131,319.219C468.122,316.725 469.686,313.918 470.761,310.912C471.098,309.981 471.342,309.02 471.585,308.06C471.341,309.019 471.096,309.979 470.758,310.91C469.685,313.914 468.122,316.72 466.133,319.215L466.133,319.215Z" style="fill:none;fill-rule:nonzero;"/>
        <path d="M433.624,128.36C431.542,119.661 425.669,112.356 417.622,108.453L262.897,34.578C254.775,30.702 245.337,30.702 237.215,34.578L105.008,97.739L82.512,108.488C78.488,110.438 75.007,113.239 72.272,116.64C71.936,117.058 71.647,117.512 71.333,117.948C71.01,118.398 70.663,118.83 70.366,119.297C69.917,120 69.525,120.74 69.136,121.481C69.016,121.71 68.87,121.924 68.756,122.157C67.787,124.125 67.029,126.212 66.508,128.386L28.344,294.424C27.404,298.62 27.401,302.972 28.336,307.169C28.611,308.449 28.971,309.709 29.413,310.941C30.16,313.042 31.149,315.049 32.36,316.922C32.882,317.729 33.441,318.509 34.038,319.261L141.121,452.396C141.177,452.466 141.243,452.527 141.301,452.595C141.721,453.093 142.163,453.566 142.61,454.037C143.296,454.767 144.041,455.436 144.796,456.091C144.967,456.239 145.116,456.411 145.291,456.555C145.412,456.656 145.55,456.735 145.673,456.834C146.507,457.502 147.362,458.145 148.265,458.719C148.896,459.117 149.541,459.488 150.198,459.838C152.265,460.936 154.453,461.797 156.721,462.397C159.173,463.069 161.703,463.418 164.246,463.434L165.912,463.434L335.962,463.395C336.996,463.39 338.029,463.33 339.056,463.213C340.53,463.046 341.988,462.769 343.42,462.383C344.446,462.113 345.458,461.789 346.45,461.414C347.225,461.117 347.997,460.821 348.743,460.464C349.86,459.929 350.944,459.326 351.988,458.66C354.682,456.966 357.081,454.843 359.09,452.374L361.431,449.464L362.353,448.315L426.903,368.017L466.133,319.215C468.122,316.72 469.685,313.914 470.758,310.91C471.096,309.979 471.341,309.019 471.585,308.06C471.664,307.748 471.784,307.447 471.853,307.132L471.853,307.135C471.853,307.135 471.854,307.134 471.854,307.134C472.792,302.939 472.79,298.589 471.849,294.395L433.624,128.36L433.624,128.36Z" style="fill:rgb(50,108,229);fill-rule:nonzero;"/>
        <path d="M492.032,298.656L492.032,298.649L450.329,117.506C448.059,108.014 441.651,100.041 432.869,95.784L264.066,15.195C255.205,10.966 244.907,10.966 236.046,15.195L67.259,95.832C58.477,100.086 52.066,108.054 49.792,117.543L8.161,298.698C6.264,307.134 7.842,315.978 12.538,323.239C13.111,324.116 13.719,324.968 14.377,325.788L131.204,471.048C137.403,478.616 146.651,483.029 156.433,483.087L343.78,483.043C353.56,482.987 362.808,478.58 369.012,471.019L485.797,325.747C491.854,318.119 494.145,308.165 492.032,298.656ZM471.854,307.134C471.854,307.134 471.853,307.135 471.853,307.136L471.853,307.132C471.784,307.447 471.664,307.748 471.585,308.06C471.342,309.02 471.098,309.981 470.761,310.912C469.686,313.918 468.122,316.725 466.131,319.219L426.903,368.017L362.353,448.315L361.431,449.464L359.093,452.378C357.082,454.847 354.68,456.971 351.984,458.664C350.943,459.33 349.863,459.933 348.75,460.468C347.999,460.815 347.235,461.129 346.457,461.412C345.463,461.79 344.45,462.116 343.422,462.388C341.991,462.774 340.532,463.052 339.058,463.219C338.031,463.335 336.998,463.395 335.965,463.399L165.914,463.439L164.246,463.439C161.704,463.423 159.175,463.075 156.723,462.403C154.454,461.802 152.266,460.939 150.198,459.838C149.541,459.488 148.896,459.117 148.265,458.719C147.362,458.145 146.507,457.502 145.673,456.834C145.55,456.735 145.412,456.656 145.291,456.555C145.116,456.411 144.967,456.239 144.796,456.091C144.042,455.437 143.298,454.77 142.613,454.042C142.163,453.567 141.72,453.093 141.301,452.595C141.243,452.527 141.177,452.466 141.121,452.396L34.038,319.261C33.441,318.509 32.882,317.729 32.36,316.922C31.149,315.049 30.16,313.042 29.413,310.941C28.971,309.709 28.611,308.449 28.336,307.169C27.401,302.972 27.404,298.62 28.344,294.424L66.508,128.386C67.029,126.212 67.787,124.125 68.756,122.157C68.87,121.924 69.016,121.71 69.136,121.481C69.525,120.74 69.917,120 70.366,119.297C70.663,118.83 71.01,118.398 71.333,117.948C71.647,117.512 71.936,117.058 72.272,116.64C75.008,113.238 78.489,110.436 82.514,108.486L105.008,97.739L237.215,34.578C245.337,30.702 254.775,30.702 262.897,34.578L417.622,108.453C425.669,112.355 431.542,119.661 433.624,128.36L471.849,294.395C472.79,298.589 472.792,302.939 471.854,307.134L471.854,307.134Z" style="fill:white;fill-rule:nonzero;"/>
    </g>
    <g transform="matrix(0.128,0,0,0.128,-0.944245,-1.538963)">
        <path d="M318.379,343.915L405.391,256.903C409.491,252.803 409.344,246.111 405.068,242.195L318.056,162.505C316.026,160.646 313.609,159.812 311.243,159.812C305.997,159.812 300.997,163.91 300.997,170.014L300.997,188.665L349.585,233.163C354.075,237.275 356.726,243.124 356.86,249.211C356.994,255.298 354.601,261.258 350.296,265.563L300.997,314.862L300.997,336.716C300.997,342.853 306.019,346.918 311.253,346.918C313.755,346.918 316.304,345.99 318.379,343.915L318.379,343.915Z" style="fill:white;fill-rule:nonzero;"/>
        <path d="M254.624,343.915L294.874,303.665L300.997,297.541L341.636,256.903C345.736,252.803 345.589,246.111 341.313,242.195L300.997,205.272L294.874,199.664L288.75,194.056L254.301,162.505C252.271,160.646 249.854,159.812 247.488,159.812C242.241,159.812 237.242,163.91 237.242,170.014L237.242,188.665L285.83,233.163C286.914,234.157 287.889,235.254 288.75,236.429C291.451,240.118 293.003,244.595 293.105,249.211C293.213,254.16 291.652,259.026 288.75,262.986C288.083,263.896 287.345,264.759 286.541,265.563L237.242,314.862L237.242,336.716C237.242,342.853 242.264,346.918 247.498,346.918C250,346.918 252.549,345.99 254.624,343.915L254.624,343.915Z" style="fill:white;fill-rule:nonzero;"/>
        <path d="M190.868,343.915L231.118,303.665L237.242,297.541L277.881,256.903C281.981,252.803 281.834,246.111 277.558,242.195L237.242,205.272L231.118,199.664L224.995,194.056L190.546,162.505C188.516,160.646 186.098,159.812 183.733,159.812C178.486,159.812 173.487,163.91 173.487,170.014L173.487,188.665L222.073,233.163C223.159,234.157 224.134,235.254 224.995,236.43C227.695,240.119 229.247,244.596 229.349,249.211C229.457,254.16 227.896,259.025 224.995,262.985C224.328,263.895 223.59,264.758 222.785,265.563L173.487,314.861L173.487,336.716C173.487,342.853 178.509,346.918 183.742,346.918C186.244,346.918 188.794,345.99 190.868,343.915L190.868,343.915Z" style="fill:white;fill-rule:nonzero;"/>
        <path d="M127.112,343.915L167.363,303.665L173.487,297.541L214.125,256.903C218.225,252.803 218.078,246.111 213.802,242.195L173.487,205.273L167.363,199.664L161.24,194.056L126.79,162.505C124.76,160.646 122.342,159.812 119.977,159.812C114.73,159.812 109.731,163.91 109.731,170.014L109.731,336.716C109.731,342.853 114.753,346.918 119.986,346.918C122.488,346.918 125.038,345.99 127.112,343.915Z" style="fill:white;fill-rule:nonzero;"/>
    </g>
</svg>
