<?xml version="1.0" encoding="UTF-8" ?>
<!DOCTYPE svg PUBLIC "-//W3C//DTD SVG 1.1//EN" "http://www.w3.org/Graphics/SVG/1.1/DTD/svg11.dtd">
<svg width="931pt" height="478pt" viewBox="0 0 931 478" version="1.1" xmlns="http://www.w3.org/2000/svg">
<path fill="#ffffff" d=" M 0.00 0.00 L 931.00 0.00 L 931.00 478.00 L 0.00 478.00 L 0.00 0.00 Z" />
<path fill="#b1e0a7" d=" M 90.96 24.00 C 93.00 22.53 95.49 23.44 97.39 24.65 C 114.49 34.54 131.61 44.40 148.71 54.28 C 150.90 55.51 153.21 56.64 154.99 58.46 C 134.37 69.94 114.07 82.02 93.57 93.74 C 73.03 82.03 52.73 69.88 32.05 58.43 C 34.75 56.17 37.92 54.62 40.94 52.86 C 57.62 43.25 74.24 33.54 90.96 24.00 Z" />
<path fill="#b1e0a7" d=" M 461.24 24.31 C 463.18 22.95 465.72 22.88 467.64 24.32 C 506.33 46.66 545.02 68.97 583.68 91.34 C 585.11 92.14 586.54 92.91 588.04 93.59 C 592.89 91.52 597.31 88.52 601.91 85.94 C 637.88 65.25 673.77 44.40 709.74 23.73 C 712.12 22.12 714.60 24.10 716.69 25.22 C 776.11 59.50 835.51 93.82 894.92 128.12 C 895.73 128.59 896.39 129.29 897.03 129.99 C 882.40 137.87 868.19 146.55 853.73 154.75 C 831.97 167.30 810.22 179.87 788.47 192.43 C 783.81 195.35 778.61 197.64 774.30 200.94 C 794.74 212.77 815.18 224.59 835.65 236.35 C 850.02 245.56 865.12 253.58 879.79 262.28 C 885.50 265.79 891.70 268.59 897.04 272.66 C 842.64 304.00 788.30 335.44 733.91 366.81 C 726.41 370.92 719.27 375.75 711.53 379.38 C 670.54 355.65 629.57 331.91 588.48 308.37 C 589.01 307.29 590.05 306.70 591.06 306.14 C 610.75 294.82 630.39 283.42 650.08 272.10 C 670.69 284.03 691.31 295.94 711.94 307.81 C 732.34 296.08 752.63 284.15 773.12 272.59 C 772.96 272.34 772.64 271.83 772.49 271.57 C 731.67 248.15 690.99 224.47 650.17 201.05 C 650.38 200.81 650.80 200.34 651.02 200.10 C 671.57 188.26 692.08 176.31 712.68 164.55 C 731.79 153.34 751.04 142.35 770.23 131.27 C 771.13 130.50 772.89 130.40 773.12 129.06 C 752.66 117.36 732.34 105.43 711.85 93.79 C 670.59 117.54 629.40 141.43 588.13 165.16 C 547.37 141.60 506.51 118.19 465.85 94.47 C 465.43 94.32 464.59 94.01 464.17 93.86 C 422.92 117.58 381.85 141.63 340.48 165.10 C 320.05 153.32 299.66 141.46 279.18 129.76 C 281.11 128.06 283.42 126.91 285.64 125.65 C 344.19 91.90 402.68 58.03 461.24 24.31 Z" />
<path fill="#31505b" d=" M 32.05 58.43 C 52.73 69.88 73.03 82.03 93.57 93.74 C 93.28 165.15 93.51 236.57 93.46 307.99 C 134.68 331.90 176.03 355.59 217.23 379.53 C 217.21 402.36 217.32 425.19 217.17 448.01 C 217.01 448.45 216.68 449.32 216.52 449.75 C 201.77 441.91 187.54 433.09 172.97 424.91 C 126.76 398.17 80.48 371.54 34.27 344.80 C 32.88 344.08 31.60 342.76 31.93 341.06 C 31.90 286.70 31.93 232.34 31.92 177.99 C 32.01 138.14 31.73 98.27 32.05 58.43 Z" />
<path fill="#38b176" d=" M 93.57 93.74 C 114.07 82.02 134.37 69.94 154.99 58.46 C 155.41 129.70 154.83 200.96 155.28 272.19 C 134.70 284.17 113.99 295.93 93.46 307.99 C 93.51 236.57 93.28 165.15 93.57 93.74 Z" />
<path fill="#38b176" d=" M 340.48 165.10 C 381.85 141.63 422.92 117.58 464.17 93.86 C 464.59 94.01 465.43 94.32 465.85 94.47 L 464.68 94.74 C 464.39 118.13 464.65 141.54 464.55 164.94 C 448.91 173.29 433.77 182.59 418.34 191.32 C 413.12 194.32 407.90 197.32 402.78 200.48 L 402.45 200.67 C 402.55 224.59 402.23 248.53 402.61 272.44 C 402.68 295.97 402.73 319.50 402.59 343.04 L 402.57 343.58 C 372.45 360.24 342.99 378.04 313.16 395.19 C 282.32 413.01 251.46 430.80 220.62 448.63 C 219.30 449.37 217.89 449.97 216.37 450.11 L 216.52 449.75 C 216.68 449.32 217.01 448.45 217.17 448.01 C 217.32 425.19 217.21 402.36 217.23 379.53 C 258.39 356.02 299.17 331.89 340.25 308.25 L 340.38 307.68 C 340.67 260.16 340.46 212.62 340.48 165.10 Z" />
<path fill="#38b176" d=" M 588.13 165.16 C 629.40 141.43 670.59 117.54 711.85 93.79 C 712.12 115.85 712.17 137.93 711.88 160.00 C 712.07 161.49 711.46 163.37 712.68 164.55 C 692.08 176.31 671.57 188.26 651.02 200.10 C 650.80 200.34 650.38 200.81 650.17 201.05 C 650.17 224.73 650.36 248.42 650.08 272.10 C 630.39 283.42 610.75 294.82 591.06 306.14 C 590.05 306.70 589.01 307.29 588.48 308.37 C 588.39 308.06 588.22 307.45 588.14 307.14 C 588.16 259.81 588.18 212.49 588.13 165.16 Z" />
<path fill="#31505b" d=" M 711.85 93.79 C 732.34 105.43 752.66 117.36 773.12 129.06 C 772.89 130.40 771.13 130.50 770.23 131.27 C 751.04 142.35 731.79 153.34 712.68 164.55 C 711.46 163.37 712.07 161.49 711.88 160.00 C 712.17 137.93 712.12 115.85 711.85 93.79 Z" />
<path fill="#31505b" d=" M 464.68 94.74 L 465.85 94.47 C 506.51 118.19 547.37 141.60 588.13 165.16 C 588.18 212.49 588.16 259.81 588.14 307.14 C 588.22 307.45 588.39 308.06 588.48 308.37 C 629.57 331.91 670.54 355.65 711.53 379.38 C 712.15 402.94 711.59 426.57 711.81 450.16 C 704.54 446.64 697.78 442.14 690.70 438.26 C 642.53 410.46 594.36 382.64 546.20 354.83 C 539.57 351.11 533.14 347.05 526.35 343.65 L 526.35 343.10 C 526.46 319.57 526.42 296.04 526.37 272.51 C 526.48 248.56 526.50 224.60 526.37 200.66 C 526.23 200.57 525.96 200.41 525.82 200.32 C 505.50 188.35 485.07 176.55 464.55 164.94 C 464.65 141.54 464.39 118.13 464.68 94.74 Z" />
<path fill="#31505b" d=" M 279.18 129.76 C 299.66 141.46 320.05 153.32 340.48 165.10 C 340.46 212.62 340.67 260.16 340.38 307.68 C 319.91 295.84 299.46 283.97 278.94 272.24 C 278.93 226.48 278.94 180.72 278.93 134.97 C 278.96 133.23 278.83 131.47 279.18 129.76 Z" />
<path fill="#38b176" d=" M 853.73 154.75 C 868.19 146.55 882.40 137.87 897.03 129.99 C 897.32 152.99 897.13 176.00 897.13 199.01 C 897.44 200.49 895.98 201.23 894.98 201.90 C 875.24 213.45 855.28 224.63 835.65 236.35 C 815.18 224.59 794.74 212.77 774.30 200.94 C 778.61 197.64 783.81 195.35 788.47 192.43 C 810.22 179.87 831.97 167.30 853.73 154.75 Z" />
<path fill="#ffffff" d=" M 418.34 191.32 C 433.77 182.59 448.91 173.29 464.55 164.94 C 485.07 176.55 505.50 188.35 525.82 200.32 C 524.51 202.28 522.26 203.23 520.36 204.48 C 503.05 214.48 485.75 224.50 468.42 234.46 C 466.55 235.41 464.38 237.36 462.37 235.57 C 445.43 225.92 428.60 216.09 411.71 206.38 C 408.63 204.58 405.39 202.94 402.78 200.48 C 407.90 197.32 413.12 194.32 418.34 191.32 Z" />
<path fill="#b1e0a7" d=" M 402.45 200.67 L 402.78 200.48 C 405.39 202.94 408.63 204.58 411.71 206.38 C 428.60 216.09 445.43 225.92 462.37 235.57 C 464.38 237.36 466.55 235.41 468.42 234.46 C 485.75 224.50 503.05 214.48 520.36 204.48 C 522.26 203.23 524.51 202.28 525.82 200.32 C 525.96 200.41 526.23 200.57 526.37 200.66 C 526.50 224.60 526.48 248.56 526.37 272.51 C 505.50 284.01 485.10 296.37 464.32 308.04 C 443.75 296.18 423.20 284.27 402.61 272.44 C 402.23 248.53 402.55 224.59 402.45 200.67 Z" />
<path fill="#31505b" d=" M 650.17 201.05 C 690.99 224.47 731.67 248.15 772.49 271.57 C 772.64 271.83 772.96 272.34 773.12 272.59 C 752.63 284.15 732.34 296.08 711.94 307.81 C 691.31 295.94 670.69 284.03 650.08 272.10 C 650.36 248.42 650.17 224.73 650.17 201.05 Z" />
<path fill="#b1e0a7" d=" M 155.28 272.19 C 174.63 283.80 194.29 294.89 213.83 306.18 C 215.43 306.98 217.31 308.68 219.05 307.15 C 236.12 297.59 252.92 287.56 269.92 277.88 C 272.97 276.07 276.17 274.48 278.94 272.24 C 299.46 283.97 319.91 295.84 340.38 307.68 L 340.25 308.25 C 299.17 331.89 258.39 356.02 217.23 379.53 C 176.03 355.59 134.68 331.90 93.46 307.99 C 113.99 295.93 134.70 284.17 155.28 272.19 Z" />
<path fill="#31505b" d=" M 402.61 272.44 C 423.20 284.27 443.75 296.18 464.32 308.04 C 464.37 331.62 464.30 355.20 464.35 378.78 C 443.62 367.51 423.54 355.03 402.82 343.72 L 402.59 343.04 C 402.73 319.50 402.68 295.97 402.61 272.44 Z" />
<path fill="#38b176" d=" M 464.32 308.04 C 485.10 296.37 505.50 284.01 526.37 272.51 C 526.42 296.04 526.46 319.57 526.35 343.10 C 524.98 344.57 522.96 345.17 521.30 346.24 C 504.76 355.70 488.31 365.34 471.78 374.81 C 469.34 376.20 466.98 377.76 464.35 378.78 C 464.30 355.20 464.37 331.62 464.32 308.04 Z" />
<path fill="#38b176" d=" M 733.91 366.81 C 788.30 335.44 842.64 304.00 897.04 272.66 C 897.33 294.42 897.08 316.19 897.17 337.95 C 896.97 340.18 897.89 343.20 895.45 344.49 C 837.05 378.36 778.49 412.01 720.05 445.83 C 717.29 447.25 714.75 449.11 711.81 450.16 C 711.59 426.57 712.15 402.94 711.53 379.38 C 719.27 375.75 726.41 370.92 733.91 366.81 Z" />
</svg>
