<?xml version="1.0" encoding="UTF-8" standalone="no"?>
<!DOCTYPE svg PUBLIC "-//W3C//DTD SVG 1.1//EN" "http://www.w3.org/Graphics/SVG/1.1/DTD/svg11.dtd">
<svg width="100%" height="100%" viewBox="0 0 2500 532" version="1.1" xmlns="http://www.w3.org/2000/svg" xmlns:xlink="http://www.w3.org/1999/xlink" xml:space="preserve" xmlns:serif="http://www.serif.com/" style="fill-rule:evenodd;clip-rule:evenodd;stroke-linejoin:round;stroke-miterlimit:2;">
    <g transform="matrix(1,0,0,1,-117.787,-105.467)">
        <g transform="matrix(-4.16667,0,0,4.16667,2601.64,-2852.38)">
            <g>
                <rect x="305.221" y="721.379" width="13.951" height="83.703"/>
            </g>
        </g>
        <g transform="matrix(-4.16667,0,0,4.16667,3996.7,-2852.38)">
            <g>
                <rect x="472.628" y="721.379" width="13.951" height="83.703"/>
            </g>
        </g>
        <g transform="matrix(4.16667,0,0,4.16667,1504.26,327.749)">
            <g>
                <path d="M0,27.901C-7.705,27.901 -13.951,21.655 -13.951,13.95C-13.951,6.246 -7.705,-0 0,-0C7.705,-0 13.951,6.246 13.951,13.95C13.951,21.655 7.705,27.901 0,27.901M13.951,-13.951L13.951,-10.209C9.846,-12.584 5.084,-13.951 0,-13.951C-15.409,-13.951 -27.901,-1.459 -27.901,13.95C-27.901,29.36 -15.409,41.852 0,41.852C5.084,41.852 9.846,40.485 13.951,38.11L13.951,41.852L27.901,41.852L27.901,-13.951L13.951,-13.951Z" style="fill-rule:nonzero;"/>
            </g>
        </g>
        <g transform="matrix(4.16667,0,0,4.16667,1794.9,327.748)">
            <g>
                <path d="M0,0C7.705,0 13.951,6.246 13.951,13.951C13.951,21.655 7.705,27.901 0,27.901C-7.705,27.901 -13.951,21.655 -13.951,13.951C-13.951,6.246 -7.705,0 0,0M-13.951,41.852L-13.951,38.11C-9.846,40.485 -5.084,41.852 0,41.852C15.409,41.852 27.901,29.36 27.901,13.951C27.901,-1.459 15.409,-13.951 0,-13.951C-5.084,-13.951 -9.846,-12.584 -13.951,-10.209L-13.951,-41.852L-27.901,-41.852L-27.901,41.852L-13.951,41.852Z" style="fill-rule:nonzero;"/>
            </g>
        </g>
        <g transform="matrix(4.16667,0,0,4.16667,2434.3,473.067)">
            <g>
                <path d="M0,-20.926C0,-28.631 6.246,-34.877 13.951,-34.877C21.655,-34.877 27.901,-28.631 27.901,-20.926C27.901,-13.221 21.655,-6.975 13.951,-6.975C6.246,-6.975 0,-13.221 0,-20.926M-13.951,-48.827L-13.951,27.901L0,27.901L0,3.233C4.105,5.609 8.867,6.975 13.951,6.975C29.36,6.975 41.852,-5.517 41.852,-20.926C41.852,-36.335 29.36,-48.827 13.951,-48.827C8.867,-48.827 4.105,-47.461 0,-45.085L0,-48.827L-13.951,-48.827Z" style="fill-rule:nonzero;"/>
            </g>
        </g>
        <g transform="matrix(4.16667,0,0,4.16667,2259.92,502.13)">
            <g>
                <path d="M0,-55.802L0,-27.901C0,-20.196 -6.246,-13.95 -13.951,-13.95C-21.655,-13.95 -27.901,-20.196 -27.901,-27.901L-27.901,-55.802L-41.851,-55.802L-41.851,-27.901C-41.851,-12.491 -29.359,0 -13.95,0C1.459,0 13.951,-12.491 13.951,-27.901L13.951,-55.802L0,-55.802Z" style="fill-rule:nonzero;"/>
            </g>
        </g>
        <g transform="matrix(4.16667,0,0,4.16667,1153.31,412.097)">
            <g>
                <path d="M-194.967,53.1L-194.958,53.105C-194.584,53.324 -194.164,53.434 -193.747,53.44C-193.176,53.449 -192.551,53.146 -192.551,53.146C-192.529,53.134 -192.508,53.123 -192.487,53.111C-192.487,53.111 -147.997,27.444 -140.693,23.231L-124.368,33.195L-124.435,33.153C-124.385,33.186 -124.276,33.243 -124.172,33.294L-124.288,33.242C-123.912,33.452 -123.5,33.556 -123.085,33.556C-122.67,33.556 -122.249,33.449 -121.874,33.237L-121.955,33.273C-121.881,33.236 -121.809,33.198 -121.761,33.168L-121.812,33.201L-105.288,23.229L-53.655,53.14C-53.635,53.151 -53.616,53.162 -53.596,53.173C-53.243,53.361 -52.821,53.472 -52.42,53.472C-51.993,53.472 -51.571,53.362 -51.188,53.142C-51.187,53.141 -51.187,53.141 -51.186,53.14L1.734,22.499C1.735,22.499 1.737,22.498 1.738,22.497C2.491,22.059 2.962,21.246 2.962,20.369L2.988,0.979C2.989,0.937 2.989,0.89 2.988,0.839C2.979,0.308 2.845,-0.093 2.58,-0.481C2.339,-0.835 1.923,-1.163 1.767,-1.255C1.762,-1.258 1.757,-1.26 1.752,-1.263L-13.1,-9.75L1.598,-17.071C2.433,-17.484 2.962,-18.339 2.962,-19.274L2.962,-19.271L2.989,-40.064C2.989,-40.377 2.89,-40.899 2.655,-41.302C2.441,-41.669 2.131,-41.982 1.751,-42.199C1.757,-42.195 -51.187,-72.704 -51.187,-72.704C-51.937,-73.14 -52.876,-73.142 -53.633,-72.712C-53.628,-72.715 -87.749,-53.442 -87.749,-53.442C-93.393,-56.629 -121.876,-72.715 -121.876,-72.715C-122.628,-73.142 -123.567,-73.14 -124.324,-72.7L-176.611,-42.522C-176.826,-42.495 -177.102,-42.338 -177.455,-42.009C-178.054,-41.546 -178.411,-40.828 -178.411,-40.061L-178.411,-1.258L-193.72,7.854L-209.088,-1.26L-209.088,-60.297C-209.088,-60.578 -209.242,-61.254 -209.458,-61.595C-209.6,-61.819 -210.171,-62.342 -210.284,-62.41C-210.286,-62.411 -210.288,-62.412 -210.29,-62.413L-227.551,-72.687C-227.554,-72.689 -227.557,-72.691 -227.56,-72.692C-228.337,-73.15 -229.301,-73.149 -230.078,-72.682C-230.074,-72.684 -247.248,-62.411 -247.248,-62.411C-247.249,-62.411 -247.25,-62.41 -247.251,-62.41C-247.441,-62.296 -247.885,-61.918 -248.107,-61.544C-248.36,-61.117 -248.446,-60.531 -248.446,-60.297L-248.446,20.368C-248.446,21.245 -247.986,22.051 -247.227,22.494C-247.229,22.493 -194.963,53.103 -194.963,53.103L-194.967,53.1ZM-1.961,18.948L-49.962,46.741L-49.978,32.479L-29.053,20.558L-1.942,5.113L-1.961,18.948ZM-142.038,-21.367C-142.055,-21.356 -142.073,-21.345 -142.09,-21.334C-142.09,-21.334 -142.532,-21.044 -142.833,-20.569C-143.075,-20.187 -143.201,-19.739 -143.201,-19.274L-143.201,-19.27L-143.123,18.948L-191.256,46.715L-191.256,32.513C-185.596,29.235 -157.31,12.849 -157.31,12.849C-156.989,12.666 -156.431,11.984 -156.398,11.925C-156.363,11.862 -156.083,10.976 -156.083,10.724L-156.083,-28.878L-130.374,-43.602L-125.549,-46.365L-125.549,-31.671L-142.038,-21.367ZM-193.717,28.247L-224.004,10.662L-211.529,3.018L-194.976,12.835C-194.198,13.299 -193.234,13.294 -192.462,12.836L-175.963,3.016L-163.37,10.669L-193.717,28.247ZM-51.137,-52.717C-51.205,-52.76 -51.685,-53.047 -52.328,-53.075C-52.92,-53.1 -53.591,-52.777 -53.591,-52.777C-53.609,-52.768 -53.627,-52.758 -53.644,-52.748L-87.749,-33.146L-121.858,-52.747L-121.871,-52.701L-121.875,-52.711L-121.864,-52.751C-122.243,-52.967 -122.665,-53.075 -123.087,-53.075C-123.335,-53.075 -123.815,-52.938 -123.815,-52.938C-123.815,-52.938 -123.459,-53.044 -123.287,-53.059C-123.626,-53.036 -123.984,-52.938 -124.312,-52.749L-158.557,-33.135L-167.496,-38.146L-170.968,-40.092C-170.968,-40.092 -129.943,-63.77 -123.073,-67.735L-88.96,-48.469C-88.212,-48.046 -87.286,-48.046 -86.537,-48.47C-86.538,-48.469 -52.43,-67.736 -52.43,-67.736C-46.427,-64.277 -14.282,-45.754 -4.363,-40.038L-35.985,-21.395C-36.744,-20.947 -37.2,-20.134 -37.195,-19.262C-37.19,-18.383 -36.72,-17.576 -35.958,-17.139L-19.545,-7.76L-4.442,0.869C-4.442,0.869 -45.539,24.282 -52.436,28.211L-82.857,10.695L-81.937,10.153L-69.813,3.013L-53.697,12.821C-52.912,13.302 -51.93,13.301 -51.148,12.828L-33.47,2.255C-32.711,1.802 -32.256,0.98 -32.271,0.102C-32.286,-0.781 -32.77,-1.582 -33.535,-2.009C-33.537,-2.01 -33.539,-2.011 -33.54,-2.012L-64.841,-19.348L-62.046,-21.005L-33.478,-37.943C-32.73,-38.386 -32.271,-39.192 -32.271,-40.06C-32.271,-40.924 -32.724,-41.727 -33.47,-42.174L-51.137,-52.717ZM-107.775,18.978L-120.623,26.732L-120.624,15.668L-120.624,12.119L-107.775,4.473L-107.775,18.978ZM-107.775,-1.258L-123.079,7.849L-126.119,6.019L-138.2,-1.254L-138.259,-15.17L-124.241,-7.725C-123.528,-7.346 -122.667,-7.34 -121.943,-7.719C-121.942,-7.72 -121.94,-7.72 -121.938,-7.721L-107.775,-15.192L-107.775,-1.258ZM-71.042,-21.396C-71.042,-21.396 -71.629,-21.044 -71.946,-20.467C-72.093,-20.2 -72.254,-19.556 -72.254,-19.275L-72.254,-1.266L-85.287,6.411L-85.287,-28.88L-60.502,-43.126L-54.879,-46.358L-54.879,-30.98L-71.047,-21.394L-71.042,-21.396ZM-214.012,-56.092L-214.012,-1.237L-217.512,0.908L-226.349,6.322L-226.349,-49.171L-214.012,-56.092ZM-123.082,-27.405L-110.263,-19.449L-123.083,-12.685L-135.816,-19.449L-123.082,-27.405ZM-1.961,-20.801L-18.244,-12.689L-29.828,-19.308L-1.941,-35.748L-1.961,-20.801ZM-176.294,-42.445C-176.381,-42.509 -176.485,-42.538 -176.611,-42.522L-177.18,-42.194C-177.2,-42.182 -177.22,-42.17 -177.239,-42.158C-177.314,-42.112 -177.386,-42.062 -177.455,-42.009C-177.491,-41.975 -177.528,-41.94 -177.565,-41.903C-177.466,-41.999 -177.357,-42.085 -177.239,-42.158C-177.225,-42.166 -177.211,-42.175 -177.197,-42.183L-177.213,-42.156C-177.336,-42.089 -177.455,-42.007 -177.561,-41.906C-177.484,-41.974 -177.372,-42.039 -177.245,-42.099L-177.213,-42.156C-176.856,-42.351 -176.468,-42.422 -176.294,-42.445ZM-176.382,-42.406C-176.272,-42.438 -176.201,-42.455 -176.201,-42.455C-176.201,-42.455 -176.236,-42.452 -176.294,-42.445L-176.382,-42.406C-176.596,-42.346 -176.959,-42.235 -177.245,-42.099L-177.296,-42.01L-176.382,-42.406ZM-228.807,-67.704L-216.47,-60.36L-228.808,-53.438L-241.083,-60.36L-228.807,-67.704Z" style="fill-rule:nonzero;"/>
            </g>
        </g>
    </g>
</svg>
