<?xml version="1.0" encoding="UTF-8" standalone="no"?>
<!DOCTYPE svg PUBLIC "-//W3C//DTD SVG 1.1//EN" "http://www.w3.org/Graphics/SVG/1.1/DTD/svg11.dtd">
<svg width="100%" height="100%" viewBox="0 0 2500 532" version="1.1" xmlns="http://www.w3.org/2000/svg" xmlns:xlink="http://www.w3.org/1999/xlink" xml:space="preserve" xmlns:serif="http://www.serif.com/" style="fill-rule:evenodd;clip-rule:evenodd;stroke-linejoin:round;stroke-miterlimit:2;">
    <g transform="matrix(1,0,0,1,-117.787,-105.467)">
        <g transform="matrix(-4.16667,0,0,4.16667,2601.64,-2852.38)">
            <g>
                <rect x="305.221" y="721.379" width="13.951" height="83.703" style="fill:white;"/>
            </g>
        </g>
        <g transform="matrix(-4.16667,0,0,4.16667,3996.7,-2852.38)">
            <g>
                <rect x="472.628" y="721.379" width="13.951" height="83.703" style="fill:white;"/>
            </g>
        </g>
        <g transform="matrix(4.16667,0,0,4.16667,1504.26,327.749)">
            <g>
                <path d="M0,27.901C-7.705,27.901 -13.951,21.655 -13.951,13.95C-13.951,6.246 -7.705,-0 0,-0C7.705,-0 13.951,6.246 13.951,13.95C13.951,21.655 7.705,27.901 0,27.901M13.951,-13.951L13.951,-10.209C9.846,-12.584 5.084,-13.951 0,-13.951C-15.409,-13.951 -27.901,-1.459 -27.901,13.95C-27.901,29.36 -15.409,41.852 0,41.852C5.084,41.852 9.846,40.485 13.951,38.11L13.951,41.852L27.901,41.852L27.901,-13.951L13.951,-13.951Z" style="fill:white;fill-rule:nonzero;"/>
            </g>
        </g>
        <g transform="matrix(4.16667,0,0,4.16667,1794.9,327.748)">
            <g>
                <path d="M0,0C7.705,0 13.951,6.246 13.951,13.951C13.951,21.655 7.705,27.901 0,27.901C-7.705,27.901 -13.951,21.655 -13.951,13.951C-13.951,6.246 -7.705,0 0,0M-13.951,41.852L-13.951,38.11C-9.846,40.485 -5.084,41.852 0,41.852C15.409,41.852 27.901,29.36 27.901,13.951C27.901,-1.459 15.409,-13.951 0,-13.951C-5.084,-13.951 -9.846,-12.584 -13.951,-10.209L-13.951,-41.852L-27.901,-41.852L-27.901,41.852L-13.951,41.852Z" style="fill:white;fill-rule:nonzero;"/>
            </g>
        </g>
        <g transform="matrix(4.16667,0,0,4.16667,2434.3,473.067)">
            <g>
                <path d="M0,-20.926C0,-28.631 6.246,-34.877 13.951,-34.877C21.655,-34.877 27.901,-28.631 27.901,-20.926C27.901,-13.221 21.655,-6.975 13.951,-6.975C6.246,-6.975 0,-13.221 0,-20.926M-13.951,-48.827L-13.951,27.901L0,27.901L0,3.233C4.105,5.609 8.867,6.975 13.951,6.975C29.36,6.975 41.852,-5.517 41.852,-20.926C41.852,-36.335 29.36,-48.827 13.951,-48.827C8.867,-48.827 4.105,-47.461 0,-45.085L0,-48.827L-13.951,-48.827Z" style="fill:white;fill-rule:nonzero;"/>
            </g>
        </g>
        <g transform="matrix(4.16667,0,0,4.16667,2259.92,502.13)">
            <g>
                <path d="M0,-55.802L0,-27.901C0,-20.196 -6.246,-13.95 -13.951,-13.95C-21.655,-13.95 -27.901,-20.196 -27.901,-27.901L-27.901,-55.802L-41.851,-55.802L-41.851,-27.901C-41.851,-12.491 -29.359,0 -13.95,0C1.459,0 13.951,-12.491 13.951,-27.901L13.951,-55.802L0,-55.802Z" style="fill:white;fill-rule:nonzero;"/>
            </g>
        </g>
        <g transform="matrix(4.16667,0,0,4.16667,1153.31,412.097)">
            <g>
                <path d="M-194.719,52.676L-194.71,52.681C-194.411,52.856 -194.074,52.944 -193.74,52.949C-193.282,52.956 -192.78,52.711 -192.78,52.711C-192.764,52.703 -192.749,52.694 -192.733,52.685L-140.686,22.659L-124.112,32.776L-124.162,32.744C-124.124,32.769 -124.039,32.814 -123.959,32.853L-124.048,32.813C-123.747,32.982 -123.418,33.065 -123.085,33.065C-122.753,33.065 -122.416,32.979 -122.116,32.809L-122.179,32.837C-122.121,32.809 -122.065,32.779 -122.028,32.756L-122.066,32.78L-105.293,22.658L-53.408,52.715C-53.394,52.723 -53.379,52.731 -53.365,52.739C-53.081,52.891 -52.742,52.981 -52.42,52.981C-52.078,52.981 -51.74,52.893 -51.434,52.716L1.488,22.074C1.489,22.073 1.49,22.073 1.491,22.073C2.094,21.722 2.471,21.071 2.471,20.369L2.497,0.953L2.497,0.848C2.489,0.425 2.385,0.105 2.174,-0.205C1.98,-0.49 1.646,-0.756 1.519,-0.83C1.515,-0.832 1.512,-0.835 1.508,-0.837L-14.142,-9.78L1.379,-17.511C2.047,-17.842 2.471,-18.526 2.471,-19.274L2.471,-19.272L2.498,-40.064C2.498,-40.315 2.419,-40.732 2.23,-41.054C2.059,-41.348 1.811,-41.598 1.507,-41.772C1.511,-41.77 -51.433,-72.279 -51.433,-72.279C-52.033,-72.628 -52.785,-72.629 -53.39,-72.285C-53.386,-72.287 -87.749,-52.877 -87.749,-52.877L-122.118,-72.287C-122.719,-72.629 -123.471,-72.628 -124.077,-72.276L-176.508,-42.014C-176.667,-41.994 -176.872,-41.879 -177.133,-41.636C-177.625,-41.267 -177.92,-40.684 -177.92,-40.061L-177.92,-0.978L-193.719,8.426L-209.579,-0.98L-209.579,-60.297C-209.579,-60.521 -209.701,-61.06 -209.873,-61.331C-209.987,-61.512 -210.446,-61.934 -210.537,-61.988C-210.539,-61.989 -210.54,-61.99 -210.542,-61.991L-227.803,-72.265C-227.805,-72.266 -227.807,-72.267 -227.809,-72.269C-228.431,-72.635 -229.203,-72.635 -229.825,-72.261C-229.822,-72.262 -246.996,-61.989 -246.996,-61.989C-246.997,-61.989 -246.997,-61.989 -246.998,-61.988C-247.15,-61.897 -247.507,-61.593 -247.684,-61.293C-247.887,-60.952 -247.955,-60.484 -247.955,-60.297L-247.955,20.368C-247.955,21.07 -247.586,21.715 -246.979,22.07C-246.98,22.069 -194.714,52.679 -194.714,52.679L-194.719,52.676ZM-1.47,19.231L-50.453,47.593L-50.47,32.193L-29.296,20.131L-1.449,4.267L-1.47,19.231ZM-141.778,-20.95C-141.791,-20.942 -141.804,-20.934 -141.816,-20.925C-141.816,-20.925 -142.174,-20.691 -142.418,-20.306C-142.611,-20.002 -142.71,-19.644 -142.71,-19.274L-142.71,-19.271L-142.631,19.231L-191.747,47.566L-191.747,32.23C-186.72,29.318 -157.557,12.424 -157.557,12.424C-157.299,12.277 -156.854,11.733 -156.828,11.686C-156.799,11.636 -156.574,10.926 -156.574,10.724L-156.574,-29.163L-130.618,-44.029L-125.058,-47.213L-125.058,-31.398L-141.778,-20.95ZM-193.717,28.815L-224.963,10.673L-211.534,2.445L-194.725,12.412C-194.102,12.784 -193.331,12.78 -192.712,12.414L-175.961,2.443L-162.407,10.679L-193.717,28.815ZM-51.398,-52.301C-51.462,-52.34 -51.843,-52.562 -52.349,-52.584C-52.823,-52.604 -53.36,-52.344 -53.36,-52.344C-53.373,-52.337 -53.386,-52.33 -53.399,-52.322C-53.399,-52.322 -82.711,-35.476 -87.749,-32.58C-92.788,-35.475 -122.103,-52.321 -122.103,-52.321L-122.112,-52.286L-122.116,-52.294L-122.108,-52.324C-122.411,-52.497 -122.749,-52.584 -123.087,-52.584C-123.274,-52.584 -123.638,-52.48 -123.638,-52.48C-123.638,-52.48 -123.375,-52.558 -123.246,-52.569C-123.518,-52.55 -123.805,-52.474 -124.067,-52.323C-124.266,-52.209 -153.551,-35.437 -158.555,-32.571L-167.737,-37.717L-171.962,-40.086C-162.814,-45.366 -128.511,-65.164 -123.076,-68.301L-88.718,-48.897C-88.12,-48.559 -87.378,-48.559 -86.779,-48.898C-86.78,-48.897 -52.427,-68.301 -52.427,-68.301C-52.427,-68.301 -13.168,-45.679 -3.387,-40.043L-35.735,-20.972C-36.342,-20.614 -36.708,-19.963 -36.704,-19.265C-36.7,-18.561 -36.323,-17.915 -35.713,-17.565L-19.301,-8.187L-3.45,0.87L-52.437,28.777L-83.833,10.7L-82.186,9.729L-69.808,2.44L-53.442,12.402C-52.813,12.787 -52.027,12.786 -51.401,12.407L-33.722,1.833C-33.114,1.471 -32.75,0.813 -32.762,0.11C-32.774,-0.597 -33.162,-1.238 -33.775,-1.58C-33.776,-1.58 -33.777,-1.581 -33.778,-1.582L-65.829,-19.334L-62.297,-21.428L-33.729,-38.366C-33.13,-38.72 -32.762,-39.365 -32.762,-40.06C-32.762,-40.752 -33.125,-41.394 -33.722,-41.752L-51.398,-52.301ZM-107.284,19.256L-121.114,27.602L-121.115,15.668L-121.116,11.839L-107.284,3.609L-107.284,19.256ZM-107.284,-0.978L-123.081,8.422L-126.372,6.44L-138.691,-0.976L-138.754,-15.989L-124.011,-8.159C-123.44,-7.856 -122.75,-7.851 -122.171,-8.154L-107.284,-16.007L-107.284,-0.978ZM-70.792,-20.973C-70.792,-20.973 -71.262,-20.692 -71.516,-20.23C-71.634,-20.016 -71.763,-19.5 -71.763,-19.275L-71.763,-0.985L-85.778,7.27L-85.778,-29.165L-60.747,-43.552L-54.388,-47.207L-54.388,-30.7L-70.796,-20.971L-70.792,-20.973ZM-213.521,-56.931L-213.521,-0.962L-217.256,1.327L-226.84,7.2L-226.84,-49.459L-213.521,-56.931ZM-123.083,-27.984L-109.275,-19.414L-123.084,-12.129L-136.799,-19.414L-123.083,-27.984ZM-1.47,-20.496L-18.26,-12.132L-30.807,-19.302L-1.448,-36.609L-1.47,-20.496ZM-176.27,-41.956C-176.335,-42.004 -176.413,-42.026 -176.508,-42.014L-176.934,-41.768C-176.949,-41.759 -176.964,-41.751 -176.978,-41.742C-177.032,-41.709 -177.083,-41.674 -177.133,-41.636L-177.22,-41.553L-177.219,-41.554C-177.146,-41.625 -177.065,-41.688 -176.978,-41.742C-176.968,-41.748 -176.958,-41.754 -176.948,-41.76L-176.96,-41.739C-177.05,-41.69 -177.139,-41.629 -177.217,-41.555C-177.159,-41.605 -177.077,-41.652 -176.984,-41.697L-176.96,-41.739C-176.691,-41.886 -176.4,-41.939 -176.27,-41.956ZM-176.335,-41.928C-176.253,-41.951 -176.201,-41.963 -176.201,-41.963L-176.27,-41.956L-176.335,-41.928C-176.495,-41.883 -176.768,-41.799 -176.984,-41.697L-177.022,-41.63L-176.335,-41.928ZM-228.808,-68.276L-215.488,-60.348L-228.808,-52.875L-242.061,-60.348L-228.808,-68.276Z" style="fill:white;fill-rule:nonzero;"/>
            </g>
        </g>
    </g>
</svg>
