<svg id="Layer_1" data-name="Layer 1" xmlns="http://www.w3.org/2000/svg" viewBox="0 0 595.28 121.58"><defs><style>.cls-1{fill:#bddaa6;}.cls-2{fill:#39a96b;}.cls-3{fill:#38a96b;}.cls-4{fill:#374f5b;}</style></defs><polygon class="cls-1" points="0 10.27 17.17 19.96 34.44 10.27 17.17 0 0 10.27"/><polygon class="cls-1" points="52.27 81.29 70.03 70.71 87.44 81.29 52.27 101.67 17.17 81.29 34.44 70.71 52.27 81.29"/><polygon class="cls-1" points="87.44 40.27 122.9 19.96 158.24 40.27 193.57 19.96 211.25 30.51 176.19 51.3 211.25 70.71 193.57 81.29 176.19 70.71 158.24 81.29 193.54 101.62 246.51 71.44 211.25 51.3 246.51 30.51 193.57 0 158.24 19.96 122.9 0 70.03 30.51 87.44 40.27"/><polygon class="cls-1" points="105.25 51.3 122.9 60.67 140.67 51.3 140.67 70.71 122.9 81.29 105.33 70.71 105.25 51.3"/><polygon class="cls-2" points="17.17 81.29 34.44 70.71 34.44 10.27 17.17 19.96 17.17 81.29"/><polygon class="cls-2" points="87.44 40.27 122.9 19.96 122.9 40.27 105.25 51.3 105.33 90.94 52.27 121.55 52.27 101.67 87.44 81.29 87.44 40.27"/><polygon class="cls-2" points="158.24 40.27 193.57 19.96 193.57 40.99 176.19 51.3 176.19 70.71 158.24 81.29 158.24 40.27"/><polygon class="cls-3" points="193.54 101.62 246.51 71.44 246.49 90.94 193.56 121.58 193.54 101.62"/><polygon class="cls-3" points="122.9 81.29 140.67 70.71 140.67 90.94 122.9 101.67 122.9 81.29"/><polygon class="cls-4" points="0 10.27 17.17 19.96 17.17 81.29 52.27 101.67 52.27 121.55 0 90.94 0 10.27"/><polygon class="cls-4" points="70.03 30.51 87.44 40.27 87.44 81.29 70.03 70.71 70.03 30.51"/><polygon class="cls-4" points="122.9 19.96 158.24 40.27 158.24 81.29 193.54 101.62 193.56 121.58 140.67 90.94 140.67 51.3 122.9 40.27 122.9 19.96"/><polygon class="cls-4" points="105.33 70.71 122.9 81.29 122.9 101.67 105.33 90.94 105.33 70.71"/><polygon class="cls-4" points="193.57 19.96 193.57 40.99 211.25 30.51 193.57 19.96"/><polygon class="cls-4" points="176.19 51.3 211.25 70.71 193.57 81.29 176.19 70.71 176.19 51.3"/><polygon class="cls-2" points="211.25 51.3 227.66 60.67 246.49 51.3 246.51 30.51 211.25 51.3"/><rect class="cls-4" x="274.41" y="8.48" width="13.95" height="83.7"/><rect class="cls-2" x="441.82" y="8.48" width="13.95" height="83.7"/><path class="cls-4" d="M344.17,36.38v3.74a27.75,27.75,0,0,0-14-3.74h0a27.9,27.9,0,0,0-27.9,27.9h0a27.9,27.9,0,0,0,27.9,27.9h0a27.85,27.85,0,0,0,14-3.74v3.74h13.95V64.28h0V36.38Zm-14,41.85h0a14,14,0,0,1-13.95-14h0a14,14,0,0,1,13.95-14h0a14,14,0,0,1,14,14h0A14,14,0,0,1,330.21,78.23Z"/><path class="cls-4" d="M386,92.18V88.44a27.78,27.78,0,0,0,14,3.74h0a27.9,27.9,0,0,0,27.9-27.9h0A27.9,27.9,0,0,0,400,36.38h0a27.68,27.68,0,0,0-14,3.74V8.48H372.07v55.8h0v27.9Zm14-41.85h0a14,14,0,0,1,13.95,14h0a14,14,0,0,1-13.95,14h0a14,14,0,0,1-14-14h0A13.94,13.94,0,0,1,400,50.33Z"/><path class="cls-4" d="M539.47,36.38v27.9h0v48.83h13.95V88.44a27.84,27.84,0,0,0,14,3.74h0a27.91,27.91,0,0,0,27.91-27.9h0a27.91,27.91,0,0,0-27.91-27.9h0a27.74,27.74,0,0,0-14,3.74V36.38Zm13.95,27.9h0a14,14,0,0,1,14-14h0a14,14,0,0,1,14,14h0a14,14,0,0,1-14,14h0A14,14,0,0,1,553.42,64.28Z"/><path class="cls-4" d="M511.57,36.38v27.9a14,14,0,0,1-13.95,14h0a14,14,0,0,1-13.95-14V36.38H469.72v27.9a27.9,27.9,0,0,0,27.9,27.9h0a27.9,27.9,0,0,0,27.9-27.9V36.38Z"/></svg>