<svg width="3000" height="1250" xmlns="http://www.w3.org/2000/svg" xmlns:xlink="http://www.w3.org/1999/xlink" overflow="hidden"><path d="M0 0C1.61161 0.00190338 1.61161 0.00190338 3.25577 0.00384521 51.4167 0.112394 97.4081 7.8475 142.812 24.1875 144.133 24.6603 144.133 24.6603 145.48 25.1426 173.78 35.4416 201.551 50.3779 225.812 68.1875 226.835 68.9364 227.857 69.6854 228.91 70.457 235.33 75.2211 241.636 80.1129 247.812 85.1875 248.79 85.9777 249.767 86.7679 250.773 87.582 258.63 94.0508 265.915 101.076 273.125 108.25 274.044 109.16 274.963 110.069 275.909 111.006 281.227 116.348 286.147 121.863 290.858 127.747 292.417 129.694 293.999 131.597 295.641 133.473 375.93 225.547 383.812 337.607 383.812 456.188 191.423 456.188-0.9675 456.188-199.188 456.188-194.651 471.913-194.651 471.913-188.812 487-188.429 487.869-188.046 488.738-187.652 489.634-180.971 504.584-173.087 519.052-162.355 531.527-160.188 534.188-160.188 534.188-160.188 536.188-159.527 536.188-158.867 536.188-158.188 536.188-156.812 537.586-156.812 537.586-155.188 539.562-143.151 553.626-129.052 564.76-113.188 574.188-112.328 574.699-112.328 574.699-111.452 575.222-58.1771 606.446 12.7378 609.086 71.373 594.124 104.228 585.182 134.671 570.807 161.812 550.188 162.334 549.796 162.856 549.404 163.394 549 172.737 541.984 181.726 534.907 189.305 525.953 191.039 523.922 192.886 522.037 194.812 520.188 197.875 521.605 200.424 523.296 203.094 525.355 203.926 525.994 204.758 526.633 205.615 527.291 206.505 527.978 207.395 528.666 208.312 529.375 210.208 530.83 212.104 532.285 214 533.738 214.966 534.479 215.931 535.22 216.926 535.983 221.365 539.373 225.838 542.719 230.312 546.062 236.787 550.905 243.223 555.791 249.617 560.738 252.602 563.038 255.621 565.289 258.643 567.54 264.558 571.945 270.395 576.418 276.125 581.062 282.569 586.281 289.2 591.213 295.892 596.108 302.618 601.029 309.23 606.076 315.812 611.188 318.082 612.94 320.353 614.689 322.625 616.438 323.435 617.061 323.435 617.061 324.262 617.698 328.42 620.895 332.606 624.053 336.812 627.188 335.473 630.194 334.014 632.185 331.625 634.438 329.221 636.768 326.968 639.126 324.812 641.688 317.157 650.558 308.637 659.044 299.68 666.598 297.438 668.506 295.29 670.505 293.125 672.5 287.913 677.201 282.423 681.478 276.811 685.686 275.259 686.852 273.712 688.024 272.167 689.198 264.993 694.629 257.692 699.817 250.25 704.875 249.204 705.595 248.158 706.315 247.08 707.057 240.512 711.529 233.834 715.478 226.812 719.188 225.082 720.148 223.354 721.113 221.629 722.082 186.147 741.859 148.299 754.994 108.812 764.188 107.924 764.395 107.035 764.603 106.12 764.816 95.3402 767.28 84.4577 768.878 73.5 770.312 72.2917 770.471 71.0835 770.63 69.8386 770.794 65.8336 771.296 61.8255 771.756 57.8125 772.188 56.5845 772.322 56.5845 772.322 55.3316 772.458 39.1301 774.178 23.0341 774.549 6.75 774.5 5.49626 774.498 4.24251 774.496 2.95078 774.495-15.6201 774.449-33.7989 773.96-52.1875 771.188-53.3912 771.016-54.5948 770.844-55.835 770.667-118.975 761.546-181.002 738.78-232.438 700.488-234.366 699.055-236.306 697.637-238.246 696.219-245.03 691.229-251.62 686.177-257.781 680.418-259.749 678.594-261.749 676.844-263.785 675.098-268.616 670.883-273.164 666.397-277.696 661.864-279.114 660.448-280.54 659.041-281.967 657.633-288.15 651.463-293.747 645.015-299.188 638.188-300.062 637.148-300.943 636.113-301.832 635.086-360.388 566.929-388.327 474.217-386.938 355.957-382.787 302.115-367.648 249.352-341.188 202.188-340.777 201.443-340.367 200.699-339.945 199.933-324.483 171.929-305.655 146.801-284.188 123.188-283.424 122.332-282.661 121.476-281.875 120.594-275.694 113.661-269.387 107.129-262.348 101.066-259.968 98.997-257.642 96.8753-255.312 94.75-195.28 40.7297-116.048 8.70506-36.1875 1.1875-35.252 1.09106-34.3166 0.994624-33.3528 0.895264-22.26-0.126069-11.1296-0.0134522 0 0ZM-162.158 233.974C-182.608 256.284-198.188 286.594-198.188 317.188-68.4975 317.188 61.1925 317.188 194.812 317.188 194.812 283.684 177.041 253.21 154.251 229.682 152.769 228.143 151.317 226.578 149.863 225.012 128.366 202.246 99.3893 187.508 69.8125 178.188 69.1064 177.965 68.4003 177.742 67.6729 177.512-12.1678 153.005-104.608 172.93-162.158 233.974Z" fill="#00C7FD" transform="translate(2015.19 403.812)"/><path d="M0 0C1.48837 0.00273422 1.48837 0.00273422 3.00681 0.00552368 20.7063 0.0598303 38.0707 0.936215 55.625 3.3125 56.8275 3.47347 58.0301 3.63444 59.269 3.80029 84.294 7.3013 109.527 13.5371 132.794 23.5303 134.567 24.2878 136.356 25.0079 138.145 25.7266 173.467 40.1786 206.739 64.3212 231.625 93.3125 232.508 94.3205 233.39 95.3283 234.273 96.3359 274.782 142.94 295.198 202.05 304.375 262.312 304.574 263.591 304.773 264.869 304.977 266.186 308.944 293.62 308.912 321.126 308.857 348.776 308.848 354.302 308.851 359.829 308.853 365.355 308.854 374.897 308.848 384.439 308.836 393.982 308.82 407.777 308.815 421.573 308.812 435.369 308.808 457.759 308.795 480.15 308.776 502.54 308.757 524.272 308.743 546.004 308.735 567.735 308.734 569.105 308.734 570.476 308.733 571.846 308.729 582.456 308.725 593.066 308.721 603.676 308.703 655.555 308.662 707.434 308.625 759.312 243.285 759.312 177.945 759.312 110.625 759.312 110.576 730.725 110.527 702.137 110.477 672.684 110.441 654.55 110.405 636.417 110.367 618.283 110.347 608.752 110.327 599.221 110.308 589.69 110.305 588.495 110.303 587.301 110.3 586.07 110.261 566.847 110.228 547.624 110.198 528.4 110.166 508.637 110.128 488.874 110.082 469.111 110.054 456.94 110.032 444.768 110.018 432.597 110.007 424.223 109.989 415.85 109.966 407.477 109.953 402.663 109.942 397.849 109.941 393.035 109.921 348.424 109.704 301.626 90.625 260.312 90.3354 259.683 90.0459 259.053 89.7476 258.404 72.7356 221.816 45.8515 195.47 7.73242 181.375-6.82595 176.399-22.0551 173.487-37.375 172.312-38.0588 172.258-38.7427 172.203-39.4473 172.146-44.0878 171.78-48.7245 171.515-53.375 171.312-54.3302 171.27-55.2854 171.227-56.2695 171.184-99.6051 170.254-142.794 185.382-174.375 215.312-175.765 216.527-177.161 217.736-178.562 218.938-179.836 220.059-181.107 221.184-182.375 222.312-183.199 223.036-183.199 223.036-184.039 223.773-194.88 233.895-202.623 247.257-209.375 260.312-209.846 261.216-209.846 261.216-210.327 262.138-232.778 305.806-234.676 356.354-234.692 404.387-234.695 409.166-234.711 413.945-234.724 418.725-234.746 426.974-234.762 435.224-234.772 443.473-234.786 455.4-234.812 467.327-234.84 479.254-234.885 498.611-234.922 517.969-234.953 537.327-234.983 556.114-235.018 574.901-235.058 593.688-235.06 594.86-235.063 596.033-235.065 597.242-235.085 606.417-235.104 615.591-235.124 624.766-235.221 669.615-235.296 714.464-235.375 759.312-300.055 759.312-364.735 759.312-431.375 759.312-431.375 513.792-431.375 268.272-431.375 15.3125-367.355 15.3125-303.335 15.3125-237.375 15.3125-237.045 49.6325-236.715 83.9525-236.375 119.312-233.075 115.022-229.775 110.732-226.375 106.312-224.416 103.93-222.461 101.574-220.438 99.25-219.937 98.6726-219.437 98.0952-218.921 97.5002-217.412 95.7656-215.895 94.038-214.375 92.3125-213.92 91.793-213.465 91.2735-212.997 90.7383-201.683 77.8746-189.121 66.5219-175.375 56.3125-174.732 55.8346-174.089 55.3567-173.427 54.8643-139.266 29.6772-101.5 13.3509-59.9375 5.0625-58.7253 4.81613-57.5131 4.56976-56.2642 4.31592-37.6546 0.760123-18.9072-0.0729885 0 0Z" fill="#00C7FD" transform="translate(821.375 403.688)"/><path d="M0 0C65.01 0 130.02 0 197 0 197 95.7 197 191.4 197 290 243.86 290 290.72 290 339 290 339 345.44 339 400.88 339 458 292.14 458 245.28 458 197 458 197.12 508.302 197.12 508.302 197.258 558.604 197.278 565.411 197.298 572.219 197.317 579.027 197.32 579.88 197.322 580.733 197.325 581.612 197.364 595.321 197.397 609.031 197.428 622.741 197.459 636.847 197.497 650.953 197.543 665.059 197.57 673.739 197.593 682.419 197.607 691.099 197.618 697.079 197.636 703.059 197.659 709.039 197.672 712.472 197.682 715.904 197.684 719.336 197.697 733.104 197.974 746.8 198.903 760.54 198.981 761.7 199.059 762.86 199.14 764.056 201.146 791.06 205.627 819.221 227.121 837.832 256.706 860.111 305.44 856.917 339 858 339 918.72 339 979.44 339 1042 276.864 1042 214.888 1040.96 155 1023 154.263 1022.79 153.527 1022.57 152.768 1022.35 128.6 1015.25 105.323 1002.96 85.6523 987.31 83.4001 985.524 81.1028 983.799 78.8125 982.062 75.6361 979.571 72.785 976.932 70 974 69.5153 973.548 69.0306 973.095 68.5312 972.629 38.0431 943.795 22.3811 902.905 13 863 12.7654 862.003 12.5308 861.006 12.2891 859.979 1.61942 813.488-0.179785 765.225-0.122266 717.721-0.118767 713.882-0.121215 710.043-0.122844 706.203-0.124898 699.503-0.123307 692.802-0.119205 686.101-0.113124 676.138-0.112874 666.174-0.113747 656.211-0.115056 639.444-0.111741 622.677-0.10573 605.91-0.0997995 589.324-0.0959614 572.739-0.0948772 556.153-0.0948085 555.119-0.0947398 554.086-0.0946689 553.02-0.0943306 547.77-0.0940292 542.519-0.0937421 537.268-0.0916454 500.14-0.0849185 463.013-0.0754395 425.886-0.0662452 389.832-0.0591664 353.778-0.0549316 317.725-0.0548001 316.612-0.0546686 315.499-0.0545331 314.353-0.0532145 303.179-0.0519387 292.004-0.0506942 280.83-0.0481585 258.07-0.0453372 235.309-0.0423431 212.549-0.0422059 211.503-0.0420686 210.456-0.0419271 209.378-0.0377066 177.327-0.0322769 145.276-0.02565 113.225-0.0254625 112.316-0.0252749 111.406-0.0250817 110.469-0.0174689 73.6462-0.00857326 36.8231 0 0Z" fill="#00C7FD" transform="translate(1236 129)"/><path d="M0 0C65.01 0 130.02 0 197 0 197 360.03 197 720.06 197 1091 131.99 1091 66.98 1091 0 1091 0 730.97 0 370.94 0 0Z" fill="#00C7FD" transform="translate(2500 72)"/><path d="M0 0C65.01 0 130.02 0 197 0 197 245.52 197 491.04 197 744 131.99 744 66.98 744 0 744 0 498.48 0 252.96 0 0Z" fill="#00C7FD" transform="translate(80 419)"/><path d="M0 0C68.64 0 137.28 0 208 0 208 68.64 208 137.28 208 208 139.36 208 70.72 208 0 208 0 139.36 0 70.72 0 0Z" fill="#0054AE" transform="translate(74 87)"/><path d="M0 0C13.685 10.973 22.0027 23.6974 26.9961 40.4023 27.5375 42.0246 27.5375 42.0246 28.0898 43.6797 32.454 61.6065 28.0148 80.8001 18.7461 96.4648 6.13539 114.199-11.0437 127.195-32.7974 131.089-53.0925 133.972-71.1105 128.906-87.8477 117.457-104.699 104.61-114.457 87.2273-117.598 66.4805-119.366 47.1056-114.043 28.076-101.78 12.8867-76.0245-18.0126-32.4823-23.8945 0 0ZM-87.0039 16.4023C-97.1583 28.3057-103.628 41.8755-103.441 57.6523-103.433 58.5662-103.425 59.4801-103.416 60.4216-103.038 75.7185-97.4273 89.3159-86.9414 100.598-74.0843 112.573-58.38 118.179-40.9023 117.746-24.9268 116.337-11.1272 110.233-0.00390625 98.4023 9.93278 86.3579 15.8059 71.3677 15.3477 55.6406 13.5445 39.032 7.10989 24.3501-5.50391 13.0898-6.65351 12.1722-7.82026 11.2756-9.00391 10.4023-9.58398 9.97437-10.1641 9.54641-10.7617 9.10547-34.4342-6.94034-66.6781-3.44358-87.0039 16.4023Z" fill="#00C7FD" transform="translate(2897 1038.6)"/><path d="M0 0C10.6116-0.12375 10.6116-0.12375 21.4375-0.25 24.7603-0.304624 24.7603-0.304624 28.1501-0.360352 29.9321-0.372049 31.7141-0.382238 33.4961-0.390625 34.4001-0.411089 35.3041-0.431553 36.2355-0.452637 43.8762-0.456776 49.3286 1.79713 55.8125 5.6875 61.3294 11.5196 63.1114 19.1245 63 27 62.3166 33.519 60.4746 38.9565 55.3945 43.4062 51.7586 46.1673 48.3865 47.6408 44 49 44.3519 49.5681 44.7038 50.1361 45.0664 50.7214 51.7256 61.472 58.3824 72.2238 65 83 59.1489 84.9504 52.6913 85.7832 47 83 41.662 77.7814 38.3819 70.5682 35 64 33.9745 62.0095 32.9463 60.0262 31.865 58.0654 31.0011 56.4909 30.199 54.883 29.4023 53.2734 26.2119 49.7846 26.2119 49.7846 16 50 16 60.89 16 71.78 16 83 10.72 83 5.44 83 0 83 0 55.61 0 28.22 0 0ZM16 14C16 21.26 16 28.52 16 36 30.6844 36.7894 30.6844 36.7894 44.125 31.9375 46.3524 28.4479 46.7176 26.237 46.5 22.1562 45.7 18.7063 43.7441 17.0907 41 15 38.4428 13.7214 36.6326 13.8866 33.7734 13.9023 32.2266 13.9072 32.2266 13.9072 30.6484 13.9121 29.5682 13.9205 28.488 13.9289 27.375 13.9375 26.287 13.942 25.1991 13.9465 24.0781 13.9512 21.3854 13.963 18.6927 13.9809 16 14Z" fill="#00C7FD" transform="translate(2824 1055)"/></svg>