<svg width="1603" height="392" xmlns="http://www.w3.org/2000/svg" xmlns:xlink="http://www.w3.org/1999/xlink" overflow="hidden"><path d="M0 0C0.33 62.7 0.66 125.4 1 190 3.64 186.7 6.28 183.4 9 180 10.3917 178.288 11.7866 176.579 13.1875 174.875 16.8867 170.364 20.5721 165.841 24.25 161.312 25.0726 160.3 25.0726 160.3 25.9119 159.266 27.6081 157.178 29.3041 155.089 31 153 34.332 148.896 37.6644 144.792 41 140.691 42.8378 138.432 44.6708 136.169 46.5 133.902 51.4805 127.755 56.6348 121.815 62 116 62.5375 115.374 63.0751 114.747 63.6289 114.102 73.2044 103.494 88.1282 97.8347 102 96 105.685 95.8594 109.367 95.8737 113.054 95.8865 114.157 95.8863 115.26 95.8862 116.397 95.886 120.033 95.8867 123.669 95.8945 127.305 95.9023 129.83 95.9042 132.355 95.9056 134.879 95.9066 140.84 95.9101 146.8 95.9179 152.76 95.928 159.549 95.9392 166.337 95.9447 173.126 95.9497 187.084 95.9601 201.042 95.9777 215 96 214.99 94.6427 214.99 94.6427 214.98 93.258 214.919 84.6963 214.874 76.1347 214.845 67.5729 214.829 63.1721 214.808 58.7714 214.774 54.3706 214.741 50.1171 214.723 45.8638 214.715 41.6102 214.71 39.9941 214.699 38.3779 214.683 36.7618 214.472 14.9311 214.472 14.9311 221.188 7.625 221.717 7.01914 222.247 6.41328 222.793 5.78906 230.782-0.686648 238.406-0.539511 248.219-0.390625 250.153-0.384583 250.153-0.384583 252.126-0.378418 256.917-0.357576 261.709-0.301731 266.5-0.25 282.587-0.12625 282.587-0.12625 299 0 299 31.68 299 63.36 299 96 344.03 96.589 344.03 96.589 385 79 387 77.3328 389 75.6665 391 74 391.07 81.9456 391.123 89.8911 391.155 97.8369 391.171 101.527 391.192 105.217 391.226 108.907 391.259 112.473 391.277 116.039 391.285 119.606 391.293 121.617 391.316 123.629 391.34 125.641 391.342 136.261 389.728 143.057 382.277 150.898 365.483 166.396 340.603 166.317 319.188 166.125 317.223 166.115 315.259 166.106 313.295 166.098 308.53 166.076 303.765 166.041 299 166 299.014 183.429 299.056 200.858 299.132 218.287 299.167 226.381 299.192 234.474 299.196 242.567 299.199 249.625 299.219 256.682 299.261 263.74 299.282 267.474 299.294 271.207 299.286 274.941 299.277 279.119 299.307 283.295 299.341 287.472 299.328 289.312 299.328 289.312 299.314 291.189 299.416 298.801 300.618 304.658 305 311 312.883 317.855 322.119 317.326 332.027 317.414 333.385 317.433 334.743 317.452 336.1 317.473 339.653 317.524 343.205 317.564 346.758 317.601 350.391 317.641 354.025 317.692 357.658 317.742 364.772 317.839 371.886 317.923 379 318 379.127 325.08 379.215 332.159 379.275 339.24 379.3 341.646 379.334 344.051 379.377 346.456 379.438 349.927 379.466 353.396 379.488 356.867 379.514 357.931 379.54 358.995 379.566 360.091 379.569 367.367 378.194 372.964 374 379 367.557 385.205 361.114 387.306 352.197 387.275 351.439 387.28 350.68 387.285 349.898 387.29 347.401 387.304 344.904 387.303 342.406 387.301 340.655 387.305 338.903 387.309 337.152 387.314 333.48 387.321 329.808 387.321 326.137 387.316 321.468 387.31 316.8 387.327 312.131 387.35 308.51 387.365 304.89 387.366 301.269 387.363 299.55 387.363 297.831 387.368 296.112 387.378 273.531 387.495 252.538 382.573 235.812 366.438 218.131 348.6 214.822 325.119 214.886 301.095 214.887 299.616 214.887 298.137 214.886 296.657 214.886 292.67 214.892 288.684 214.899 284.697 214.905 280.519 214.905 276.342 214.907 272.165 214.91 264.267 214.918 256.37 214.928 248.472 214.939 239.476 214.945 230.48 214.95 221.483 214.96 202.989 214.978 184.494 215 166 202.899 165.876 190.8 165.811 178.698 165.821 173.078 165.824 167.46 165.807 161.84 165.743 156.412 165.682 150.987 165.675 145.559 165.704 143.493 165.706 141.426 165.689 139.36 165.652 127.857 164.94 127.857 164.94 117.789 169.394 115.502 172.163 113.744 174.871 112 178 110.94 179.36 109.857 180.703 108.734 182.012 107.739 183.237 106.745 184.462 105.75 185.688 102.392 189.825 99.033 193.961 95.6641 198.09 90.3987 204.546 85.1571 211.019 80 217.562 79.5674 218.11 79.1347 218.657 78.689 219.221 75.6724 223.066 72.8192 227.008 70 231 70.6664 231.776 71.3329 232.552 72.0195 233.352 76.9691 239.143 81.8258 244.983 86.5 251 90.0672 255.591 93.7181 260.084 97.5 264.5 101.769 269.484 105.849 274.588 109.875 279.77 112.991 283.763 116.205 287.653 119.5 291.5 123.212 295.838 126.807 300.243 130.312 304.75 134.991 310.763 139.801 316.658 144.656 322.529 148.733 327.458 152.783 332.407 156.812 337.375 160.367 341.757 163.924 346.136 167.5 350.5 175.495 360.267 183.488 370.034 191.312 379.938 191.787 380.535 192.261 381.132 192.75 381.747 196 385.881 196 385.881 196 387 184.716 387.093 173.433 387.164 162.149 387.207 156.908 387.228 151.668 387.256 146.427 387.302 141.364 387.345 136.3 387.369 131.236 387.38 129.311 387.387 127.385 387.401 125.46 387.423 111.545 387.573 99.7116 386.943 89 377 82.9611 370.931 77.6185 364.368 72.3831 357.611 68.7136 352.878 64.9424 348.239 61.125 343.625 56.5399 338.081 51.9706 332.525 47.4375 326.938 46.6435 325.959 46.6435 325.959 45.8335 324.961 44.7643 323.643 43.6953 322.324 42.6265 321.006 39.8363 317.565 37.0433 314.126 34.25 310.688 33.7063 310.018 33.1625 309.349 32.6023 308.659 28.081 303.096 23.5438 297.545 19 292 17.4999 290.167 15.9999 288.333 14.5 286.5 13 284.667 11.5 282.833 10 281 7 277.333 4 273.667 1 270 0.991201 271.752 0.991201 271.752 0.982224 273.539 0.924885 284.573 0.852065 295.607 0.764285 306.641 0.719654 312.313 0.680382 317.985 0.653564 323.657 0.627459 329.136 0.587005 334.615 0.536814 340.094 0.520194 342.179 0.508649 344.264 0.502386 346.349 0.492692 349.281 0.464569 352.212 0.432373 355.144 0.434526 356.423 0.434526 356.423 0.436722 357.727 0.305463 366.239-1.32446 374.207-7.32031 380.531-13.1091 385.593-18.6872 387.129-26.2373 387.114-27.4983 387.113-28.7593 387.113-30.0585 387.113-31.4296 387.108-32.8008 387.103-34.1719 387.098-35.5786 387.096-36.9854 387.094-38.3922 387.093-42.0878 387.09-45.7834 387.08-49.4791 387.069-53.253 387.058-57.0269 387.054-60.8008 387.049-68.2005 387.038-75.6003 387.021-83 387-83.0915 340-83.162 293.001-83.2043 246.001-83.2093 240.454-83.2144 234.906-83.2197 229.358-83.2208 228.254-83.2218 227.15-83.2229 226.012-83.2403 208.124-83.2719 190.237-83.3086 172.349-83.346 153.998-83.3682 135.646-83.3764 117.295-83.3818 105.969-83.3992 94.6437-83.4317 83.318-83.4528 75.5537-83.4592 67.7895-83.454 60.0252-83.4514 55.5442-83.4554 51.0635-83.4768 46.5825-83.4963 42.479-83.4973 38.3759-83.4836 34.2723-83.4819 32.789-83.487 31.3056-83.4995 29.8224-83.5731 20.6-83.3191 13.9288-77.0352 6.75781-76.3842 6.21898-75.7332 5.68016-75.0625 5.125-74.4141 4.5707-73.7657 4.01641-73.0977 3.44531-53.0111-10.3946-24.3929 0 0 0Z" fill="#EC1B23" transform="translate(83 0)"/><path d="M0 0C0.33 62.7 0.66 125.4 1 190 2.32 188.35 3.64 186.7 5 185 9.15077 182.03 13.5774 179.54 18 177 18.7825 176.522 19.5649 176.044 20.3711 175.551 35.7613 166.854 54.6596 165.835 71.8789 165.902 73.3009 165.904 74.723 165.906 76.145 165.907 79.8587 165.91 83.5723 165.92 87.2859 165.931 91.0871 165.942 94.8883 165.946 98.6895 165.951 106.126 165.962 113.563 165.979 121 166 118.774 169.399 116.543 172.697 113.934 175.812 113.371 176.488 112.809 177.164 112.23 177.86 111.343 178.919 111.343 178.919 110.438 180 105.983 185.358 101.586 190.747 97.3125 196.25 93.3815 201.305 89.3138 206.215 85.1484 211.078 79.9037 217.23 74.952 223.611 70 230 77.6267 240.306 85.5344 250.366 93.8738 260.104 97.6723 264.56 101.283 269.147 104.875 273.77 107.991 277.763 111.205 281.653 114.5 285.5 118.282 289.916 121.933 294.409 125.5 299 129.574 304.242 133.78 309.344 138.09 314.393 141.399 318.273 144.609 322.216 147.777 326.211 150.641 329.805 153.538 333.372 156.438 336.938 157.003 337.633 157.569 338.329 158.152 339.046 161.262 342.869 164.377 346.687 167.5 350.5 175.495 360.267 183.488 370.034 191.312 379.938 191.787 380.535 192.261 381.132 192.75 381.747 196 385.881 196 385.881 196 387 184.716 387.093 173.433 387.164 162.149 387.207 156.908 387.228 151.668 387.256 146.427 387.302 141.364 387.345 136.3 387.369 131.236 387.38 129.311 387.387 127.385 387.401 125.46 387.423 111.545 387.573 99.7116 386.943 89 377 82.9611 370.931 77.6185 364.368 72.3831 357.611 68.7136 352.878 64.9424 348.239 61.125 343.625 56.5399 338.081 51.9706 332.525 47.4375 326.938 46.6435 325.959 46.6435 325.959 45.8335 324.961 44.7643 323.643 43.6953 322.324 42.6265 321.006 39.8363 317.565 37.0433 314.126 34.25 310.688 33.7063 310.018 33.1625 309.349 32.6023 308.659 28.081 303.096 23.5438 297.545 19 292 17.4999 290.167 15.9999 288.333 14.5 286.5 13 284.667 11.5 282.833 10 281 7 277.333 4 273.667 1 270 0.991201 271.752 0.991201 271.752 0.982224 273.539 0.924885 284.573 0.852065 295.607 0.764285 306.641 0.719654 312.313 0.680382 317.985 0.653564 323.657 0.627459 329.136 0.587005 334.615 0.536814 340.094 0.520194 342.179 0.508649 344.264 0.502386 346.349 0.492692 349.281 0.464569 352.212 0.432373 355.144 0.434526 356.423 0.434526 356.423 0.436722 357.727 0.305463 366.239-1.32446 374.207-7.32031 380.531-13.1091 385.593-18.6872 387.129-26.2373 387.114-27.4983 387.113-28.7593 387.113-30.0585 387.113-31.4296 387.108-32.8008 387.103-34.1719 387.098-35.5786 387.096-36.9854 387.094-38.3922 387.093-42.0878 387.09-45.7834 387.08-49.4791 387.069-53.253 387.058-57.0269 387.054-60.8008 387.049-68.2005 387.038-75.6003 387.021-83 387-83.0915 340-83.162 293.001-83.2043 246.001-83.2093 240.454-83.2144 234.906-83.2197 229.358-83.2208 228.254-83.2218 227.15-83.2229 226.012-83.2403 208.124-83.2719 190.237-83.3086 172.349-83.346 153.998-83.3682 135.646-83.3764 117.295-83.3818 105.969-83.3992 94.6437-83.4317 83.318-83.4528 75.5537-83.4592 67.7895-83.454 60.0252-83.4514 55.5442-83.4554 51.0635-83.4768 46.5825-83.4963 42.479-83.4973 38.3759-83.4836 34.2723-83.4819 32.789-83.487 31.3056-83.4995 29.8224-83.5731 20.6-83.3191 13.9288-77.0352 6.75781-76.3842 6.21898-75.7332 5.68016-75.0625 5.125-74.4141 4.5707-73.7657 4.01641-73.0977 3.44531-53.0111-10.3946-24.3929 0 0 0Z" transform="translate(83 0)"/><path d="M0 0C1.55209 0.00848969 1.55209 0.00848969 3.13553 0.0171509 6.42677 0.0394665 9.7169 0.0896553 13.0078 0.140625 15.2448 0.160696 17.4818 0.178946 19.7188 0.195312 25.1905 0.239315 30.6616 0.306179 36.1328 0.390625 35.0995 8.90965 35.0995 8.90965 34.4141 12.3633 34.2864 13.0368 34.1588 13.7104 34.0273 14.4043 33.7694 15.7438 33.5066 17.0824 33.2383 18.4199 30.2835 34.2237 30.9899 50.5646 31.0055 66.5611 31.0078 70.0968 31.0042 73.6325 31.0012 77.1681 30.9971 82.4906 30.9948 87.8131 30.9948 93.1356 30.9946 103.584 30.982 114.032 30.9651 124.48 30.9625 126.13 30.9599 127.779 30.9574 129.428 30.9534 131.927 30.9495 134.425 30.9455 136.924 30.9306 146.314 30.9169 155.704 30.9048 165.094 30.9037 165.951 30.9026 166.808 30.9014 167.692 30.8838 181.616 30.881 195.539 30.8826 209.463 30.8839 223.781 30.8662 238.099 30.8316 252.417 30.811 261.238 30.8056 270.06 30.8199 278.881 30.8284 284.918 30.8187 290.955 30.7946 296.992 30.7813 300.474 30.7762 303.956 30.7928 307.438 30.8066 311.213 30.7898 314.986 30.7653 318.761 30.7767 319.861 30.788 320.962 30.7997 322.096 30.6951 330.359 30.6951 330.359 27.7808 334.055 24.3675 337.066 22.0526 337.516 17.6614 337.504 16.3103 337.504 16.3103 337.504 14.932 337.504 13.9631 337.499 12.9943 337.494 11.9961 337.488 10.5042 337.486 10.5042 337.486 8.98222 337.484 5.80322 337.478 2.62429 337.466-0.554688 337.453-2.70898 337.448-4.86328 337.444-7.01758 337.439-12.3008 337.428-17.584 337.411-22.8672 337.391-23.1972 333.761-23.5272 330.131-23.8672 326.391-25.2078 327.257-26.5484 328.123-27.9297 329.016-50.3548 342.433-77.8891 345.959-103.289 340.367-117.839 336.396-129.138 329.943-139.867 319.391-140.919 318.358-140.919 318.358-141.992 317.305-164.67 293.475-168.096 257.474-168.117 226.203-168.118 225.312-168.119 224.42-168.119 223.502-168.087 196.849-164.903 171.469-152.867 147.391-152.334 146.322-151.8 145.253-151.25 144.152-139.304 122.119-118.406 108.432-94.8672 101.391-82.3083 98.0644-69.863 97.195-56.9297 97.1406-55.7379 97.12-54.5462 97.0994-53.3184 97.0781-43.2476 97.0352-33.738 98.5153-23.8672 100.391-23.8551 99.1097-23.8551 99.1097-23.8427 97.8029-23.7642 89.6844-23.6767 81.5661-23.5797 73.4479-23.5301 69.276-23.4838 65.1041-23.4453 60.9321-23.408 56.8925-23.3615 52.8531-23.3091 48.8136-23.2908 47.2862-23.2756 45.7587-23.2638 44.2312-23.009 12.3266-23.009 12.3266-16.8672 4.39062-11.5012-0.262624-6.914-0.143156 0 0ZM-97.9766 162.145C-115.262 182.679-115.725 214.693-113.64 240.165-112.075 254.89-108.5 268.782-98.8672 280.391-98.3219 281.048-97.7766 281.705-97.2148 282.383-89.9864 290.309-80.414 293.736-69.9414 294.645-53.0584 295.284-36.2843 288.834-23.8672 277.391-22.6113 274.879-22.7441 273.178-22.7469 270.367-22.7456 269.304-22.7442 268.241-22.7428 267.146-22.7464 265.975-22.75 264.804-22.7537 263.597-22.7535 262.368-22.7534 261.139-22.7532 259.872-22.7538 256.496-22.7588 253.121-22.7658 249.745-22.772 246.219-22.7726 242.693-22.7738 239.167-22.7769 232.487-22.7851 225.808-22.7952 219.128-22.8063 211.525-22.8118 203.922-22.8169 196.319-22.8273 180.676-22.8449 165.033-22.8672 149.391-24.6252 148.903-26.3839 148.417-28.1428 147.933-29.1221 147.662-30.1014 147.391-31.1104 147.112-53.4344 141.267-81.0879 145.61-97.9766 162.145Z" fill="#ED1B23" transform="translate(1566.87 49.6094)"/><path d="M0 0C24.2244 20.9194 32.8649 49.614 35.3125 80.75 35.4567 84.0266 35.4985 87.2987 35.5156 90.5781 35.5226 91.4816 35.5297 92.385 35.5369 93.3159 35.5543 96.2106 35.5607 99.1052 35.5625 102 35.5632 102.988 35.5639 103.975 35.5645 104.993 35.5492 119.106 35.3163 132.904 32.3125 146.75 32.1515 147.544 31.9906 148.339 31.8247 149.157 28.3849 165.699 22.1012 182.343 10.3125 194.75 9.54164 195.598 8.77078 196.446 7.97656 197.32 2.33877 203.278-3.50334 207.809-10.6875 211.75-11.7742 212.347-12.8609 212.944-13.9805 213.559-42.4516 228.338-80.4998 228.897-110.739 219.749-132.512 212.727-150.078 199.598-160.91 179.23-181.304 139.295-180.537 82.9589-167.375 40.875-163.424 29.7583-158.39 19.7639-150.688 10.75-149.924 9.73938-149.161 8.72875-148.375 7.6875-113.679-30.2365-39.1707-30.691 0 0ZM-106 40.875C-117.716 55.2979-120.785 74.1866-120.891 92.3086-120.896 93.0966-120.902 93.8846-120.908 94.6965-120.917 96.3562-120.924 98.0159-120.928 99.6755-120.937 102.151-120.968 104.625-121 107.1-121.135 127.473-118.794 149.888-104.438 165.562-93.9417 175.323-79.6033 177.469-65.8086 177.035-54.0223 176.387-42.1376 172.2-33.6875 163.75-15.9524 141.638-16.5111 107.737-19.1836 80.8047-20.855 67.3765-23.898 53.4013-32.6875 42.75-33.4725 41.7987-33.4725 41.7987-34.2734 40.8281-42.3121 31.9969-54.0991 28.1089-65.8086 27.4648-80.6892 26.9951-95.2947 29.6619-106 40.875Z" fill="#ED1B23" transform="translate(1079.69 167.25)"/><path d="M0 0C0.947355 0.00141495 1.89471 0.0028299 2.87077 0.00428772 5.88654 0.00987014 8.90223 0.0224194 11.918 0.0351562 13.9668 0.0401735 16.0156 0.044736 18.0645 0.0488281 23.0782 0.0598338 28.0918 0.0770864 33.1055 0.0976562 33.1079 0.926653 33.1102 1.75565 33.1127 2.60977 33.1719 22.8178 33.2476 43.0257 33.3412 63.2336 33.3861 73.0061 33.4255 82.7787 33.4519 92.5513 33.4749 101.073 33.5084 109.595 33.5542 118.116 33.578 122.625 33.5968 127.133 33.6031 131.642 33.6092 135.894 33.6293 140.145 33.6597 144.397 33.6685 145.95 33.6723 147.502 33.6705 149.055 33.66 162.382 34.8267 175.159 43.5273 185.844 50.0491 192.317 59.6308 194.285 68.543 194.535 80.8212 194.078 92.2318 190.759 103.105 185.098 104.15 184.617 105.194 184.136 106.27 183.64 113.11 180.243 113.11 180.243 117.3 174.118 117.734 170.442 117.758 166.957 117.641 163.256 117.644 161.866 117.653 160.475 117.667 159.084 117.689 155.321 117.631 151.564 117.56 147.801 117.499 143.843 117.514 139.886 117.521 135.927 117.523 128.419 117.461 120.912 117.374 113.404 117.25 102.443 117.224 91.4809 117.196 80.5188 117.192 78.8876 117.188 77.2563 117.183 75.6251 117.18 74.428 117.18 74.428 117.177 73.2066 117.163 68.5175 117.131 63.829 117.083 59.1401 116.635 15.1089 116.635 15.1089 123.105 5.09766 129.449-0.435855 136.018-0.0450371 144 0 144.947 0.00141495 145.895 0.0028299 146.871 0.00428772 149.887 0.00987014 152.902 0.0224194 155.918 0.0351562 157.967 0.0401735 160.016 0.044736 162.064 0.0488281 167.078 0.0598338 172.092 0.0770864 177.105 0.0976562 176.971 0.698808 176.836 1.29996 176.697 1.91933 176.429 3.11567 176.429 3.11567 176.156 4.33618 175.98 5.12296 175.804 5.90973 175.623 6.72035 174.841 10.3112 174.171 13.9148 173.543 17.5352 173.417 18.2022 173.292 18.8693 173.162 19.5566 170.644 34.1491 170.956 49.2809 170.948 64.0442 170.943 65.8614 170.938 67.6786 170.932 69.4957 170.921 73.3669 170.913 77.238 170.906 81.1092 170.895 87.2324 170.875 93.3555 170.853 99.4786 170.792 116.875 170.737 134.272 170.704 151.669 170.686 161.309 170.657 170.948 170.616 180.588 170.595 185.678 170.58 190.768 170.577 195.858 170.575 200.631 170.559 205.404 170.533 210.177 170.526 211.928 170.524 213.679 170.527 215.429 170.531 217.818 170.516 220.206 170.497 222.594 170.503 223.287 170.509 223.98 170.514 224.694 170.455 228.988 169.697 231.663 167.105 235.098 164.213 237.079 161.89 237.344 158.429 237.325 157.508 237.325 156.587 237.324 155.639 237.324 154.653 237.314 153.668 237.304 152.652 237.293 151.129 237.289 151.129 237.289 149.576 237.284 146.335 237.273 143.096 237.248 139.855 237.223 137.658 237.213 135.46 237.204 133.262 237.195 127.876 237.173 122.491 237.139 117.105 237.098 117.105 233.138 117.105 229.178 117.105 225.098 115.896 225.762 114.687 226.425 113.441 227.109 96.5526 236.267 80.9802 242.519 61.4805 242.41 59.9167 242.404 59.9167 242.404 58.3213 242.397 35.8844 242.073 14.0517 236.026-2.23438 219.918-20.2307 200.838-21.0497 176.152-21.0398 151.299-21.0428 149.771-21.0462 148.244-21.05 146.716-21.0587 142.613-21.0611 138.511-21.0618 134.408-21.0625 131.839-21.0646 129.27-21.0673 126.702-21.0765 117.726-21.0806 108.751-21.0798 99.7756-21.0792 91.4276-21.0898 83.0796-21.1056 74.7316-21.1187 67.5397-21.124 60.3479-21.1234 53.156-21.1231 48.8708-21.1259 44.5856-21.1366 40.3004-21.1462 36.2775-21.1463 32.2548-21.139 28.2319-21.138 26.7594-21.1403 25.2868-21.1464 23.8142-21.1542 21.7987-21.1483 19.7831-21.1418 17.7676-21.1423 16.6418-21.1429 15.5161-21.1434 14.3562-20.8009 9.87162-20.2855 5.53654-17.082 2.22266-11.7277-0.531014-5.8674-0.033105 0 0Z" fill="#ED1B23" transform="translate(1180.89 149.902)"/><path d="M0 0C27.72 0 55.44 0 84 0 84.0142 9.6293 84.0284 19.2586 84.043 29.1797 84.063 35.2865 84.0844 41.3932 84.1113 47.5 84.1539 57.1892 84.1914 66.8781 84.1956 76.5674 84.1986 83.6249 84.2192 90.6822 84.2605 97.7397 84.2818 101.474 84.2945 105.207 84.2862 108.941 84.2772 113.119 84.3074 117.295 84.3406 121.472 84.3276 123.312 84.3276 123.312 84.3144 125.189 84.4157 132.801 85.6184 138.658 90 145 97.8828 151.855 107.119 151.326 117.027 151.414 118.385 151.433 119.743 151.452 121.1 151.473 124.653 151.524 128.205 151.564 131.758 151.601 135.391 151.641 139.025 151.692 142.658 151.742 149.772 151.839 156.886 151.923 164 152 164.127 159.08 164.215 166.159 164.275 173.24 164.3 175.646 164.334 178.051 164.377 180.456 164.438 183.927 164.466 187.396 164.488 190.867 164.514 191.931 164.54 192.995 164.566 194.091 164.569 201.367 163.194 206.964 159 213 152.557 219.205 146.114 221.306 137.197 221.275 136.059 221.282 136.059 221.282 134.898 221.29 132.401 221.304 129.904 221.303 127.406 221.301 125.655 221.305 123.903 221.309 122.152 221.314 118.48 221.321 114.808 221.321 111.137 221.316 106.468 221.31 101.8 221.327 97.1311 221.35 93.5104 221.365 89.8899 221.366 86.2692 221.363 84.5503 221.363 82.8314 221.368 81.1125 221.378 58.531 221.495 37.5384 216.573 20.8125 200.438 3.13103 182.6-0.178307 159.119-0.113525 135.095-0.113243 133.616-0.113403 132.137-0.113968 130.657-0.114253 126.67-0.108403 122.684-0.101394 118.697-0.0951127 114.519-0.0945529 110.342-0.0933685 106.165-0.0902692 98.2673-0.0820748 90.3699-0.072019 82.4724-0.0587163 71.7915-0.0533467 61.1105-0.0475168 50.4296-0.0381339 33.6197-0.0182056 16.8099 0 0Z" transform="translate(298 166)"/><path d="M0 0C0.123744 6.03223 0.214408 12.0637 0.274658 18.0969 0.299778 20.1485 0.33388 22.2 0.377197 24.2512 0.43796 27.2029 0.466235 30.1533 0.488281 33.1055 0.514088 34.0202 0.539894 34.935 0.566483 35.8775 0.568476 40.4191 0.499422 42.3561-2.36499 46.0491-5.09701 48.0718-7.08338 48.9766-10.375 49.75-11.2696 49.9717-12.1642 50.1934-13.0859 50.4219-19.3572 51.666-25.5003 52.1842-31.8711 52.3945-33.5983 52.4634-35.3256 52.5331-37.0527 52.6035-39.7309 52.7099-42.4088 52.8116-45.0876 52.8987-62.8952 53.4923-82.754 55.3038-96.418 68.2031-109.999 83.6283-112.418 103.928-112.312 123.688-112.31 124.745-112.31 124.745-112.307 125.824-112.216 146.634-109.488 168.187-94.9375 184.281-84.2247 194.535-71.2631 197.394-56.875 197.312-55.3133 197.305-55.3133 197.305-53.72 197.298-33.197 196.996-11.5978 194.13 7 185 7.66 185 8.32 185 9 185 9.07426 190.89 9.12865 196.779 9.16479 202.67 9.17986 204.673 9.20032 206.676 9.22632 208.678 9.26278 211.56 9.27974 214.442 9.29297 217.324 9.30845 218.217 9.32394 219.11 9.33989 220.03 9.34119 224.868 9.13791 228.066 6 232-0.399027 238.211-8.94685 240.556-17.5 242.125-18.3753 242.29-19.2505 242.454-20.1523 242.624-22.7652 243.103-25.3809 243.557-28 244-28.7013 244.121-29.4025 244.243-30.125 244.368-61.663 249.609-100.649 247.866-127.809 229.055-130.299 227.122-132.66 225.111-135 223-135.684 222.408-136.369 221.817-137.074 221.207-159.897 200.178-166.445 164.826-167.791 135.286-167.871 133.191-167.937 131.096-168 129-168.041 127.943-168.083 126.886-168.125 125.797-168.828 92.213-161.685 59.797-138 35-137.471 34.3967-136.943 33.7934-136.398 33.1719-117.447 12.3744-86.1985 5.54277-59.3789 4.20703-55.0751 4.02204-50.7715 3.91945-46.4648 3.82422-43.6848 3.76047-40.9049 3.69396-38.125 3.625-37.0807 3.59926-37.0807 3.59926-36.0154 3.573-25.973 3.3079-16.2061 2.50791-6.32422 0.621094-3 0-3 0 0 0Z" fill="#ED1B23" transform="translate(744 146)"/><path d="M0 0C0.991747 0.00424484 1.98349 0.00848969 3.00529 0.0128632 6.16397 0.0296175 9.32199 0.0672643 12.4805 0.105469 14.6256 0.12052 16.7708 0.134207 18.916 0.146484 24.1669 0.17951 29.4174 0.229678 34.668 0.292969 34.67 1.17712 34.67 1.17712 34.6721 2.07913 34.7527 37.0179 34.8437 71.9567 34.948 106.895 34.9605 111.091 34.973 115.287 34.9854 119.482 34.9878 120.318 34.9903 121.153 34.9928 122.014 35.0325 135.536 35.0653 149.059 35.0955 162.581 35.1266 176.458 35.1652 190.334 35.2108 204.211 35.2386 212.773 35.2607 221.335 35.2752 229.896 35.2858 235.768 35.3036 241.64 35.3271 247.512 35.3405 250.9 35.3496 254.287 35.3522 257.674 35.3555 261.35 35.371 265.025 35.3895 268.701 35.3876 269.767 35.3856 270.833 35.3836 271.932 35.4403 279.456 35.7912 287.152 40.668 293.293 46.7682 297.175 55.68 295.323 62.5117 294.781 64.2471 294.645 64.2471 294.645 66.0176 294.505 66.8922 294.435 67.7668 294.365 68.668 294.293 68.7177 298.722 68.7538 303.151 68.7778 307.58 68.7878 309.085 68.8015 310.589 68.8188 312.093 68.8433 314.265 68.8545 316.437 68.8633 318.609 68.8738 319.913 68.8842 321.217 68.895 322.561 68.5771 327.786 67.8168 331.882 64.4805 335.98 53.0826 344.255 36.0205 343.427 22.7695 341.82 12.2993 339.89 1.07413 335.739-5.95703 327.355-19.0962 307.647-18.7766 286.291-18.7202 263.464-18.7226 260.681-18.7295 257.899-18.7361 255.116-18.7494 248.384-18.7466 241.651-18.7379 234.919-18.7311 229.448-18.7302 223.978-18.7335 218.507-18.7339 217.726-18.7344 216.944-18.7349 216.139-18.7358 214.55-18.7368 212.962-18.7378 211.374-18.7463 196.53-18.7365 181.686-18.7204 166.843-18.707 154.111-18.7093 141.379-18.7231 128.647-18.7392 113.834-18.7455 99.0212-18.7363 84.2083-18.7354 82.6299-18.7344 81.0514-18.7335 79.4729-18.733 78.6964-18.7326 77.9199-18.7321 77.1198-18.7295 71.6507-18.7339 66.1816-18.7409 60.7125-18.7493 54.0558-18.7471 47.3993-18.7311 40.7427-18.7232 37.3476-18.7201 33.9526-18.73 30.5574-18.7382 26.8793-18.728 23.2017-18.713 19.5236-18.7197 18.4486-18.7264 17.3737-18.7333 16.2661-18.6596 6.98681-18.6596 6.98681-15.332 3.29297-10.7929-0.69579-5.71621-0.0923398 0 0Z" fill="#ED1B23" transform="translate(812.332 49.707)"/><path d="M0 0C1.93408 0.00604248 1.93408 0.00604248 3.90723 0.012207 8.69871 0.0330494 13.49 0.0888945 18.2812 0.140625 34.3688 0.264375 34.3688 0.264375 50.7812 0.390625 50.7812 32.0706 50.7812 63.7506 50.7812 96.3906 23.0613 96.3906-4.65875 96.3906-33.2188 96.3906-33.2806 84.3869-33.3425 72.3831-33.4062 60.0156-33.4336 56.2433-33.4609 52.4711-33.489 48.5845-33.5026 43.9324-33.5026 43.9324-33.5051 41.7457-33.5097 40.2378-33.5201 38.7299-33.5355 37.222-33.7471 15.3217-33.7471 15.3217-27.0312 8.01562-26.5014 7.40977-25.9716 6.80391-25.4258 6.17969-17.4372-0.296023-9.81269-0.148886 0 0Z" transform="translate(331.219 -0.390625)"/></svg>