<svg viewBox="0 0 1008 181.54" xmlns="http://www.w3.org/2000/svg" xmlns:xlink="http://www.w3.org/1999/xlink" overflow="hidden"><path d="M0 0 0 147.978 69.062 147.978 69.062 59.187 108.524 59.187 108.524 147.978 177.572 147.978 177.572 0Z" fill="#0067C5"/><path d="M256.498 0.021 286.33 0.021 355.147 91.502 355.147 0.021 387.045 0.021 387.045 147.958 359.568 147.958 288.409 54.555 288.409 147.966 256.496 147.966 256.498 0.021ZM402.564 92.348C402.564 126.778 427.537 150.487 461.35 150.487 481.685 150.487 496.796 142.508 507.258 129.483L489.028 113.323C480.218 121.522 472.457 124.885 461.763 124.885 447.463 124.885 437.421 117.326 434.266 102.848L512.532 102.848C512.776 99.922 512.962 96.95 512.962 94.471 512.962 62.559 495.755 33.393 458.219 33.393 425.47 33.393 402.578 59.831 402.578 91.909L402.578 92.348M433.825 82.893C436.332 68.44 444.946 58.961 458.204 58.961 471.605 58.961 480.016 68.6 481.894 82.893L433.825 82.893ZM532.87 116.042C532.87 142.069 546.086 149.835 565.564 149.835 576.271 149.835 584.076 147.317 590.789 143.325L590.789 117.704C586.157 120.263 580.919 121.745 575.023 121.745 567.917 121.745 564.755 118.149 564.755 110.802L564.755 62.743 591.211 62.743 591.211 35.473 564.755 35.473 564.755 6.726 532.867 6.726 532.867 35.474 519.44 35.474 519.44 62.744 532.867 62.744 532.87 116.042M758.748 181.536 790.614 181.536 790.614 133.276C798.172 142.284 808.668 150.059 825.66 150.059 852.338 150.059 876.889 129.495 876.889 91.905L876.889 91.505C876.889 53.939 851.927 33.388 825.66 33.388 809.098 33.388 798.389 41.126 790.614 51.623L790.614 35.477 758.748 35.477 758.748 181.536ZM844.942 91.907C844.942 110.796 832.366 122.993 817.473 122.993 802.577 122.993 790.202 110.591 790.202 91.907L790.202 91.505C790.202 72.826 802.59 60.455 817.473 60.455 832.366 60.455 844.942 72.826 844.942 91.505L844.942 91.907M889.854 181.536 921.749 181.536 921.749 133.276C929.292 142.284 939.794 150.059 956.815 150.059 983.442 150.059 1008 129.495 1008 91.905L1008 91.505C1008 53.939 983.04 33.388 956.815 33.388 940.231 33.388 929.518 41.126 921.749 51.623L921.749 35.477 889.854 35.477 889.854 181.536ZM976.119 91.907C976.119 110.796 963.5 122.993 948.599 122.993 933.744 122.993 921.328 110.591 921.328 91.907L921.328 91.505C921.328 72.826 933.74 60.455 948.599 60.455 963.498 60.455 976.119 72.826 976.119 91.505L976.119 91.907M598.954 147.963 631.892 147.963 645.33 114.988 703.569 114.988 717.093 147.963 750.759 147.963 689.376 0.006 660.325 0.006 598.954 147.963ZM654.919 86.504 674.453 38.803 693.966 86.504 654.919 86.504Z" fill="#010101"/></svg>