<?xml version="1.0" encoding="UTF-8" standalone="no"?>
<!DOCTYPE svg PUBLIC "-//W3C//DTD SVG 1.1//EN" "http://www.w3.org/Graphics/SVG/1.1/DTD/svg11.dtd">
<svg width="100%" height="100%" viewBox="0 0 2450 500" version="1.1" xmlns="http://www.w3.org/2000/svg" xmlns:xlink="http://www.w3.org/1999/xlink" xml:space="preserve" xmlns:serif="http://www.serif.com/" style="fill-rule:evenodd;clip-rule:evenodd;stroke-linejoin:round;stroke-miterlimit:2;">
    <g id="NVIDIA_Logo" transform="matrix(1,0,0,1,-288.314,-282.9872)">
        <path id="Eye_Mark" d="M562.333,440.327L562.333,398.813C566.363,398.525 570.434,398.311 574.583,398.181C688.128,394.612 762.619,495.743 762.619,495.743C762.619,495.743 682.165,607.491 595.901,607.491C583.476,607.491 572.357,605.488 562.333,602.124L562.333,476.236C606.537,481.575 615.423,501.1 642.006,545.397L701.11,495.563C701.11,495.563 657.967,438.976 585.237,438.976C577.322,438.976 569.76,439.536 562.333,440.327M562.333,303.188L562.333,365.2C566.408,364.877 570.489,364.618 574.583,364.47C732.485,359.151 835.354,493.967 835.354,493.967C835.354,493.967 717.193,637.65 594.098,637.65C582.819,637.65 572.257,636.608 562.333,634.852L562.333,673.183C570.821,674.262 579.61,674.896 588.785,674.896C703.343,674.896 786.183,616.399 866.405,547.158C879.697,557.807 934.151,583.713 945.349,595.068C869.07,658.918 691.318,710.382 590.546,710.382C580.836,710.382 571.496,709.795 562.333,708.916L562.333,762.786L997.735,762.786L997.735,303.188L562.333,303.188ZM562.333,602.124L562.333,634.852C456.382,615.962 426.974,505.825 426.974,505.825C426.974,505.825 477.844,449.461 562.333,440.327L562.333,476.236C562.268,476.236 562.225,476.218 562.168,476.218C517.833,470.893 483.192,512.319 483.192,512.319C483.192,512.319 502.599,582.054 562.333,602.124M374.151,501.053C374.151,501.053 436.947,408.393 562.333,398.813L562.333,365.2C423.455,376.346 303.189,493.967 303.189,493.967C303.189,493.967 371.301,690.888 562.333,708.916L562.333,673.183C422.149,655.546 374.151,501.053 374.151,501.053Z" style="fill:rgb(118,185,0);fill-rule:nonzero;"/>
        <path id="NVIDIA" d="M1782.013,390.034L1782.043,691.709L1867.239,691.709L1867.239,390.04L1782.013,390.034ZM1111.788,389.625L1111.788,691.709L1197.744,691.709L1197.744,462.332L1264.333,462.355C1286.392,462.355 1302.102,467.844 1312.731,479.186C1326.208,493.547 1331.708,516.696 1331.708,559.062L1331.708,691.709L1414.977,691.694L1414.992,524.809C1414.992,405.688 1339.06,389.624 1264.779,389.624L1111.788,389.624M1919.194,390.045L1919.194,691.709L2057.382,691.709C2131.008,691.709 2155.038,679.464 2181.027,652.01C2199.399,632.737 2211.267,590.429 2211.267,544.193C2211.267,501.791 2201.221,463.962 2183.692,440.405C2152.128,398.279 2106.654,390.045 2038.767,390.045L1919.194,390.045L1919.194,390.045ZM2003.706,455.73L2040.339,455.73C2093.483,455.73 2127.853,479.596 2127.853,541.518C2127.853,603.456 2093.483,627.321 2040.339,627.321L2003.706,627.321L2003.706,455.73ZM1659.172,390.045L1588.068,629.131L1519.934,390.06L1427.964,390.045L1525.268,691.709L1648.063,691.709L1746.132,390.045L1659.172,390.045L1659.172,390.045ZM2250.913,691.709L2336.124,691.709L2336.124,390.06L2250.893,390.045L2250.913,691.709ZM2489.752,390.153L2370.783,691.605L2454.792,691.605L2473.614,638.324L2614.409,638.324L2632.226,691.605L2723.437,691.605L2603.56,390.128L2489.752,390.153ZM2545.057,445.15L2596.667,586.375L2491.816,586.375L2545.057,445.15Z" style="fill-rule:nonzero;"/>
    </g>
</svg>
